<?xml version="1.0" standalone="no"?>
<!DOCTYPE svg PUBLIC "-//W3C//DTD SVG 1.1//EN" "http://www.w3.org/Graphics/SVG/1.1/DTD/svg11.dtd" >
<svg xmlns="http://www.w3.org/2000/svg" xmlns:xlink="http://www.w3.org/1999/xlink" version="1.1">
<metadata>
Created by FontForge 20201107 at Fri Jun 15 09:01:32 2018
 By 
Copyright (c) 2017 by Emil Bertell. All rights reserved.
</metadata>
<defs>
<font id="PraktikaRounded-Medium" horiz-adv-x="0" >
  <font-face 
    font-family="Praktika Rounded Medium"
    font-weight="500"
    font-stretch="normal"
    units-per-em="2048"
    panose-1="0 0 6 0 0 0 0 0 0 0"
    ascent="1638"
    descent="-410"
    x-height="952"
    cap-height="1366"
    bbox="-1440 -524.246 2152 2221.36"
    underline-thickness="0"
    underline-position="0"
    unicode-range="U+0020-25CA"
  />
<missing-glyph horiz-adv-x="952" 
d="M780 1518v-1905h-604v1905h604zM635 1391h-316v-64h125v-70h-127v-63h318v63h-127v70h127v64zM508 1145h-191v-199h318v66h-127v133zM444 1079v-67h-63v67h63zM635 895h-318v-64h127v-69h-127v-64h191v133h127v64zM635 780h-64v-125h-254v-65h318v190zM635 549h-191v-107
h64v43h63v-90h-190v154h-64v-215h318v215zM635 219h-318v-215h318v215zM571 156v-90h-190v90h190zM635 -41h-318v-61h134l-134 -91v-63h318v63h-195l133 91h62v61z" />
    <glyph glyph-name=".notdef" horiz-adv-x="952" 
d="M780 1518v-1905h-604v1905h604zM635 1391h-316v-64h125v-70h-127v-63h318v63h-127v70h127v64zM508 1145h-191v-199h318v66h-127v133zM444 1079v-67h-63v67h63zM635 895h-318v-64h127v-69h-127v-64h191v133h127v64zM635 780h-64v-125h-254v-65h318v190zM635 549h-191v-107
h64v43h63v-90h-190v154h-64v-215h318v215zM635 219h-318v-215h318v215zM571 156v-90h-190v90h190zM635 -41h-318v-61h134l-134 -91v-63h318v63h-195l133 91h62v61z" />
    <glyph glyph-name="glyph1" 
 />
    <glyph glyph-name="glyph2" horiz-adv-x="681" 
 />
    <glyph glyph-name="space" unicode=" " horiz-adv-x="407" 
 />
    <glyph glyph-name="exclam" unicode="!" horiz-adv-x="559" 
d="M225 342q-16 0 -26.5 11.5t-10.5 25.5v948q0 16 10.5 27.5t26.5 11.5h105q16 0 27.5 -11.5t11.5 -27.5v-948q0 -14 -11.5 -25.5t-27.5 -11.5h-105zM279 -27q-121 0 -121 123q0 113 121 113q127 0 127 -113q0 -123 -127 -123z" />
    <glyph glyph-name="quotedbl" unicode="&#x22;" horiz-adv-x="790" 
d="M123 1407q0 41 39 41h98q18 0 29.5 -11.5t9.5 -29.5l-14 -545q-4 -35 -35 -35h-72q-33 0 -37 35zM455 1407q-2 18 9 29.5t28 11.5h100q16 0 27.5 -11.5t9.5 -29.5l-15 -545q0 -35 -34 -35h-72q-14 0 -24.5 10.5t-10.5 24.5z" />
    <glyph glyph-name="numbersign" unicode="#" horiz-adv-x="1521" 
d="M227 0q-20 0 -31.5 14.5t-7.5 34.5l48 211q4 25 -19 25h-113q-18 0 -27 14t-5 33l12 76q4 29 37 28h135q14 0 18 15l97 446q2 8 -4.5 16.5t-16.5 8.5h-123q-20 0 -31.5 12t-9.5 33l15 75q4 31 35 31h157q12 0 17 12l55 252q4 29 33 29h90q20 0 31.5 -14.5t7.5 -34.5
l-49 -219q-4 -25 20 -25h487q12 0 17 12l55 252q6 29 35 29h88q20 0 32.5 -14.5t8.5 -34.5l-49 -219q-6 -25 20 -25h117q20 0 32.5 -13t8.5 -32l-14 -78q-4 -29 -35 -28h-152q-12 0 -16 -15l-98 -446q-2 -10 5 -17.5t15 -7.5h139q18 0 30.5 -13t10.5 -32l-14 -78
q-8 -33 -35 -32l-172 4q-16 0 -18 -15l-54 -241q-6 -29 -34 -29h-90q-18 0 -29.5 14.5t-7.5 34.5l47 211q4 25 -21 25h-487q-14 0 -17 -13l-53 -243q-6 -29 -33 -29h-90zM463 436h487q12 0 17 15l96 446q4 25 -21 25h-485q-12 0 -16 -15l-97 -446q-2 -8 3.5 -16.5t15.5 -8.5
z" />
    <glyph glyph-name="dollar" unicode="$" horiz-adv-x="1236" 
d="M588 -86q-14 0 -25.5 10t-11.5 27v106q0 16 -19 17q-160 14 -265 71.5t-175 169.5q-18 25 8 50l58 47q31 25 55 -6q123 -190 426 -191q152 0 238 50t86 141q0 70 -51.5 114.5t-172.5 73.5l-276 63q-342 82 -342 336q0 281 411 310q18 0 19 18v88q0 16 10 27.5t27 11.5
h104q16 0 26.5 -11.5t10.5 -27.5v-94q0 -18 14 -19q246 -29 381 -200q12 -10 12.5 -25.5t-12.5 -26.5l-49 -49q-23 -23 -51 2q-72 88 -173 128t-253 40q-299 0 -299 -168q0 -139 236 -194l256 -58q178 -41 263 -119.5t85 -215.5q0 -147 -108.5 -229.5t-285.5 -100.5
q-16 0 -16 -17v-112q0 -16 -10 -26.5t-27 -10.5h-104z" />
    <glyph glyph-name="percent" unicode="%" horiz-adv-x="1560" 
d="M412 778q-137 0 -224.5 61.5t-87.5 196.5v99q0 258 312 258q139 0 226 -60.5t87 -197.5v-99q0 -135 -87 -196.5t-226 -61.5zM242 0q-33 0 -44.5 26.5t9.5 53.5l977 1253q23 33 53 33h78q33 0 44 -26.5t-9 -53.5l-963 -1241q-20 -29 -35.5 -37t-44.5 -8h-65zM412 891
q78 -2 129 34t51 119v84q0 154 -180 154q-76 0 -128.5 -36t-52.5 -118v-84q1 -153 181 -153zM1149 -29q-139 0 -226 60.5t-87 197.5v99q0 258 313 258q139 0 226 -60.5t87 -197.5v-99q0 -135 -87 -196.5t-226 -61.5zM1149 84q78 -2 129 34t51 120v84q0 154 -180 153.5
t-180 -153.5v-84q0 -154 180 -154z" />
    <glyph glyph-name="ampersand" unicode="&#x26;" horiz-adv-x="1288" 
d="M596 -29q-508 0 -508 394q0 270 221 335q29 10 2 21q-90 33 -140 115t-50 194q0 186 129 275.5t356 89.5q174 0 296 -50.5t220 -175.5q18 -29 -6 -49l-51 -53q-25 -27 -51 0q-139 162 -400 162q-311 0 -311 -229.5t260 -229.5h676q39 0 39 -39v-61q0 -39 -39 -39h-63
q-18 0 -19 -19v-174q0 -137 -42 -231t-122 -144.5t-175 -71t-222 -20.5zM598 137q195 0 294 68.5t99 243.5v163q0 18 -18 19h-410q-295 0 -295 -246q0 -248 330 -248z" />
    <glyph glyph-name="quotesingle" unicode="'" horiz-adv-x="460" 
d="M141 1407q0 41 39 41h101q16 0 27 -11.5t9 -29.5l-14 -545q0 -35 -35 -35h-71q-33 0 -37 35z" />
    <glyph glyph-name="parenleft" unicode="(" horiz-adv-x="718" 
d="M696 -258q0 -39 -39 -39q-287 10 -431 175t-144 511v572q0 338 144.5 498.5t430.5 170.5q16 0 27.5 -10t11.5 -27v-92q0 -33 -34 -37q-199 -8 -299.5 -131t-100.5 -372v-572q0 -504 400 -520q35 -4 34 -37v-90z" />
    <glyph glyph-name="parenright" unicode=")" horiz-adv-x="718" 
d="M23 -258v90q0 33 34 37q399 16 400 520v572q0 250 -100.5 372.5t-299.5 130.5q-35 4 -34 37v92q0 16 11 26.5t27 10.5q287 -10 431.5 -171t144.5 -498v-572q0 -346 -144.5 -511t-431.5 -175q-38 0 -38 39z" />
    <glyph glyph-name="asterisk" unicode="*" horiz-adv-x="946" 
d="M262 608l-61 37q-16 10 -18.5 28.5t10.5 33.5l174 239q33 39 -19 39l-233 43q-18 2 -28.5 15.5t-6.5 33.5l16 68q4 20 21.5 27.5t36.5 -1.5l231 -79q25 -12 31 -6t2 32l-21 281q-2 20 9.5 33.5t29.5 13.5h74q20 0 31.5 -12.5t9.5 -32.5l-21 -281q-4 -27 3.5 -33t29.5 7
l230 77q43 20 57 -26l16 -68q10 -45 -37 -49l-233 -41q-27 -2 -31 -9t15 -30l174 -241q29 -37 -9 -60l-59 -37q-16 -12 -33.5 -6t-25.5 25l-129 241q-16 43 -24.5 43t-24.5 -43l-130 -241q-6 -18 -23.5 -24.5t-33.5 3.5z" />
    <glyph glyph-name="plus" unicode="+" horiz-adv-x="1181" 
d="M1032 711q16 0 27.5 -11.5t11.5 -27.5v-56q0 -14 -11 -26t-28 -12h-352q-18 0 -18 -19v-332q0 -37 -39 -37h-66q-37 0 -37 37v332q0 18 -18 19h-352q-14 0 -26.5 12t-12.5 26v56q0 16 11 27.5t28 11.5h352q18 0 18 18v332q0 39 39 39h66q16 0 26.5 -11.5t10.5 -27.5v-332
q0 -18 18 -18h352z" />
    <glyph glyph-name="comma" unicode="," horiz-adv-x="385" 
d="M37 -354q-16 0 -27.5 12t-9.5 29l6 37q4 33 41 32q90 -4 141.5 35t59.5 113q4 51 -15 90q-4 14 -28 -4q-16 -16 -43 -17q-104 0 -105 123q0 61 34 95t93 34q82 0 132.5 -67.5t50.5 -202.5q0 -325 -330 -309z" />
    <glyph glyph-name="hyphen" unicode="-" horiz-adv-x="915" 
d="M823 571q0 -16 -10 -27.5t-27 -11.5h-655q-39 0 -39 39v64q0 39 39 39h655q16 0 26.5 -11.5t10.5 -27.5v-64z" />
    <glyph glyph-name="period" unicode="." horiz-adv-x="368" 
d="M180 -27q-121 0 -121 131q0 123 121 123q125 0 125 -123q0 -131 -125 -131z" />
    <glyph glyph-name="slash" unicode="/" horiz-adv-x="665" 
d="M195 -287h-103q-20 0 -32.5 14.5t-8.5 34.5l385 1799q6 29 35 28h104q18 0 29.5 -14t9.5 -35l-387 -1798q-3 -29 -32 -29z" />
    <glyph glyph-name="zero" unicode="0" horiz-adv-x="1370" 
d="M682 -31q-274 0 -425 141.5t-151 428.5v292q0 285 151 425.5t425 140.5q276 0 429 -140.5t153 -425.5v-292q0 -287 -153 -428.5t-429 -141.5zM682 135q190 0 294.5 100.5t104.5 296.5v302q0 199 -104.5 297t-294.5 98q-188 0 -291.5 -98.5t-103.5 -296.5v-302
q0 -197 103.5 -297t291.5 -100z" />
    <glyph glyph-name="one" unicode="1" horiz-adv-x="686" 
d="M449 1366q16 0 26 -11.5t10 -27.5v-1288q0 -16 -10 -27.5t-26 -11.5h-103q-16 0 -27.5 11.5t-11.5 27.5v1139q0 20 -18 12l-146 -68q-14 -8 -30.5 -2t-22.5 25l-22 65q-14 33 18 47l209 93q37 16 63 16h91z" />
    <glyph glyph-name="two" unicode="2" horiz-adv-x="1187" 
d="M1112 166q16 0 26.5 -11.5t10.5 -27.5v-88q0 -16 -10.5 -27.5t-26.5 -11.5h-954q-16 0 -26.5 11.5t-10.5 27.5v98q0 14 12 25l467 413q135 123 195.5 220.5t60.5 197.5q0 236 -278 236q-266 0 -375 -213q-18 -27 -51 -8l-70 53q-33 20 -10 49q152 285 524 285
q205 0 324.5 -92.5t119.5 -284.5q0 -147 -75.5 -277.5t-245.5 -277.5l-289 -273q-12 -8 -9 -16t23 -8h668z" />
    <glyph glyph-name="three" unicode="3" horiz-adv-x="1185" 
d="M582 -29q-190 0 -313.5 72t-188.5 238q-12 25 10 45l66 55q31 27 57 -12q49 -121 137 -176.5t234 -55.5q170 0 255 68.5t85 195.5q0 229 -330 230h-186q-16 0 -27.5 11t-11.5 26v63q0 14 12 26.5t27 12.5h186q291 0 291 240q0 219 -281 219q-272 0 -379 -205
q-27 -35 -53 -10l-66 55q-31 23 -10 49q139 276 520 277q209 0 331 -87t122 -268q0 -117 -56.5 -199.5t-156.5 -117.5q-29 -10 2 -18q121 -29 184.5 -109t63.5 -199q0 -211 -136 -318.5t-388 -107.5z" />
    <glyph glyph-name="four" unicode="4" horiz-adv-x="1181" 
d="M819 0q-16 0 -26.5 11.5t-10.5 27.5v184q0 18 -18 19h-694q-16 0 -26.5 11t-10.5 28v88q0 4 6 22l553 957q6 18 29 18h114q29 0 42.5 -22.5t-1.5 -49.5l-516 -864q-23 -39 16 -39h488q18 0 18 19v307q0 16 11.5 27.5t25.5 11.5h103q16 0 27.5 -11.5t11.5 -27.5v-307
q0 -18 18 -19h129q14 0 25.5 -11t11.5 -26v-73q0 -16 -10.5 -27.5t-26.5 -11.5h-129q-18 0 -18 -19v-184q0 -16 -11.5 -27.5t-27.5 -11.5h-103z" />
    <glyph glyph-name="five" unicode="5" horiz-adv-x="1169" 
d="M563 -29q-383 0 -487 308q-10 25 12 43l66 55q31 25 57 -12q84 -231 348 -232q170 0 260 66.5t90 193.5q0 135 -80.5 191.5t-253.5 56.5h-385q-16 0 -27 11.5t-11 25.5v649q0 16 11 27.5t27 11.5h809q16 0 27.5 -11.5t11.5 -27.5v-90q0 -14 -11 -25.5t-28 -11.5h-645
q-23 0 -29 -9t-6 -34v-330q0 -23 7.5 -31t27.5 -8h264q250 0 361 -97t111 -296q0 -213 -137.5 -318.5t-389.5 -105.5z" />
    <glyph glyph-name="six" unicode="6" horiz-adv-x="1282" 
d="M659 -31q-551 0 -550 570v288q0 569 561 570q172 0 291.5 -62.5t197.5 -206.5q16 -29 -8 -51l-70 -59q-31 -25 -57 8q-94 203 -352 203q-375 0 -381 -381v-172q0 -53 33 -19q139 143 395 144q471 0 471 -383q0 -229 -143.5 -339t-387.5 -110zM664 137q168 0 258 72
t90 205q0 244 -342 243q-160 0 -258.5 -63.5t-98.5 -178t83.5 -196.5t267.5 -82z" />
    <glyph glyph-name="seven" unicode="7" horiz-adv-x="1048" 
d="M946 1366q39 0 39 -39v-70q0 -33 -16 -69l-520 -1168q-6 -20 -31 -20h-131q-25 0 -36 20.5t-1 42.5l514 1106q14 31 -21 31h-704q-14 0 -25.5 10.5t-11.5 26.5v90q0 16 10.5 27.5t26.5 11.5h907z" />
    <glyph glyph-name="eight" unicode="8" horiz-adv-x="1316" 
d="M659 -29q-573 0 -573 389q0 262 258 328q29 10 2 23q-227 63 -227 307q0 377 540 377q539 0 539 -377q0 -244 -227 -307q-27 -12 2 -23q258 -66 258 -328q-1 -389 -572 -389zM659 756q360 0 361 233q0 121 -87 180.5t-274 59.5q-362 0 -362 -240q0 -233 362 -233z
M659 137q393 0 394 252q0 238 -394 238q-395 0 -395 -238q0 -252 395 -252z" />
    <glyph glyph-name="nine" unicode="9" horiz-adv-x="1261" 
d="M596 -31q-180 0 -303 62.5t-199 206.5q-18 27 4 49l66 71q29 29 59 -4q96 -219 359 -219q389 0 391 391v119q0 72 -53 19q-123 -117 -369 -117q-471 0 -471 405q0 225 144.5 335t385.5 110q549 0 549 -582v-268q0 -578 -563 -578zM600 690q158 0 256 66.5t98 187.5
q0 117 -83 201t-265 84q-168 0 -257 -72t-89 -205q0 -262 340 -262z" />
    <glyph glyph-name="colon" unicode=":" horiz-adv-x="368" 
d="M180 662q-121 0 -121 131q0 123 121 122q125 0 125 -122q0 -131 -125 -131zM180 47q-121 0 -121 131q0 123 121 123q125 0 125 -123q0 -131 -125 -131z" />
    <glyph glyph-name="semicolon" unicode=";" horiz-adv-x="385" 
d="M178 668q-121 0 -121 131q0 123 121 123q125 0 125 -123q0 -131 -125 -131zM37 -360q-16 0 -27.5 12t-9.5 29l6 36q4 33 41 33q90 -4 141.5 35t59.5 113q4 51 -15 90q-4 14 -28 -4q-16 -16 -43 -17q-104 0 -105 123q0 61 34 95t93 34q82 0 132.5 -67.5t50.5 -202.5
q0 -325 -330 -309z" />
    <glyph glyph-name="less" unicode="&#x3c;" horiz-adv-x="1087" 
d="M133 715l739 403q41 18 54 -18l28 -72q12 -33 -20 -49l-572 -317q-18 -8 -24 -14.5t0 -12.5t24 -17l574 -317q31 -14 18 -47l-26 -74q-14 -37 -54 -18l-741 403q-23 10 -22 33v84q-1 23 22 33z" />
    <glyph glyph-name="equal" unicode="=" horiz-adv-x="1181" 
d="M150 774q-16 0 -27.5 11.5t-11.5 27.5v55q0 16 11 27.5t28 11.5h882q16 0 27.5 -11t11.5 -28v-55q0 -16 -11 -27.5t-28 -11.5h-882zM150 387q-16 0 -27.5 11.5t-11.5 25.5v57q0 14 11 25.5t28 11.5h882q16 0 27.5 -11t11.5 -26v-57q0 -14 -11 -25.5t-28 -11.5h-882z" />
    <glyph glyph-name="greater" unicode="&#x3e;" horiz-adv-x="1085" 
d="M954 715q23 -10 23 -33v-84q0 -23 -23 -33l-741 -403q-39 -18 -53 18l-27 74q-12 33 19 47l573 317q18 10 24.5 16.5t0 12.5t-24.5 15l-571 317q-33 16 -21 49l29 72q12 37 53 18z" />
    <glyph glyph-name="question" unicode="?" horiz-adv-x="1181" 
d="M434 375q-16 0 -26.5 11t-10.5 26q-2 139 59.5 207.5t198.5 132.5q117 59 168 115.5t51 148.5q0 213 -280.5 213t-380.5 -213q-23 -31 -49 -10l-70 49q-29 20 -12 47q131 293 520 293q213 0 335 -89t122 -276q0 -143 -75 -238.5t-222 -158.5q-102 -53 -146.5 -98.5
t-46.5 -128.5q-6 -31 -34 -31h-101zM481 -27q-121 0 -121 123q0 113 121 113q129 0 129 -113q0 -123 -129 -123z" />
    <glyph glyph-name="at" unicode="@" horiz-adv-x="1710" 
d="M899 -279q-801 0 -801 748v149q0 188 61.5 330t171 224.5t249 122.5t309.5 40q166 0 298 -37.5t234.5 -118.5t157.5 -218.5t55 -325.5v-137q0 -111 -27.5 -189t-75.5 -118.5t-101.5 -58t-116.5 -17.5q-133 0 -195 88q-12 20 -28 4q-102 -102 -287 -103q-150 0 -246 83
t-96 274v76q0 188 97 270t245 82q156 0 248 -74q23 -12 26.5 -10t7.5 20l5 27q6 14 24 14h60q16 0 26 -11t10 -28v-407q0 -174 115 -174q72 0 112 58t42 169l2 162q2 270 -149.5 414.5t-442.5 144.5q-307 0 -474 -151.5t-165 -424.5v-151q4 -604 649 -604q256 0 479 63
q18 4 32.5 -6t16.5 -26l9 -64q4 -33 -15 -39q-252 -70 -522 -70zM840 240q104 0 178 53q41 31 41 119v225q-2 23 -21 45q-68 68 -198 70q-102 4 -162 -50.5t-60 -177.5v-51q1 -233 222 -233z" />
    <glyph glyph-name="A" unicode="A" horiz-adv-x="1253" 
d="M96 0q-23 0 -33 16.5t-2 38.5l439 1286q8 27 35 27h182q27 0 37 -29l438 -1284q6 -23 -3 -39t-32 -16h-98q-37 0 -45 37l-86 246q-6 14 -21 14h-561q-16 0 -20 -14l-86 -248q-8 -35 -41 -35h-103zM391 449h469q23 0 17 20l-238 690q-4 12 -12.5 12t-12.5 -12l-237 -690
q-6 -20 14 -20z" />
    <glyph glyph-name="B" unicode="B" horiz-adv-x="1288" 
d="M207 0q-39 0 -39 39v1288q0 39 39 39h534q213 0 308.5 -82t95.5 -244q0 -109 -46 -192.5t-122 -118.5q-23 -10 0 -16q109 -25 172 -112t63 -216q0 -385 -464 -385h-541zM365 768h372q104 0 165 60.5t61 170.5q0 100 -55.5 150.5t-184.5 50.5h-358q-18 0 -19 -18v-396
q1 -18 19 -18zM365 166h360q305 0 305 244q0 102 -58.5 161.5t-168.5 59.5h-438q-18 0 -19 -19v-428q1 -18 19 -18z" />
    <glyph glyph-name="C" unicode="C" horiz-adv-x="1269" 
d="M1186 373q37 -18 22 -58q-66 -182 -198.5 -264t-341.5 -82q-268 0 -413.5 142.5t-145.5 433.5v280q0 289 147 430.5t418 141.5q393 0 528 -305q16 -37 -18 -54l-74 -41q-39 -20 -59 17q-98 215 -373 215q-387 0 -387 -398v-294q0 -201 100.5 -301.5t284.5 -100.5
q283 0 377 250q23 39 59 23z" />
    <glyph glyph-name="D" unicode="D" horiz-adv-x="1380" 
d="M682 1366q592 0 592 -549v-270q0 -547 -592 -547h-475q-39 0 -39 39v1288q0 39 39 39h475zM1090 545v276q0 375 -408 375h-315q-18 0 -19 -18v-990q0 -18 19 -18h315q408 0 408 375z" />
    <glyph glyph-name="E" unicode="E" horiz-adv-x="1189" 
d="M209 0q-41 0 -41 41v1286q0 39 39 39h856q16 0 26.5 -11.5t10.5 -27.5v-92q0 -16 -11.5 -27.5t-25.5 -11.5h-696q-18 0 -19 -18v-394q0 -18 19 -18h561q16 0 27.5 -11.5t11.5 -27.5v-68q0 -16 -11.5 -27t-27.5 -11h-561q-18 0 -19 -19v-416q0 -18 19 -18h700
q14 0 25.5 -10.5t11.5 -26.5v-92q0 -16 -10.5 -27.5t-26.5 -11.5h-858z" />
    <glyph glyph-name="F" unicode="F" horiz-adv-x="1130" 
d="M1040 1366q39 0 39 -39v-94q0 -16 -11 -26.5t-28 -10.5h-673q-18 0 -19 -18v-416q0 -18 19 -19h540q14 0 25.5 -11t11.5 -25v-74q0 -14 -11 -25.5t-26 -11.5h-540q-18 0 -19 -18v-539q0 -16 -10 -27.5t-27 -11.5h-104q-39 0 -39 39v1288q0 39 39 39h833z" />
    <glyph glyph-name="G" unicode="G" horiz-adv-x="1316" 
d="M684 -31q-575 0 -575 576v276q0 291 147 433.5t420 142.5q348 0 520 -273q20 -29 -6 -49l-74 -57q-31 -25 -55 10q-123 201 -383 201q-387 0 -387 -398v-294q0 -401 411 -402q205 0 330 76q12 4 12 20v312q0 18 -18 18h-442q-16 0 -27.5 11.5t-11.5 27.5v70q0 14 12 26.5
t27 12.5h596q16 0 27.5 -11.5t11.5 -27.5v-512q0 -53 -31 -72q-74 -51 -209 -84t-295 -33z" />
    <glyph glyph-name="H" unicode="H" horiz-adv-x="1384" 
d="M1178 1366q39 0 39 -39v-1288q0 -39 -39 -39h-103q-39 0 -39 39v555q0 18 -18 18h-651q-18 0 -19 -18v-555q0 -16 -10 -27.5t-27 -11.5h-104q-39 0 -39 39v1288q0 39 39 39h104q16 0 26.5 -11.5t10.5 -27.5v-532q0 -18 19 -19h651q18 0 18 19v532q0 39 39 39h103z" />
    <glyph glyph-name="I" unicode="I" horiz-adv-x="516" 
d="M207 0q-39 0 -39 39v1288q0 39 39 39h104q16 0 26.5 -11.5t10.5 -27.5v-1288q0 -16 -10 -27.5t-27 -11.5h-104z" />
    <glyph glyph-name="J" unicode="J" horiz-adv-x="1032" 
d="M18 129q-27 31 -6 59l58 68q25 33 57 0q113 -119 287 -119q305 0 305 375v815q0 16 11 27.5t28 11.5h104q39 0 39 -39v-813q0 -543 -465 -543q-271 0 -418 158z" />
    <glyph glyph-name="K" unicode="K" horiz-adv-x="1261" 
d="M207 0q-39 0 -39 39v1288q0 39 39 39h104q16 0 26.5 -11.5t10.5 -27.5v-633q0 -12 8.5 -15t16.5 7l583 641q29 39 70 39h86q31 0 42 -26.5t-9 -49.5l-391 -426q-10 -10 -4 -24l426 -779q10 -23 -0.5 -42t-36.5 -19h-101q-47 0 -61 41l-348 635q-12 25 -27 2l-246 -254
q-8 -16 -8 -23v-362q0 -16 -10 -27.5t-27 -11.5h-104z" />
    <glyph glyph-name="L" unicode="L" horiz-adv-x="1046" 
d="M981 168q16 0 27.5 -11.5t11.5 -25.5v-92q0 -16 -11.5 -27.5t-27.5 -11.5h-774q-16 0 -27.5 11.5t-11.5 27.5v1288q0 39 39 39h104q16 0 26.5 -11.5t10.5 -27.5v-1141q0 -18 19 -18h614z" />
    <glyph glyph-name="M" unicode="M" horiz-adv-x="1677" 
d="M207 0q-39 0 -39 39v1288q0 39 39 39h129q20 0 31 -20l456 -938q4 -10 12.5 -10.5t12.5 10.5l465 938q10 20 30 20h130q16 0 26 -11.5t10 -27.5v-1288q0 -16 -10 -27.5t-26 -11.5h-97q-37 0 -37 39l2 934q0 14 -8 15t-14 -11l-410 -827q-8 -18 -30 -19h-86q-23 0 -33 19
l-404 823q-6 14 -13 12t-7 -16l2 -930q0 -39 -37 -39h-94z" />
    <glyph glyph-name="N" unicode="N" horiz-adv-x="1359" 
d="M1155 1366q16 0 26.5 -11.5t10.5 -27.5v-1288q0 -16 -10.5 -27.5t-26.5 -11.5h-115q-23 0 -34 20l-648 994q-6 10 -14 8t-8 -16l2 -967q0 -16 -10.5 -27.5t-26.5 -11.5h-94q-39 0 -39 39v1288q0 39 39 39h115q23 0 34 -20l645 -990q6 -10 14.5 -8t8.5 14l-2 965
q0 16 10 27.5t27 11.5h96z" />
    <glyph glyph-name="O" unicode="O" horiz-adv-x="1404" 
d="M700 -31q-283 0 -437 142.5t-154 433.5v280q0 287 155.5 429.5t435.5 142.5q285 0 441.5 -142.5t156.5 -429.5v-280q0 -291 -156.5 -433.5t-441.5 -142.5zM700 135q199 0 307.5 101.5t108.5 302.5v290q0 201 -108.5 300.5t-307.5 99.5q-195 0 -302 -99.5t-107 -300.5
v-290q0 -201 107 -302.5t302 -101.5z" />
    <glyph glyph-name="P" unicode="P" horiz-adv-x="1193" 
d="M207 0q-39 0 -39 39v1288q0 39 39 39h465q246 0 357.5 -101.5t111.5 -338.5q0 -471 -469 -471h-307q-18 0 -19 -19v-397q0 -16 -10 -27.5t-27 -11.5h-102zM365 612h303q139 0 214.5 80t75.5 232q0 150 -72.5 213t-217.5 63h-303q-18 0 -19 -18v-551q1 -19 19 -19z" />
    <glyph glyph-name="Q" unicode="Q" horiz-adv-x="1386" 
d="M700 -31q-283 0 -437 142.5t-154 433.5v280q0 287 155.5 429.5t435.5 142.5q285 0 441.5 -142.5t156.5 -429.5v-280q0 -377 -280 -506q-20 -8 -4 -25l170 -112q33 -25 4 -58l-47 -49q-23 -27 -49 -4l-252 178q-14 10 -25 8q-74 -8 -115 -8zM700 135q199 0 307.5 101.5
t108.5 302.5v290q0 201 -108.5 300.5t-307.5 99.5q-195 0 -302 -99.5t-107 -300.5v-290q0 -201 107 -302.5t302 -101.5z" />
    <glyph glyph-name="R" unicode="R" horiz-adv-x="1218" 
d="M195 0q-16 0 -26.5 11.5t-10.5 27.5v1288q0 16 10 27.5t27 11.5h507q231 0 340 -101.5t109 -338.5q0 -334 -240 -424q-18 -6 -8 -25l230 -414q12 -23 1.5 -43t-36.5 -20h-111q-25 0 -33 18l-241 433q-12 14 -23 12q-27 -2 -84 -2h-256q-14 0 -14 -19v-403
q0 -16 -11.5 -27.5t-27.5 -11.5h-102zM350 618h322q145 0 222 78t77 230q0 150 -73 212t-216 62h-328q-18 0 -18 -18v-545q0 -19 14 -19z" />
    <glyph glyph-name="S" unicode="S" horiz-adv-x="1193" 
d="M612 -31q-197 0 -322.5 56.5t-215.5 189.5q-20 25 2 47l61 70q29 29 60 -2q72 -100 169 -148.5t246 -48.5q139 0 231.5 60.5t92.5 166.5q0 90 -54.5 143.5t-179.5 88.5l-260 63q-340 92 -340 385q0 170 134.5 263.5t361.5 93.5q158 0 278.5 -49.5t219.5 -173.5
q20 -25 0 -50l-64 -69q-25 -25 -53 0q-139 178 -381 178q-315 0 -315 -195q0 -86 56 -140t177 -87l227 -57q184 -43 278.5 -133.5t94.5 -260.5q0 -193 -140.5 -292t-363.5 -99z" />
    <glyph glyph-name="T" unicode="T" horiz-adv-x="1140" 
d="M1049 1366q39 0 38 -39v-90q0 -16 -11 -26.5t-27 -10.5h-369q-18 0 -18 -18v-1143q0 -16 -11.5 -27.5t-27.5 -11.5h-105q-39 0 -39 39v1143q0 18 -18 18h-371q-16 0 -26.5 10.5t-10.5 26.5v90q0 16 10.5 27.5t26.5 11.5h959z" />
    <glyph glyph-name="U" unicode="U" horiz-adv-x="1323" 
d="M670 -31q-258 0 -398.5 140.5t-140.5 429.5v788q0 39 39 39h102q39 0 39 -39v-795q0 -397 359 -397q342 0 342 397v795q0 39 39 39h104q16 0 27.5 -11.5t11.5 -27.5v-788q0 -289 -136 -429.5t-388 -140.5z" />
    <glyph glyph-name="V" unicode="V" horiz-adv-x="1304" 
d="M1204 1366q23 0 34 -15.5t3 -37.5l-479 -1290q-6 -23 -33 -23h-168q-27 0 -33 25l-465 1284q-8 23 2.5 40t32.5 17h113q25 0 33 -27l391 -1108q4 -12 12 -12t12 12l400 1108q6 27 35 27h110z" />
    <glyph glyph-name="W" unicode="W" horiz-adv-x="1912" 
d="M1792 1366q20 0 30.5 -16.5t4.5 -36.5l-365 -1290q-6 -27 -32 -27h-152q-27 0 -33 27l-282 1017q-2 8 -6.5 11.5t-9.5 0.5t-7 -10l-303 -1019q-6 -27 -33 -27h-151q-27 0 -33 27l-336 1292q-4 20 6 35.5t31 15.5h112q29 0 35 -29l252 -1040q4 -12 12.5 -12t10.5 12
l299 1038q6 27 35 27h153q27 0 33 -29l283 -1034q2 -12 10 -12t10 12l276 1038q8 29 35 29h115z" />
    <glyph glyph-name="X" unicode="X" horiz-adv-x="1236" 
d="M98 0q-29 0 -39 21.5t4 44.5l429 612q8 14 -3 24l-421 596q-16 23 -4 45.5t40 22.5h107q23 0 35 -23l366 -518q14 -20 27 0l362 521q14 20 35 20h101q27 0 38 -21.5t-4 -44.5l-423 -604q-8 -10 -3 -26l431 -602q14 -25 3.5 -46.5t-38.5 -21.5h-109q-25 0 -33 18l-374 531
q-16 23 -27 -2l-365 -527q-12 -20 -34 -20h-101z" />
    <glyph glyph-name="Y" unicode="Y" horiz-adv-x="1218" 
d="M1110 1366q27 0 38 -21.5t-1 -44.5l-438 -761q-4 -16 -4 -23v-477q0 -39 -39 -39h-105q-16 0 -27.5 11.5t-11.5 27.5l-2 483q0 16 -6 25l-440 751q-14 25 -4 46.5t36 21.5h101q27 0 39 -25l354 -616q14 -20 25 0l348 616q10 25 37 25h100z" />
    <glyph glyph-name="Z" unicode="Z" horiz-adv-x="1128" 
d="M1047 166q39 0 38 -39v-88q0 -39 -38 -39h-922q-39 0 -39 39v94q0 12 10 29l709 1016q14 23 -12 22h-707q-16 0 -27.5 10.5t-11.5 26.5v90q0 39 39 39h934q16 0 27.5 -11.5t11.5 -27.5l-2 -96q0 -16 -8 -27l-707 -1016q-8 -8 -4 -15t14 -7h695z" />
    <glyph glyph-name="bracketleft" unicode="[" horiz-adv-x="727" 
d="M176 -293q-16 0 -27.5 11.5t-11.5 27.5v1810q0 16 11.5 27.5t27.5 11.5h488q39 0 38 -39v-73q0 -39 -38 -39h-318q-29 0 -29 -33v-1513q0 -23 6.5 -31t28.5 -8h312q16 0 27 -10.5t11 -26.5v-76q0 -39 -38 -39h-488z" />
    <glyph glyph-name="backslash" unicode="\" horiz-adv-x="665" 
d="M471 -287q-29 0 -33 29l-387 1798q-2 20 9.5 34.5t29.5 14.5h105q29 0 34 -28l385 -1799q4 -20 -8 -34.5t-33 -14.5h-102z" />
    <glyph glyph-name="bracketright" unicode="]" horiz-adv-x="727" 
d="M551 -293h-488q-39 0 -38 39v76q0 16 11 26.5t27 10.5h312q23 0 29 8t6 31v1513q0 33 -29 33h-318q-39 0 -38 39v73q0 39 38 39h488q16 0 27.5 -11t11.5 -28v-1810q0 -16 -11.5 -27.5t-27.5 -11.5z" />
    <glyph glyph-name="asciicircum" unicode="^" horiz-adv-x="1228" 
 />
    <glyph glyph-name="underscore" unicode="_" horiz-adv-x="974" 
d="M915 -143q0 -16 -10 -27.5t-26 -11.5h-781q-39 0 -39 39v65q0 16 11.5 26.5t27.5 10.5h781q14 0 25 -10t11 -27v-65z" />
    <glyph glyph-name="a" unicode="a" horiz-adv-x="1056" 
d="M391 -31q-315 0 -315 287q0 145 88 212t266 67h293q27 0 27 20v70q0 209 -263 209q-168 0 -278 -103q-29 -23 -51 6l-41 58q-27 33 8 55q145 131 389 131q197 0 306.5 -83t109.5 -294v-565q0 -39 -39 -39h-80q-29 0 -35 25l-2 88q-4 23 -18 4q-119 -148 -365 -148z
M436 106q209 0 307 152q10 8 11 21v129q0 14 -19 14h-286q-203 0 -203 -156q0 -76 50 -118t140 -42z" />
    <glyph glyph-name="b" unicode="b" horiz-adv-x="1212" 
d="M696 983q188 0 303 -96t115 -312v-192q0 -217 -118.5 -315.5t-315.5 -98.5q-258 0 -354 148q-16 20 -21 -6l-2 -88q-4 -23 -33 -23h-80q-16 0 -27 11.5t-11 27.5v1440q0 16 11 27.5t27 11.5h103q16 0 26.5 -11.5t10.5 -27.5v-633q0 -14 7 -19.5t15 4.5q92 152 344 152z
M936 401v156q0 150 -83 213.5t-206 63.5q-242 0 -311 -191q-6 -12 -6 -27v-301q0 -14 8 -28q68 -170 297 -170q129 0 215 65t86 219z" />
    <glyph glyph-name="c" unicode="c" horiz-adv-x="1079" 
d="M954 213q27 -20 13 -47q-119 -197 -416 -197q-201 0 -327 100.5t-126 325.5v162q0 225 127 324.5t338 99.5q285 0 398 -186q18 -29 -11 -52l-67 -41q-27 -20 -52 11q-80 121 -260 121q-295 0 -295 -285v-146q0 -156 84 -221t213 -65q180 0 267 125q23 35 51 12z" />
    <glyph glyph-name="d" unicode="d" horiz-adv-x="1220" 
d="M528 -31q-197 0 -313.5 97.5t-116.5 316.5v182q0 219 122 317.5t317 98.5q229 0 323 -127q10 -10 20.5 -5t10.5 19v611q0 16 11 27.5t28 11.5h100q16 0 27.5 -11.5t11.5 -27.5v-1440q0 -39 -39 -39h-74q-37 0 -36 33v86q0 29 -25 4q-59 -76 -160 -115t-207 -39zM575 117
q92 0 178.5 43t133.5 137q4 8 4 16v330q0 10 -4 14q-80 176 -305 177q-133 0 -219.5 -66t-86.5 -221v-141q0 -156 85 -222.5t214 -66.5z" />
    <glyph glyph-name="e" unicode="e" horiz-adv-x="1071" 
d="M545 981q442 0 442 -414v-102q0 -39 -39 -39h-655q-18 0 -19 -16v-39q0 -135 80 -194.5t203 -59.5q197 0 293 104q27 20 49 -2l55 -55q25 -29 4 -49q-131 -145 -407 -146q-205 0 -329 98.5t-124 319.5v180q0 219 126 316.5t321 97.5zM545 834q-115 0 -193 -58.5
t-78 -191.5v-39q0 -20 19 -21h500q16 0 16 17v45q0 133 -75.5 190.5t-188.5 57.5z" />
    <glyph glyph-name="f" unicode="f" horiz-adv-x="845" 
d="M926 1470q29 -18 12 -49l-35 -69q-16 -29 -51 -15q-109 57 -238 58q-221 0 -221 -258v-166q0 -18 17 -19h313q16 0 27.5 -11t11.5 -28v-63q0 -16 -11.5 -26.5t-27.5 -10.5h-313q-16 0 -17 -18v-756q0 -16 -11 -27.5t-28 -11.5h-102q-16 0 -26.5 11.5t-10.5 27.5v756
q0 18 -18 18h-76q-16 0 -27.5 11.5t-11.5 25.5v63q0 16 12 27.5t27 11.5h76q18 0 18 19v166q0 229 101.5 319t281.5 90q195 0 328 -76z" />
    <glyph glyph-name="g" unicode="g" horiz-adv-x="1130" 
d="M539 -418q-264 0 -387 121q-25 20 -9 49l31 74q18 39 57 10q104 -111 293 -110q299 0 299 262v104q0 14 -10 16.5t-20 -8.5q-106 -113 -297 -112q-180 0 -291 95t-111 312v172q0 219 114 316.5t292 97.5q96 0 184 -37t141 -102q4 -6 9.5 -8.5t8.5 1t3 11.5v74q0 14 11 23
t26 9h80q16 0 27 -11t11 -28v-915q0 -233 -121.5 -324.5t-340.5 -91.5zM551 131q184 0 268 135q6 8 6 19v395q0 10 -6 16q-66 139 -270 140q-121 0 -200 -64.5t-79 -214.5v-147q0 -147 80 -213t201 -66z" />
    <glyph glyph-name="h" unicode="h" horiz-adv-x="1173" 
d="M688 981q346 0 346 -346v-596q0 -16 -10 -27.5t-27 -11.5h-102q-39 0 -39 39v555q0 229 -231 229q-154 0 -285 -127q-10 -6 -10 -18v-639q0 -16 -10.5 -27.5t-26.5 -11.5h-103q-16 0 -27 11.5t-11 27.5v1440q0 16 12 27.5t26 11.5h89q16 0 27 -11.5t11 -27.5v-617
q0 -31 23 -12q131 131 348 131z" />
    <glyph glyph-name="i" unicode="i" horiz-adv-x="497" 
d="M246 1182q-53 0 -85 30.5t-32 84t32 83t85 29.5q119 0 119 -113q0 -53 -31 -83.5t-88 -30.5zM197 0q-16 0 -26.5 11.5t-10.5 27.5v874q0 16 11 27.5t26 11.5h102q16 0 27.5 -11t11.5 -28v-874q0 -16 -11.5 -27.5t-27.5 -11.5h-102z" />
    <glyph glyph-name="j" unicode="j" horiz-adv-x="552" 
d="M272 1182q-53 0 -84.5 30.5t-31.5 84t31.5 83t84.5 29.5q55 0 87 -29.5t32 -83t-32 -84t-87 -30.5zM-39 -428q-35 -4 -39 33l-10 78q-4 37 37 43q119 10 177 74.5t58 207.5v905q0 16 11.5 27.5t27.5 11.5h101q16 0 27 -11t11 -28v-895q0 -121 -28.5 -205.5t-83.5 -135
t-125 -75t-164 -30.5z" />
    <glyph glyph-name="k" unicode="k" horiz-adv-x="1062" 
d="M188 0q-39 0 -38 39v1438q0 16 11 26t27 10h103q16 0 26.5 -11t10.5 -25v-914q0 -16 10 -21t20 7l420 375q29 29 66 28h84q29 0 38 -28.5t-14 -51.5l-272 -243q-10 -10 -4 -23l325 -545q10 -23 0 -42t-34 -19h-123q-20 0 -31 20l-264 445q-12 25 -33 4l-180 -158
q-8 -8 -8 -16v-256q0 -16 -10.5 -27.5t-26.5 -11.5h-103z" />
    <glyph glyph-name="l" unicode="l" horiz-adv-x="483" 
d="M190 0q-16 0 -27 11.5t-11 27.5v1440q0 16 12 27.5t26 11.5h103q14 0 25.5 -11.5t11.5 -27.5v-1440q0 -16 -10.5 -27.5t-26.5 -11.5h-103z" />
    <glyph glyph-name="m" unicode="m" horiz-adv-x="1869" 
d="M199 0q-39 0 -39 39v874q0 16 11 27.5t28 11.5h86q35 0 39 -34v-72q0 -8 5 -10t11 6q143 139 350 139q223 0 299 -145q10 -20 23 -11q133 156 372 156q346 0 347 -352v-590q0 -39 -39 -39h-101q-39 0 -39 39v549q0 236 -233 235q-156 0 -285 -125q-6 -10 -6 -20
q8 -41 8 -98v-541q0 -39 -39 -39h-102q-16 0 -26.5 11.5t-10.5 27.5v549q0 236 -231 235q-162 0 -281 -129q-8 -8 -8 -18v-637q0 -16 -10.5 -27.5t-26.5 -11.5h-102z" />
    <glyph glyph-name="n" unicode="n" horiz-adv-x="1179" 
d="M696 981q346 0 346 -348v-594q0 -39 -38 -39h-103q-16 0 -26.5 11.5t-10.5 27.5v553q0 231 -231 231q-166 0 -287 -127q-8 -12 -8 -18v-639q0 -16 -10.5 -27.5t-26.5 -11.5h-102q-39 0 -39 39v874q0 16 11 27.5t28 11.5h86q31 0 37 -24v-76q2 -12 8 -14q2 0 4 2
q131 141 362 141z" />
    <glyph glyph-name="o" unicode="o" horiz-adv-x="1148" 
d="M573 -31q-211 0 -343 100.5t-132 325.5v162q0 154 69 252t170 135t236 37q100 0 182.5 -21.5t151 -68.5t106.5 -132t38 -202v-162q0 -225 -133.5 -325.5t-344.5 -100.5zM573 119q127 0 213 65.5t86 216.5v150q0 152 -86 216t-213 64q-125 0 -211 -64.5t-86 -215.5v-150
q0 -152 86 -217t211 -65z" />
    <glyph glyph-name="p" unicode="p" horiz-adv-x="1206" 
d="M184 -387q-16 0 -26.5 11t-10.5 28v1261q0 16 11.5 27.5t25.5 11.5h86q31 0 35 -30l2 -101q0 -27 21 -2q96 162 362 162q188 0 303 -95t115 -313v-190q0 -215 -121 -314.5t-323 -99.5q-223 0 -312 125q-10 8 -18 4t-8 -18v-428q0 -16 -11.5 -27.5t-27.5 -11.5h-103z
M629 117q129 0 215 65.5t86 218.5v156q0 276 -289 277q-123 0 -195.5 -47.5t-117.5 -145.5q-2 -6 -2 -16v-318q0 -10 2 -16q76 -174 301 -174z" />
    <glyph glyph-name="q" unicode="q" horiz-adv-x="1212" 
d="M1030 952q14 0 25.5 -11t11.5 -28v-1261q0 -16 -10 -27.5t-27 -11.5h-102q-39 0 -39 39v436q0 14 -9.5 18.5t-19.5 -6.5q-106 -131 -328 -131q-199 0 -317.5 97.5t-118.5 316.5v182q0 219 123 317.5t318 98.5q244 0 346 -143q25 -23 30 4l2 84q6 27 35 26h80zM573 117
q94 0 179.5 41t132.5 135q4 6 4 16v338q0 10 -4 15q-84 172 -307 172q-131 0 -217.5 -67t-86.5 -224v-133q0 -158 86 -225.5t213 -67.5z" />
    <glyph glyph-name="r" unicode="r" horiz-adv-x="837" 
d="M801 932q27 -14 12 -49l-49 -80q-16 -29 -51 -15q-59 37 -135 37q-145 0 -232 -141q-8 -10 -8 -25v-620q0 -16 -10.5 -27.5t-26.5 -11.5h-102q-39 0 -39 39v874q0 16 11 27.5t28 11.5h90q31 0 35 -30l2 -76q4 -25 22 0q106 135 264 135q111 0 189 -49z" />
    <glyph glyph-name="s" unicode="s" horiz-adv-x="976" 
d="M469 -31q-260 0 -399 152q-29 23 -7 49l35 57q18 27 54 6q106 -129 317 -129q109 0 180.5 36t71.5 114q0 59 -35 93t-111 50l-227 49q-262 57 -262 269q0 131 106.5 198.5t280.5 67.5q264 0 391 -147q29 -20 6 -52l-36 -55q-20 -27 -54 -4q-106 125 -297 125
q-96 0 -162.5 -34t-66.5 -99q0 -104 149 -135l224 -50q131 -27 195.5 -91t64.5 -181q0 -152 -116 -220.5t-302 -68.5z" />
    <glyph glyph-name="t" unicode="t" horiz-adv-x="954" 
d="M932 90q10 -33 -19 -47q-127 -74 -325 -74q-180 0 -276.5 86t-96.5 305v433q0 18 -18 18h-72q-16 0 -26.5 11.5t-10.5 27.5v63q0 16 11.5 27.5t25.5 11.5h72q18 0 18 19v172q0 16 11.5 27.5t25.5 11.5h102q16 0 27.5 -11.5t11.5 -27.5v-172q0 -18 19 -19h411
q16 0 27.5 -11t11.5 -28v-63q0 -39 -39 -39h-411q-18 0 -19 -18v-418q0 -254 221 -254q133 0 242 57q39 16 51 -18z" />
    <glyph glyph-name="u" unicode="u" horiz-adv-x="1173" 
d="M985 952q14 0 26.5 -11t12.5 -28v-874q0 -16 -11.5 -27.5t-27.5 -11.5h-88q-29 0 -33 20l-4 76q-4 23 -18 8q-135 -135 -346 -135q-346 0 -346 348v596q0 16 11 27.5t27 11.5h103q14 0 25.5 -11t11.5 -28v-555q0 -229 231 -229q76 0 155 35t122 86q10 10 10 24v639
q0 16 11 27.5t26 11.5h102z" />
    <glyph glyph-name="v" unicode="v" horiz-adv-x="1058" 
d="M979 952q25 0 35 -19.5t0 -41.5l-391 -871q-10 -20 -33 -20h-152q-25 0 -30 23l-365 868q-10 25 1 43t36 18h123q29 0 35 -26l260 -684q18 -63 39 2l284 682q6 27 33 26h125z" />
    <glyph glyph-name="w" unicode="w" horiz-adv-x="1611" 
d="M373 0q-29 0 -37 29l-287 864q-8 23 4.5 41t34.5 18h123q33 0 37 -34l190 -660q6 -37 12.5 -37t16.5 39l221 662q10 31 37 30h154q31 0 39 -30l210 -648q12 -51 18.5 -52t16.5 50l201 650q4 31 35 30h121q23 0 36 -17t5 -40l-306 -872q-8 -23 -32 -23h-162q-29 0 -35 27
l-213 661q-4 18 -10 24.5t-12.5 -0.5t-10.5 -24l-225 -663q-6 -25 -37 -25h-145z" />
    <glyph glyph-name="x" unicode="x" horiz-adv-x="997" 
d="M115 0q-29 0 -40.5 22.5t5.5 45.5l287 405q6 10 0 21l-283 391q-14 25 -4 46t39 21h110q25 0 37 -24l221 -342q12 -23 23 0l217 342q10 25 35 24h108q27 0 39.5 -22.5t-4.5 -44.5l-282 -389q-6 -12 0 -23l288 -410q14 -23 2 -43t-39 -20h-108q-25 0 -35 23l-221 344
q-4 12 -10 17t-11.5 0t-9.5 -17l-223 -344q-10 -23 -37 -23h-104z" />
    <glyph glyph-name="y" unicode="y" horiz-adv-x="1083" 
d="M993 952q25 0 37 -19.5t4 -43.5l-555 -1254q-10 -23 -33 -22h-96q-25 0 -36 19.5t-1 43.5l129 285q4 10 0 19l-393 911q-10 23 2 42t35 19h125q27 0 33 -26l282 -690q4 -14 10.5 -19.5t12.5 0.5t10 23l283 688q10 25 35 24h116z" />
    <glyph glyph-name="z" unicode="z" horiz-adv-x="919" 
d="M838 139q16 0 26 -11t10 -28v-61q0 -16 -10 -27.5t-26 -11.5h-715q-16 0 -26.5 11.5t-10.5 27.5v80q0 14 8 24l490 637q8 10 4 21.5t-19 11.5h-460q-16 0 -27.5 11.5t-11.5 25.5v63q0 16 12 27.5t27 11.5h700q14 0 25.5 -11t11.5 -26v-81q0 -12 -8 -27l-486 -637
q-8 -10 -4 -20.5t19 -10.5h471z" />
    <glyph glyph-name="braceleft" unicode="{" horiz-adv-x="690" 
d="M381 -336q-295 0 -295 211q0 82 39 165t86 138t86 121t39 117q0 129 -236 131q-41 4 -41 39v69q0 37 41 37q135 2 185.5 38t50.5 95q0 51 -39 116t-86 121t-86 139t-39 165q0 211 295 211q121 0 240 -29q29 -10 22 -43l-10 -69q-10 -41 -49 -31q-78 18 -181 18
q-145 0 -145 -92q0 -51 40 -117.5t89 -121t89 -130t40 -143.5q0 -143 -162 -190q-29 -10 0 -17q162 -47 162 -192q0 -68 -40 -142.5t-89 -129t-89 -120t-40 -118.5q0 -92 145 -92q102 0 181 18q39 6 49 -31l12 -71q8 -29 -8 -37q-113 -33 -256 -33z" />
    <glyph glyph-name="bar" unicode="|" horiz-adv-x="507" 
d="M201 -254q-14 0 -25.5 11.5t-11.5 27.5v1806q0 16 10 27.5t27 11.5h104q39 0 39 -39v-1806q0 -16 -11 -27.5t-28 -11.5h-104z" />
    <glyph glyph-name="braceright" unicode="}" horiz-adv-x="694" 
d="M311 -336q-143 0 -256 33q-16 8 -8 37l12 71q10 37 50 31q78 -18 180 -18q145 0 145 92q0 53 -40 118.5t-89 120t-89 129t-40 142.5q0 145 162 192q29 6 0 17q-162 47 -162 190q0 68 40 143.5t89 130t89 121t40 117.5q0 92 -145 92q-102 0 -180 -18q-39 -10 -50 31
l-10 69q-6 33 23 43q119 29 239 29q295 0 295 -211q0 -82 -39 -165t-86 -139t-86 -120.5t-39 -116.5q0 -59 50.5 -95t185.5 -38q41 0 41 -37v-69q0 -35 -41 -39q-236 -2 -236 -131q0 -51 39 -117t86 -121t86 -138t39 -165q0 -211 -295 -211z" />
    <glyph glyph-name="exclamdown" unicode="&#xa1;" horiz-adv-x="559" 
d="M279 985q127 0 127 -119q0 -113 -127 -112q-121 0 -121 112q0 119 121 119zM188 582q0 16 10.5 26t26.5 10h105q16 0 27.5 -11t11.5 -25v-930q0 -16 -11.5 -27.5t-27.5 -11.5h-105q-16 0 -26.5 11t-10.5 28v930z" />
    <glyph glyph-name="cent" unicode="&#xa2;" horiz-adv-x="1091" 
d="M524 2q-16 0 -26.5 11.5t-10.5 25.5v139q0 18 -16 19q-162 18 -264.5 120.5t-102.5 303.5v143q0 375 367 424q16 0 16 16v123q0 16 10.5 27.5t26.5 11.5h105q39 0 39 -39v-119q0 -18 16 -18q207 -27 297 -160q25 -29 -6 -51l-64 -51q-23 -23 -49 4q-84 119 -280 119
q-131 0 -215 -64.5t-84 -216.5v-154q0 -152 85 -217t216 -65q193 0 286 125q29 29 58 2l49 -58q23 -27 4 -47q-96 -133 -297 -157q-16 0 -16 -17v-143q0 -16 -11.5 -26.5t-27.5 -10.5h-105z" />
    <glyph glyph-name="sterling" unicode="&#xa3;" horiz-adv-x="1228" 
d="M104 0q-16 0 -26 11.5t-10 27.5v84q0 31 34 37q111 20 182.5 83.5t71.5 164.5q0 74 -45 172q-4 14 -16 14h-197q-16 0 -26.5 10t-10.5 27v53q0 16 10.5 27.5t26.5 11.5h129q10 0 16.5 8t2.5 21q-80 172 -80 274q0 172 121 271.5t340 99.5q336 0 497 -252q20 -29 -10 -49
l-67 -52q-29 -23 -56 11q-111 176 -346 176q-141 0 -214 -59.5t-73 -163.5q0 -25 4.5 -50.5t9.5 -44t16 -46t17.5 -41t21.5 -45t19 -40.5q8 -18 21 -18h459q16 0 27.5 -11.5t11.5 -27.5v-53q0 -14 -11.5 -25.5t-27.5 -11.5h-398q-10 0 -16 -8t-4 -19q39 -84 39 -159
q0 -106 -92 -185q-55 -49 -29 -55q4 -2 12 -2h682q16 0 27.5 -11.5t11.5 -27.5v-88q0 -16 -11 -27.5t-28 -11.5h-1016z" />
    <glyph glyph-name="currency" unicode="&#xa4;" horiz-adv-x="1228" 
 />
    <glyph glyph-name="yen" unicode="&#xa5;" horiz-adv-x="1230" 
d="M567 0q-39 0 -39 39v188q0 18 -18 19h-291q-14 0 -26.5 12t-12.5 27v55q0 16 11.5 27.5t27.5 11.5h291q18 0 18 18v185q0 18 -18 18h-291q-16 0 -27.5 11.5t-11.5 25.5v57q0 14 11.5 25.5t27.5 11.5h201q14 0 19 12.5t-3 26.5l-366 520q-18 27 -9 51.5t37 24.5h92
q18 0 33 -18l377 -560q6 -10 18.5 -10t18.5 10l371 558q10 20 32 20h86q31 0 42.5 -25.5t-5.5 -50.5l-368 -520q-10 -14 -4 -26.5t20 -12.5h207q16 0 27.5 -10t11.5 -27v-57q0 -16 -11.5 -26.5t-27.5 -10.5h-289q-18 0 -18 -18v-185q0 -18 18 -18h289q39 0 39 -39v-55
q0 -16 -11.5 -27.5t-27.5 -11.5h-289q-18 0 -18 -19v-188q0 -16 -11.5 -27.5t-27.5 -11.5h-105z" />
    <glyph glyph-name="brokenbar" unicode="&#xa6;" horiz-adv-x="507" 
d="M201 772q-16 0 -26.5 11.5t-10.5 27.5v780q0 16 10 27.5t27 11.5h104q39 0 39 -39v-780q0 -39 -39 -39h-104zM305 608q16 0 27.5 -10t11.5 -27v-786q0 -16 -11 -27.5t-28 -11.5h-104q-14 0 -25.5 11.5t-11.5 27.5v786q0 14 10 25.5t27 11.5h104z" />
    <glyph glyph-name="section" unicode="&#xa7;" horiz-adv-x="1261" 
d="M664 -342q-190 0 -322.5 58.5t-222.5 197.5q-23 25 4 47l55 55q27 27 51 -2q133 -197 416 -196q317 0 318 170q0 76 -54.5 120t-179.5 74l-276 64q-168 43 -253 115.5t-85 211.5q0 143 127 238q8 6 8 16.5t-8 16.5q-115 84 -115 233q0 152 128 236t357 84
q176 0 304 -57.5t223 -190.5q23 -25 -2 -49l-56 -56q-27 -23 -51 3q-139 190 -416 190q-315 0 -315 -164q0 -78 57.5 -125t190.5 -78l282 -61q166 -37 253 -112.5t87 -215.5q0 -147 -127 -245q-18 -16 -2 -33q98 -80 99 -215q0 -154 -128 -242t-347 -88zM911 291
q92 68 93 168q0 84 -55.5 136t-182.5 83l-274 61q-84 23 -86 23q-14 6 -29 -4q-98 -59 -98 -162q0 -82 55 -135t184 -84l262 -62q72 -16 103 -28q18 -6 28 4z" />
    <glyph glyph-name="copyright" unicode="&#xa9;" horiz-adv-x="1443" 
d="M719 -31q-295 0 -459 143.5t-164 438.5v266q0 293 164 436.5t459 143.5q297 0 464 -143.5t167 -436.5v-266q0 -295 -166 -438.5t-465 -143.5zM719 45q256 0 400.5 124t144.5 370v292q0 248 -143.5 368t-401.5 120q-254 0 -395.5 -120t-141.5 -368v-292q0 -250 141.5 -372
t395.5 -122zM731 256q-164 0 -267.5 80t-103.5 260v199q0 180 104.5 260t276.5 80q229 0 324 -162q20 -29 -6 -47l-37 -31q-25 -18 -49 6q-70 104 -223 105q-246 0 -246 -205v-211q0 -207 248 -207q156 0 227 104q27 29 53 9l33 -27q23 -23 6 -45q-100 -168 -340 -168z" />
    <glyph glyph-name="guillemotleft" unicode="&#xab;" horiz-adv-x="1087" 
d="M188 481l326 -321q31 -29 2 -58l-43 -41q-25 -25 -47 0l-379 367q-14 12 -14 31v73q0 18 12 31l381 369q23 23 47 0l43 -43q29 -27 0 -55l-328 -326q-12 -13 0 -27zM678 481l326 -321q29 -29 2 -58l-43 -41q-25 -25 -48 0l-378 367q-14 12 -15 31v73q0 18 13 31l380 369
q23 23 48 0l43 -43q29 -27 0 -55l-328 -326q-14 -13 0 -27z" />
    <glyph glyph-name="registered" unicode="&#xae;" horiz-adv-x="1351" 
d="M670 311q-262 0 -413 129t-151 381v97q0 252 151 378.5t413 126.5q270 0 422.5 -127t152.5 -378v-97q0 -252 -153.5 -381t-421.5 -129zM670 387q227 0 359 106.5t132 313.5v123q0 213 -130 315.5t-361 102.5q-225 0 -352.5 -102.5t-127.5 -315.5v-123
q0 -207 128.5 -313.5t351.5 -106.5zM471 530q-39 0 -39 39v615q0 16 11.5 26.5t27.5 10.5h277q117 0 173 -49.5t56 -157.5v-35q0 -158 -119 -203q-23 -8 -10 -28l96 -148q14 -23 3 -46.5t-38 -23.5h-12q-29 0 -47 35l-115 180q-10 10 -16 11h-164q-18 0 -18 -19v-168
q0 -39 -39 -39h-27zM555 846h193q123 0 122 131v31q0 63 -29.5 89.5t-92.5 26.5h-191q-20 0 -20 -20v-240q0 -18 18 -18z" />
    <glyph glyph-name="degree" unicode="&#xb0;" horiz-adv-x="872" 
d="M436.5 688q-153.5 0 -251 69.5t-97.5 227.5v113q0 158 97.5 227.5t251 69.5t250.5 -70t97 -227v-113q0 -158 -97 -227.5t-250.5 -69.5zM436 809q88 -2 148.5 40t60.5 138v109q0 96 -60.5 138t-148.5 42t-148.5 -42t-60.5 -138v-109q0 -96 60.5 -137t148.5 -41z" />
    <glyph glyph-name="plusminus" unicode="&#xb1;" horiz-adv-x="1228" 
 />
    <glyph glyph-name="paragraph" unicode="&#xb6;" horiz-adv-x="1138" 
d="M928 1366q16 0 26.5 -11.5t10.5 -27.5v-1524q0 -16 -10.5 -27.5t-26.5 -11.5h-103q-16 0 -26.5 11.5t-10.5 27.5v738q0 18 -18 18l-264 2q-197 0 -292 97.5t-95 308.5q0 215 94 307t293 92h422z" />
    <glyph glyph-name="periodcentered" unicode="&#xb7;" horiz-adv-x="368" 
d="M180 551q-121 0 -121 131q0 123 121 123q125 0 125 -123q0 -131 -125 -131z" />
    <glyph glyph-name="guillemotright" unicode="&#xbb;" horiz-adv-x="1087" 
d="M410 481q12 14 0 27l-328 326q-29 29 0 55l43 43q25 23 47 0l381 -369q12 -12 12 -31v-73q0 -18 -14 -31l-379 -367q-23 -25 -47 0l-43 41q-29 29 2 58zM899 481q14 14 0 27l-328 326q-29 29 0 55l43 43q25 23 48 0l380 -369q12 -12 13 -31v-73q0 -18 -15 -31l-378 -367
q-23 -25 -48 0l-43 41q-27 29 2 58z" />
    <glyph glyph-name="questiondown" unicode="&#xbf;" horiz-adv-x="1132" 
d="M655 834q-35 0 -34 30q0 29 34 29q39 0 39 -29q0 -30 -39 -30zM705 586q35 0 38 -35q2 -135 -58 -201.5t-200 -134.5q-117 -57 -168 -112.5t-51 -145.5q0 -209 283 -209q276 0 381 215q20 29 49 12l68 -51q29 -18 12 -45q-131 -295 -520 -295q-213 0 -335 88t-122 275
q0 274 295 389q102 49 147 93t47 128q6 29 35 29h99z" />
    <glyph glyph-name="Agrave" unicode="&#xc0;" horiz-adv-x="1253" 
d="M684 1497q-27 -18 -47 6l-236 283q-14 12 -12 29.5t17 27.5l53 41q33 27 55 -10l203 -305q18 -29 -6 -49zM96 0q-23 0 -33 16.5t-2 38.5l439 1286q8 27 35 27h182q27 0 37 -29l438 -1284q6 -23 -3 -39t-32 -16h-98q-37 0 -45 37l-86 246q-6 14 -21 14h-561q-16 0 -20 -14
l-86 -248q-8 -35 -41 -35h-103zM391 449h469q23 0 17 20l-238 690q-4 12 -12.5 12t-12.5 -12l-237 -690q-6 -20 14 -20z" />
    <glyph glyph-name="Aacute" unicode="&#xc1;" horiz-adv-x="1253" 
d="M870 1843q14 -10 16.5 -27.5t-9.5 -29.5l-236 -283q-20 -20 -45 -4l-27 21q-29 18 -10 49l203 305q23 37 57 10zM96 0q-23 0 -33 16.5t-2 38.5l439 1286q8 27 35 27h182q27 0 37 -29l438 -1284q6 -23 -3 -39t-32 -16h-98q-37 0 -45 37l-86 246q-6 14 -21 14h-561
q-16 0 -20 -14l-86 -248q-8 -35 -41 -35h-103zM391 449h469q23 0 17 20l-238 690q-4 12 -12.5 12t-12.5 -12l-237 -690q-6 -20 14 -20z" />
    <glyph glyph-name="Acircumflex" unicode="&#xc2;" horiz-adv-x="1253" 
d="M375 1499l-27 17q-31 20 -10 51l211 321q10 16 29 17h96q18 0 28 -17l211 -319q23 -31 -8 -49l-26 -17q-25 -18 -45 6l-189 256q-18 23 -35 0l-192 -258q-18 -26 -43 -8zM96 0q-23 0 -33 16.5t-2 38.5l439 1286q8 27 35 27h182q27 0 37 -29l438 -1284q6 -23 -3 -39
t-32 -16h-98q-37 0 -45 37l-86 246q-6 14 -21 14h-561q-16 0 -20 -14l-86 -248q-8 -35 -41 -35h-103zM391 449h469q23 0 17 20l-238 690q-4 12 -12.5 12t-12.5 -12l-237 -690q-6 -20 14 -20z" />
    <glyph glyph-name="Atilde" unicode="&#xc3;" horiz-adv-x="1253" 
d="M340 1483q-16 0 -26.5 10t-10.5 27q-12 354 182 354q37 0 68 -21.5t44 -41t46 -72.5q4 -6 12.5 -21.5t12.5 -21.5t11 -18.5t13 -18.5t13.5 -12.5t15.5 -9.5t18 -3q76 0 72 205q6 37 33 37h57q37 0 37 -37q4 -180 -47 -267t-139 -87q-37 0 -68 20.5t-47 43t-41 65.5
q-6 10 -16.5 28.5t-15.5 26.5t-14 20.5t-15.5 17.5t-14.5 9t-18 4q-72 0 -70 -202q-6 -35 -35 -35h-57zM96 0q-23 0 -33 16.5t-2 38.5l439 1286q8 27 35 27h182q27 0 37 -29l438 -1284q6 -23 -3 -39t-32 -16h-98q-37 0 -45 37l-86 246q-6 14 -21 14h-561q-16 0 -20 -14
l-86 -248q-8 -35 -41 -35h-103zM391 449h469q23 0 17 20l-238 690q-4 12 -12.5 12t-12.5 -12l-237 -690q-6 -20 14 -20z" />
    <glyph glyph-name="Adieresis" unicode="&#xc4;" horiz-adv-x="1253" 
d="M412 1544q-106 0 -107 121q0 115 107 115q109 0 108 -115q1 -121 -108 -121zM840 1544q-106 0 -107 121q0 115 107 115q111 0 110 -115q1 -121 -110 -121zM96 0q-23 0 -33 16.5t-2 38.5l439 1286q8 27 35 27h182q27 0 37 -29l438 -1284q6 -23 -3 -39t-32 -16h-98
q-37 0 -45 37l-86 246q-6 14 -21 14h-561q-16 0 -20 -14l-86 -248q-8 -35 -41 -35h-103zM391 449h469q23 0 17 20l-238 690q-4 12 -12.5 12t-12.5 -12l-237 -690q-6 -20 14 -20z" />
    <glyph glyph-name="Aring" unicode="&#xc5;" horiz-adv-x="1253" 
d="M626.5 1485q-288.5 0 -288.5 213v35q0 211 288.5 211t288.5 -211v-35q0 -213 -288.5 -213zM627 1585q170 0 170 119v25q0 115 -170 114q-172 0 -172 -114v-25q0 -119 172 -119zM96 0q-23 0 -33 16.5t-2 38.5l439 1286q8 27 35 27h182q27 0 37 -29l438 -1284q6 -23 -3 -39
t-32 -16h-98q-37 0 -45 37l-86 246q-6 14 -21 14h-561q-16 0 -20 -14l-86 -248q-8 -35 -41 -35h-103zM391 449h469q23 0 17 20l-238 690q-4 12 -12.5 12t-12.5 -12l-237 -690q-6 -20 14 -20z" />
    <glyph glyph-name="AE" unicode="&#xc6;" horiz-adv-x="1763" 
d="M1638 168q16 0 27.5 -11.5t11.5 -25.5v-92q0 -16 -11 -27.5t-28 -11.5h-735q-33 0 -37 37l-10 332h-512l-147 -344q-8 -25 -39 -25h-103q-25 0 -35 20.5t3 49.5l573 1273q10 23 33 23h1007q16 0 26.5 -11.5t10.5 -27.5v-92q0 -16 -11 -27.5t-26 -11.5h-630l16 -430h479
q16 0 26.5 -11.5t10.5 -27.5v-68q0 -16 -10 -27t-27 -11h-473l19 -453h591zM410 520h440l-23 678h-125z" />
    <glyph glyph-name="Ccedilla" unicode="&#xc7;" horiz-adv-x="1269" 
d="M1186 373q37 -18 22 -58q-63 -178 -193 -260t-333 -86l-8 -43q-8 -23 14 -24q78 -8 130 -48t52 -110q0 -145 -217 -145q-53 0 -125 10q-31 6 -26 41l4 18q6 37 37 29q41 -10 94 -10q117 0 117 61q0 74 -144 80q-43 8 -37 45l23 98q-233 18 -360 160.5t-127 413.5v280
q0 289 147 430.5t418 141.5q393 0 528 -305q16 -37 -18 -54l-74 -41q-39 -20 -59 17q-98 215 -373 215q-387 0 -387 -398v-294q0 -201 100.5 -301.5t284.5 -100.5q283 0 377 250q23 39 59 23z" />
    <glyph glyph-name="Egrave" unicode="&#xc8;" horiz-adv-x="1189" 
d="M670 1497q-27 -18 -47 6l-236 283q-14 12 -12 29.5t16 27.5l53 41q33 27 56 -10l202 -305q18 -29 -6 -49zM209 0q-41 0 -41 41v1286q0 39 39 39h856q16 0 26.5 -11.5t10.5 -27.5v-92q0 -16 -11.5 -27.5t-25.5 -11.5h-696q-18 0 -19 -18v-394q0 -18 19 -18h561
q16 0 27.5 -11.5t11.5 -27.5v-68q0 -16 -11.5 -27t-27.5 -11h-561q-18 0 -19 -19v-416q0 -18 19 -18h700q14 0 25.5 -10.5t11.5 -26.5v-92q0 -16 -10.5 -27.5t-26.5 -11.5h-858z" />
    <glyph glyph-name="Eacute" unicode="&#xc9;" horiz-adv-x="1189" 
d="M856 1843q14 -10 16 -27.5t-10 -29.5l-235 -283q-20 -20 -45 -4l-27 21q-29 18 -10 49l203 305q23 37 57 10zM209 0q-41 0 -41 41v1286q0 39 39 39h856q16 0 26.5 -11.5t10.5 -27.5v-92q0 -16 -11.5 -27.5t-25.5 -11.5h-696q-18 0 -19 -18v-394q0 -18 19 -18h561
q16 0 27.5 -11.5t11.5 -27.5v-68q0 -16 -11.5 -27t-27.5 -11h-561q-18 0 -19 -19v-416q0 -18 19 -18h700q14 0 25.5 -10.5t11.5 -26.5v-92q0 -16 -10.5 -27.5t-26.5 -11.5h-858z" />
    <glyph glyph-name="Ecircumflex" unicode="&#xca;" horiz-adv-x="1189" 
d="M360 1499l-26 17q-31 20 -10 51l211 321q10 16 28 17h96q18 0 29 -17l211 -319q23 -31 -8 -49l-27 -17q-25 -18 -45 6l-188 256q-18 23 -35 0l-193 -258q-18 -26 -43 -8zM209 0q-41 0 -41 41v1286q0 39 39 39h856q16 0 26.5 -11.5t10.5 -27.5v-92q0 -16 -11.5 -27.5
t-25.5 -11.5h-696q-18 0 -19 -18v-394q0 -18 19 -18h561q16 0 27.5 -11.5t11.5 -27.5v-68q0 -16 -11.5 -27t-27.5 -11h-561q-18 0 -19 -19v-416q0 -18 19 -18h700q14 0 25.5 -10.5t11.5 -26.5v-92q0 -16 -10.5 -27.5t-26.5 -11.5h-858z" />
    <glyph glyph-name="Edieresis" unicode="&#xcb;" horiz-adv-x="1189" 
d="M397 1544q-106 0 -106 121q0 115 106 115q109 0 109 -115q0 -121 -109 -121zM825 1544q-106 0 -106 121q0 115 106 115q111 0 111 -115q0 -121 -111 -121zM209 0q-41 0 -41 41v1286q0 39 39 39h856q16 0 26.5 -11.5t10.5 -27.5v-92q0 -16 -11.5 -27.5t-25.5 -11.5h-696
q-18 0 -19 -18v-394q0 -18 19 -18h561q16 0 27.5 -11.5t11.5 -27.5v-68q0 -16 -11.5 -27t-27.5 -11h-561q-18 0 -19 -19v-416q0 -18 19 -18h700q14 0 25.5 -10.5t11.5 -26.5v-92q0 -16 -10.5 -27.5t-26.5 -11.5h-858z" />
    <glyph glyph-name="Igrave" unicode="&#xcc;" horiz-adv-x="516" 
d="M317 1497q-27 -18 -47 6l-235 283q-14 12 -12 29.5t16 27.5l53 41q33 27 55 -10l203 -305q18 -29 -6 -49zM207 0q-39 0 -39 39v1288q0 39 39 39h104q16 0 26.5 -11.5t10.5 -27.5v-1288q0 -16 -10 -27.5t-27 -11.5h-104z" />
    <glyph glyph-name="Iacute" unicode="&#xcd;" horiz-adv-x="516" 
d="M504 1843q14 -10 16 -27.5t-10 -29.5l-236 -283q-20 -20 -45 -4l-26 21q-29 18 -10 49l202 305q23 37 58 10zM207 0q-39 0 -39 39v1288q0 39 39 39h104q16 0 26.5 -11.5t10.5 -27.5v-1288q0 -16 -10 -27.5t-27 -11.5h-104z" />
    <glyph glyph-name="Icircumflex" unicode="&#xce;" horiz-adv-x="516" 
d="M8 1499l-26 17q-31 20 -11 51l211 321q10 16 29 17h96q18 0 29 -17l211 -319q23 -31 -8 -49l-27 -17q-25 -18 -45 6l-188 256q-18 23 -35 0l-193 -258q-18 -26 -43 -8zM207 0q-39 0 -39 39v1288q0 39 39 39h104q16 0 26.5 -11.5t10.5 -27.5v-1288q0 -16 -10 -27.5
t-27 -11.5h-104z" />
    <glyph glyph-name="Idieresis" unicode="&#xcf;" horiz-adv-x="516" 
d="M45 1544q-106 0 -106 121q0 115 106 115q109 0 109 -115q0 -121 -109 -121zM473 1544q-106 0 -106 121q0 115 106 115q111 0 111 -115q0 -121 -111 -121zM207 0q-39 0 -39 39v1288q0 39 39 39h104q16 0 26.5 -11.5t10.5 -27.5v-1288q0 -16 -10 -27.5t-27 -11.5h-104z" />
    <glyph glyph-name="Eth" unicode="&#xd0;" horiz-adv-x="1386" 
d="M682 1366q592 0 592 -549v-270q0 -547 -592 -547h-475q-39 0 -39 39v575h-78q-39 0 -39 39v64q0 39 39 39h78v571q0 39 39 39h475zM1090 545v276q0 375 -408 375h-315q-18 0 -19 -18v-422h371q16 0 26.5 -11.5t10.5 -27.5v-64q0 -16 -10.5 -27.5t-26.5 -11.5h-371v-426
q0 -18 19 -18h315q408 0 408 375z" />
    <glyph glyph-name="Ntilde" unicode="&#xd1;" horiz-adv-x="1359" 
d="M395 1483q-14 0 -25.5 10t-11.5 27q-12 354 183 354q37 0 67.5 -21.5t44 -41t45.5 -72.5q4 -6 12.5 -21.5t12.5 -21.5t11 -18.5t13.5 -18.5t13.5 -12.5t15 -9.5t19 -3q76 0 71 205q6 37 33 37h57q37 0 37 -37q4 -180 -47 -267t-139 -87q-37 0 -67.5 20.5t-47 43
t-41.5 65.5q-6 10 -16 28.5t-15.5 26.5t-14.5 20.5t-15 17.5t-14.5 9t-18.5 4q-74 0 -70 -202q-6 -35 -34 -35h-58zM1155 1366q16 0 26.5 -11.5t10.5 -27.5v-1288q0 -16 -10.5 -27.5t-26.5 -11.5h-115q-23 0 -34 20l-648 994q-6 10 -14 8t-8 -16l2 -967q0 -16 -10.5 -27.5
t-26.5 -11.5h-94q-39 0 -39 39v1288q0 39 39 39h115q23 0 34 -20l645 -990q6 -10 14.5 -8t8.5 14l-2 965q0 16 10 27.5t27 11.5h96z" />
    <glyph glyph-name="Ograve" unicode="&#xd2;" horiz-adv-x="1404" 
d="M760 1497q-27 -18 -47 6l-236 283q-14 12 -12 29.5t16 27.5l54 41q33 27 55 -10l203 -305q18 -29 -7 -49zM700 -31q-283 0 -437 142.5t-154 433.5v280q0 287 155.5 429.5t435.5 142.5q285 0 441.5 -142.5t156.5 -429.5v-280q0 -291 -156.5 -433.5t-441.5 -142.5zM700 135
q199 0 307.5 101.5t108.5 302.5v290q0 201 -108.5 300.5t-307.5 99.5q-195 0 -302 -99.5t-107 -300.5v-290q0 -201 107 -302.5t302 -101.5z" />
    <glyph glyph-name="Oacute" unicode="&#xd3;" horiz-adv-x="1404" 
d="M946 1843q14 -10 16.5 -27.5t-10.5 -29.5l-235 -283q-20 -20 -45 -4l-27 21q-29 18 -10 49l203 305q23 37 57 10zM700 -31q-283 0 -437 142.5t-154 433.5v280q0 287 155.5 429.5t435.5 142.5q285 0 441.5 -142.5t156.5 -429.5v-280q0 -291 -156.5 -433.5t-441.5 -142.5z
M700 135q199 0 307.5 101.5t108.5 302.5v290q0 201 -108.5 300.5t-307.5 99.5q-195 0 -302 -99.5t-107 -300.5v-290q0 -201 107 -302.5t302 -101.5z" />
    <glyph glyph-name="Ocircumflex" unicode="&#xd4;" horiz-adv-x="1404" 
d="M451 1499l-27 17q-31 20 -10 51l211 321q10 16 28 17h97q18 0 28 -17l211 -319q23 -31 -8 -49l-27 -17q-25 -18 -45 6l-188 256q-18 23 -35 0l-192 -258q-18 -26 -43 -8zM700 -31q-283 0 -437 142.5t-154 433.5v280q0 287 155.5 429.5t435.5 142.5q285 0 441.5 -142.5
t156.5 -429.5v-280q0 -291 -156.5 -433.5t-441.5 -142.5zM700 135q199 0 307.5 101.5t108.5 302.5v290q0 201 -108.5 300.5t-307.5 99.5q-195 0 -302 -99.5t-107 -300.5v-290q0 -201 107 -302.5t302 -101.5z" />
    <glyph glyph-name="Otilde" unicode="&#xd5;" horiz-adv-x="1404" 
d="M416 1483q-14 0 -25.5 10t-11.5 27q-12 354 182 354q37 0 67.5 -21.5t44 -41t46.5 -72.5q4 -6 12 -21.5t12.5 -21.5t11.5 -18.5t13 -18.5t13 -12.5t15.5 -9.5t18.5 -3q76 0 72 205q6 37 33 37h57q37 0 37 -37q4 -180 -47.5 -267t-139.5 -87q-37 0 -67.5 20.5t-47 43
t-40.5 65.5q-6 10 -16.5 28.5t-15.5 26.5t-14.5 20.5t-15.5 17.5t-14 9t-18 4q-74 0 -70 -202q-6 -35 -35 -35h-57zM700 -31q-283 0 -437 142.5t-154 433.5v280q0 287 155.5 429.5t435.5 142.5q285 0 441.5 -142.5t156.5 -429.5v-280q0 -291 -156.5 -433.5t-441.5 -142.5z
M700 135q199 0 307.5 101.5t108.5 302.5v290q0 201 -108.5 300.5t-307.5 99.5q-195 0 -302 -99.5t-107 -300.5v-290q0 -201 107 -302.5t302 -101.5z" />
    <glyph glyph-name="Odieresis" unicode="&#xd6;" horiz-adv-x="1404" 
d="M487 1544q-106 0 -106 121q0 115 106 115q109 0 109 -115q0 -121 -109 -121zM915 1544q-106 0 -106 121q0 115 106 115q111 0 111 -115q0 -121 -111 -121zM700 -31q-283 0 -437 142.5t-154 433.5v280q0 287 155.5 429.5t435.5 142.5q285 0 441.5 -142.5t156.5 -429.5
v-280q0 -291 -156.5 -433.5t-441.5 -142.5zM700 135q199 0 307.5 101.5t108.5 302.5v290q0 201 -108.5 300.5t-307.5 99.5q-195 0 -302 -99.5t-107 -300.5v-290q0 -201 107 -302.5t302 -101.5z" />
    <glyph glyph-name="multiply" unicode="&#xd7;" horiz-adv-x="1062" 
d="M174 270l-41 41q-27 27 0 54l287 264q14 14 0 28l-287 267q-27 27 0 51l41 41q23 27 51 2l293 -268q12 -16 25 0l295 270q27 27 53 0l41 -41q29 -25 0 -53l-291 -271q-14 -12 0 -26l289 -269q27 -27 0 -53l-41 -41q-27 -27 -53 0l-293 271q-12 12 -25 0l-291 -269
q-26 -23 -53 2z" />
    <glyph glyph-name="Oslash" unicode="&#xd8;" horiz-adv-x="1404" 
d="M1208 1176q90 -133 90 -351v-280q0 -291 -156.5 -433.5t-441.5 -142.5q-229 0 -370 90l-76 -94q-23 -29 -49 -8l-80 51q-37 23 -8 58l88 112q-96 141 -96 367v280q0 287 155.5 429.5t435.5 142.5q238 0 385 -97l54 68q23 29 49 8l82 -55q37 -23 10 -55zM291 539
q0 -123 39 -203l643 821q-102 72 -273 72q-195 0 -302 -99.5t-107 -300.5v-290zM1116 539v290q0 113 -33 187l-643 -813q100 -68 260 -68q199 0 307.5 101.5t108.5 302.5z" />
    <glyph glyph-name="Ugrave" unicode="&#xd9;" horiz-adv-x="1323" 
d="M719 1497q-27 -18 -47 6l-236 283q-14 12 -12 29.5t16 27.5l54 41q33 27 55 -10l203 -305q18 -29 -7 -49zM670 -31q-258 0 -398.5 140.5t-140.5 429.5v788q0 39 39 39h102q39 0 39 -39v-795q0 -397 359 -397q342 0 342 397v795q0 39 39 39h104q16 0 27.5 -11.5
t11.5 -27.5v-788q0 -289 -136 -429.5t-388 -140.5z" />
    <glyph glyph-name="Uacute" unicode="&#xda;" horiz-adv-x="1323" 
d="M905 1843q14 -10 16.5 -27.5t-10.5 -29.5l-235 -283q-20 -20 -45 -4l-27 21q-29 18 -10 49l203 305q23 37 57 10zM670 -31q-258 0 -398.5 140.5t-140.5 429.5v788q0 39 39 39h102q39 0 39 -39v-795q0 -397 359 -397q342 0 342 397v795q0 39 39 39h104q16 0 27.5 -11.5
t11.5 -27.5v-788q0 -289 -136 -429.5t-388 -140.5z" />
    <glyph glyph-name="Ucircumflex" unicode="&#xdb;" horiz-adv-x="1323" 
d="M410 1499l-27 17q-31 20 -10 51l211 321q10 16 28 17h97q18 0 28 -17l211 -319q23 -31 -8 -49l-27 -17q-25 -18 -45 6l-188 256q-18 23 -35 0l-192 -258q-18 -26 -43 -8zM670 -31q-258 0 -398.5 140.5t-140.5 429.5v788q0 39 39 39h102q39 0 39 -39v-795q0 -397 359 -397
q342 0 342 397v795q0 39 39 39h104q16 0 27.5 -11.5t11.5 -27.5v-788q0 -289 -136 -429.5t-388 -140.5z" />
    <glyph glyph-name="Udieresis" unicode="&#xdc;" horiz-adv-x="1323" 
d="M446 1544q-106 0 -106 121q0 115 106 115q109 0 109 -115q0 -121 -109 -121zM874 1544q-106 0 -106 121q0 115 106 115q111 0 111 -115q0 -121 -111 -121zM670 -31q-258 0 -398.5 140.5t-140.5 429.5v788q0 39 39 39h102q39 0 39 -39v-795q0 -397 359 -397q342 0 342 397
v795q0 39 39 39h104q16 0 27.5 -11.5t11.5 -27.5v-788q0 -289 -136 -429.5t-388 -140.5z" />
    <glyph glyph-name="Yacute" unicode="&#xdd;" horiz-adv-x="1218" 
d="M854 1843q14 -10 16 -27.5t-10 -29.5l-235 -283q-20 -20 -45 -4l-27 21q-29 18 -10 49l202 305q23 37 58 10zM1110 1366q27 0 38 -21.5t-1 -44.5l-438 -761q-4 -16 -4 -23v-477q0 -39 -39 -39h-105q-16 0 -27.5 11.5t-11.5 27.5l-2 483q0 16 -6 25l-440 751
q-14 25 -4 46.5t36 21.5h101q27 0 39 -25l354 -616q14 -20 25 0l348 616q10 25 37 25h100z" />
    <glyph glyph-name="Thorn" unicode="&#xde;" horiz-adv-x="1206" 
d="M690 1186q231 0 341 -103.5t110 -339.5q0 -471 -451 -471l-344 -2v-231q0 -16 -10 -27.5t-27 -11.5h-102q-39 0 -39 39v1288q0 39 39 39h102q16 0 26.5 -11.5t10.5 -27.5v-141h344zM684 432q133 0 203.5 80t70.5 233q0 147 -68.5 211t-205.5 64h-338v-588h338z" />
    <glyph glyph-name="germandbls" unicode="&#xdf;" horiz-adv-x="1153" 
d="M795 782q-20 -14 4 -16q297 -43 297 -381q0 -221 -109.5 -314.5t-279.5 -93.5q-156 0 -248 41q-29 6 -25 39l6 78q2 20 15.5 28.5t29.5 4.5q76 -35 179 -35q113 0 182 65.5t69 207t-73.5 206t-220.5 64.5h-136q-31 0 -30 37v80q0 31 28 30h82q102 0 175 77t73 226
q0 268 -217 269q-248 0 -248 -297v-1059q0 -16 -11 -27.5t-28 -11.5h-100q-39 0 -39 39v1040q0 258 111.5 361.5t316.5 103.5q188 0 290.5 -90t102.5 -309q0 -139 -54 -232.5t-142 -130.5z" />
    <glyph glyph-name="agrave" unicode="&#xe0;" horiz-adv-x="1056" 
d="M293 1370q-14 12 -12 29.5t16 27.5l53 41q33 27 56 -10l202 -305q18 -29 -6 -49l-29 -21q-25 -16 -45 4zM391 -31q-315 0 -315 287q0 145 88 212t266 67h293q27 0 27 20v70q0 209 -263 209q-168 0 -278 -103q-29 -23 -51 6l-41 58q-27 33 8 55q145 131 389 131
q197 0 306.5 -83t109.5 -294v-565q0 -39 -39 -39h-80q-29 0 -35 25l-2 88q-4 23 -18 4q-119 -148 -365 -148zM436 106q209 0 307 152q10 8 11 21v129q0 14 -19 14h-286q-203 0 -203 -156q0 -76 50 -118t140 -42z" />
    <glyph glyph-name="aacute" unicode="&#xe1;" horiz-adv-x="1056" 
d="M762 1427q14 -10 16 -27.5t-10 -29.5l-236 -283q-20 -20 -45 -4l-26 21q-29 18 -10 49l202 305q23 37 58 10zM391 -31q-315 0 -315 287q0 145 88 212t266 67h293q27 0 27 20v70q0 209 -263 209q-168 0 -278 -103q-29 -23 -51 6l-41 58q-27 33 8 55q145 131 389 131
q197 0 306.5 -83t109.5 -294v-565q0 -39 -39 -39h-80q-29 0 -35 25l-2 88q-4 23 -18 4q-119 -148 -365 -148zM436 106q209 0 307 152q10 8 11 21v129q0 14 -19 14h-286q-203 0 -203 -156q0 -76 50 -118t140 -42z" />
    <glyph glyph-name="acircumflex" unicode="&#xe2;" horiz-adv-x="1056" 
d="M266 1083l-26 17q-31 20 -11 51l211 322q10 16 29 16h96q18 0 29 -16l211 -320q23 -31 -8 -49l-27 -17q-25 -18 -45 7l-188 256q-18 23 -35 0l-193 -258q-18 -27 -43 -9zM391 -31q-315 0 -315 287q0 145 88 212t266 67h293q27 0 27 20v70q0 209 -263 209
q-168 0 -278 -103q-29 -23 -51 6l-41 58q-27 33 8 55q145 131 389 131q197 0 306.5 -83t109.5 -294v-565q0 -39 -39 -39h-80q-29 0 -35 25l-2 88q-4 23 -18 4q-119 -148 -365 -148zM436 106q209 0 307 152q10 8 11 21v129q0 14 -19 14h-286q-203 0 -203 -156q0 -76 50 -118
t140 -42z" />
    <glyph glyph-name="atilde" unicode="&#xe3;" horiz-adv-x="1056" 
d="M231 1067q-14 0 -25 11.5t-11 25.5q-12 354 182 354q37 0 67.5 -22.5t43 -40t47.5 -72.5q4 -6 13 -22.5t13 -22.5t12.5 -18.5t14.5 -17.5t14 -12t16.5 -9t16.5 -2q74 0 67 202q6 39 35 39h56q37 0 36 -37q4 -180 -47 -267t-139 -87q-37 0 -67.5 20.5t-47 43t-41.5 65.5
q-6 10 -17 28.5t-16 27t-13.5 20.5t-15.5 17t-15.5 9.5t-18.5 4.5q-74 0 -69 -201q-4 -37 -33 -37h-58zM391 -31q-315 0 -315 287q0 145 88 212t266 67h293q27 0 27 20v70q0 209 -263 209q-168 0 -278 -103q-29 -23 -51 6l-41 58q-27 33 8 55q145 131 389 131
q197 0 306.5 -83t109.5 -294v-565q0 -39 -39 -39h-80q-29 0 -35 25l-2 88q-4 23 -18 4q-119 -148 -365 -148zM436 106q209 0 307 152q10 8 11 21v129q0 14 -19 14h-286q-203 0 -203 -156q0 -76 50 -118t140 -42z" />
    <glyph glyph-name="adieresis" unicode="&#xe4;" horiz-adv-x="1056" 
d="M461 1139q-106 0 -107 121q0 117 107 116q29 0 55 -10q18 8 49 8q111 0 111 -114q0 -121 -111 -121q-27 0 -51 10q-24 -10 -53 -10zM514 981q197 0 306.5 -83t109.5 -294v-565q0 -39 -39 -39h-80q-29 0 -35 25l-2 88q-4 23 -18 4q-119 -147 -365 -148q-315 0 -315 287
q0 145 88 212t266 67h293q27 0 27 20v70q0 209 -263 209q-168 0 -278 -103q-29 -23 -51 6l-41 58q-27 33 8 55q145 131 389 131zM754 279v129q0 14 -19 14h-286q-203 0 -203 -156q0 -76 50 -118t140 -42q209 0 307 152q11 9 11 21z" />
    <glyph glyph-name="aring" unicode="&#xe5;" horiz-adv-x="1056" 
d="M518 1077q-139 0 -214 54.5t-75 158.5v35q0 211 289 211t289 -211v-35q0 -104 -75 -158.5t-214 -54.5zM518 1178q170 0 170 114v31q0 113 -170 113q-172 0 -172 -113v-31q0 -114 172 -114zM391 -31q-315 0 -315 287q0 145 88 212t266 67h293q27 0 27 20v70
q0 209 -263 209q-168 0 -278 -103q-29 -23 -51 6l-41 58q-27 33 8 55q145 131 389 131q197 0 306.5 -83t109.5 -294v-565q0 -39 -39 -39h-80q-29 0 -35 25l-2 88q-4 23 -18 4q-119 -148 -365 -148zM436 106q209 0 307 152q10 8 11 21v129q0 14 -19 14h-286q-203 0 -203 -156
q0 -76 50 -118t140 -42z" />
    <glyph glyph-name="ae" unicode="&#xe6;" horiz-adv-x="1720" 
d="M399 -31q-324 0 -323 287q0 270 344 270h305q20 0 20 19v76q0 213 -262 213q-168 0 -274 -105q-31 -20 -51 8l-43 60q-23 31 6 51q139 133 391 133q260 0 336 -162q4 -10 12 -10t12 10q102 162 357 162q178 0 292.5 -94t114.5 -314v-110q0 -16 -11 -26.5t-28 -10.5h-643
q-20 0 -20 -18v-39q0 -133 82 -192.5t211 -59.5q199 0 295 102q29 20 47 -6l43 -59q23 -25 4 -43q-127 -141 -408 -142q-264 0 -362 172q-16 27 -35 2q-121 -174 -412 -174zM950 522h492q18 0 18 19v47q0 133 -72.5 189.5t-181.5 56.5q-117 0 -195.5 -60.5t-78.5 -191.5v-41
q0 -19 18 -19zM444.5 109q96.5 0 181.5 36.5t117 112.5q10 16 11 31v112q0 14 -19 15h-289q-199 0 -198 -148q0 -76 50 -117.5t146.5 -41.5z" />
    <glyph glyph-name="ccedilla" unicode="&#xe7;" horiz-adv-x="1079" 
d="M954 213q27 -20 13 -47q-111 -184 -375 -197l-10 -49q-8 -23 14 -24q78 -8 130 -48.5t52 -109.5q0 -145 -217 -146q-53 0 -125 11q-31 6 -26 41l4 18q6 37 37 29q41 -10 94 -10q117 0 117 61q0 74 -144 80q-43 8 -37 45l23 104q-182 10 -294 111.5t-112 312.5v162
q0 225 127 324.5t338 99.5q285 0 398 -186q18 -29 -11 -52l-67 -41q-27 -20 -52 11q-80 121 -260 121q-295 0 -295 -285v-146q0 -156 84 -221t213 -65q180 0 267 125q23 35 51 12z" />
    <glyph glyph-name="egrave" unicode="&#xe8;" horiz-adv-x="1071" 
d="M322 1372q-14 12 -12.5 29.5t16.5 28.5l53 40q33 27 55 -10l203 -305q18 -29 -6 -49l-29 -21q-25 -16 -45 5zM545 981q442 0 442 -414v-102q0 -39 -39 -39h-655q-18 0 -19 -16v-39q0 -135 80 -194.5t203 -59.5q197 0 293 104q27 20 49 -2l55 -55q25 -29 4 -49
q-131 -145 -407 -146q-205 0 -329 98.5t-124 319.5v180q0 219 126 316.5t321 97.5zM545 834q-115 0 -193 -58.5t-78 -191.5v-39q0 -20 19 -21h500q16 0 16 17v45q0 133 -75.5 190.5t-188.5 57.5z" />
    <glyph glyph-name="eacute" unicode="&#xe9;" horiz-adv-x="1071" 
d="M791 1430q14 -10 16 -28t-10 -30l-236 -282q-20 -20 -45 -5l-27 21q-29 18 -10 49l203 305q23 37 57 10zM545 981q442 0 442 -414v-102q0 -39 -39 -39h-655q-18 0 -19 -16v-39q0 -135 80 -194.5t203 -59.5q197 0 293 104q27 20 49 -2l55 -55q25 -29 4 -49
q-131 -145 -407 -146q-205 0 -329 98.5t-124 319.5v180q0 219 126 316.5t321 97.5zM545 834q-115 0 -193 -58.5t-78 -191.5v-39q0 -20 19 -21h500q16 0 16 17v45q0 133 -75.5 190.5t-188.5 57.5z" />
    <glyph glyph-name="ecircumflex" unicode="&#xea;" horiz-adv-x="1071" 
d="M295 1085l-27 17q-31 20 -10 51l211 322q10 16 29 16h96q18 0 29 -16l211 -320q23 -31 -9 -49l-26 -16q-25 -18 -45 6l-189 256q-18 23 -35 0l-192 -258q-18 -27 -43 -9zM545 981q442 0 442 -414v-102q0 -39 -39 -39h-655q-18 0 -19 -16v-39q0 -135 80 -194.5t203 -59.5
q197 0 293 104q27 20 49 -2l55 -55q25 -29 4 -49q-131 -145 -407 -146q-205 0 -329 98.5t-124 319.5v180q0 219 126 316.5t321 97.5zM545 834q-115 0 -193 -58.5t-78 -191.5v-39q0 -20 19 -21h500q16 0 16 17v45q0 133 -75.5 190.5t-188.5 57.5z" />
    <glyph glyph-name="edieresis" unicode="&#xeb;" horiz-adv-x="1071" 
d="M489 1141q-106 0 -106 121q0 117 106 116q29 0 56 -10q18 8 49 8q111 0 111 -114q0 -121 -111 -121q-27 0 -51 10q-25 -10 -54 -10zM545 981q442 0 442 -414v-102q0 -39 -39 -39h-655q-18 0 -19 -16v-39q0 -135 80 -194.5t203 -59.5q197 0 293 104q27 20 49 -2l55 -55
q25 -29 4 -49q-131 -145 -407 -146q-205 0 -329 98.5t-124 319.5v180q0 219 126 316.5t321 97.5zM809 541v45q0 133 -76 190.5t-188 57.5q-115 0 -193 -58.5t-78 -191.5v-39q0 -20 19 -21h500q16 1 16 17z" />
    <glyph glyph-name="igrave" unicode="&#xec;" horiz-adv-x="497" 
d="M23 1372q-14 12 -12.5 29.5t16.5 28.5l53 40q33 27 55 -10l203 -305q18 -29 -6 -49l-29 -21q-25 -16 -45 5zM197 0q-16 0 -26.5 11.5t-10.5 27.5v874q0 16 11 27.5t26 11.5h102q16 0 27.5 -11t11.5 -28v-874q0 -16 -11.5 -27.5t-27.5 -11.5h-102z" />
    <glyph glyph-name="iacute" unicode="&#xed;" horiz-adv-x="497" 
d="M492 1430q14 -10 16 -28t-10 -30l-236 -282q-20 -20 -45 -5l-27 21q-29 18 -10 49l203 305q23 37 57 10zM197 0q-16 0 -26.5 11.5t-10.5 27.5v874q0 16 11 27.5t26 11.5h102q16 0 27.5 -11t11.5 -28v-874q0 -16 -11.5 -27.5t-27.5 -11.5h-102z" />
    <glyph glyph-name="icircumflex" unicode="&#xee;" horiz-adv-x="497" 
d="M-4 1085l-27 17q-31 20 -10 51l211 322q10 16 29 16h96q18 0 29 -16l211 -320q23 -31 -9 -49l-26 -16q-25 -18 -45 6l-189 256q-18 23 -35 0l-192 -258q-18 -27 -43 -9zM197 0q-16 0 -26.5 11.5t-10.5 27.5v874q0 16 11 27.5t26 11.5h102q16 0 27.5 -11t11.5 -28v-874
q0 -16 -11.5 -27.5t-27.5 -11.5h-102z" />
    <glyph glyph-name="idieresis" unicode="&#xef;" horiz-adv-x="497" 
d="M295 1376q111 0 111 -114q0 -121 -111 -121q-27 0 -51 10q-25 -10 -54 -10q-106 0 -106 121q0 117 106 116q29 0 56 -10q18 8 49 8zM299 952q16 0 27.5 -11t11.5 -28v-874q0 -16 -11.5 -27.5t-27.5 -11.5h-102q-16 0 -26.5 11.5t-10.5 27.5v874q0 16 11 27.5t26 11.5h102
z" />
    <glyph glyph-name="eth" unicode="&#xf0;" horiz-adv-x="1277" 
d="M623 -31q-516 0 -517 426q0 193 116 282t366 89q145 0 253.5 -50t145.5 -132q16 -25 21 -13q2 4 2 9v137q0 203 -97 327q-12 18 -26 5l-230 -177q-29 -25 -51 5l-16 20q-23 25 0 51l198 154q8 8 5.5 18t-15.5 15q-176 113 -514 77q-16 -2 -29.5 9.5t-13.5 27.5v84
q0 33 35 37q459 45 692 -125q12 -4 21 2l161 127q27 25 54 -6l16 -18q23 -31 -6 -56l-141 -108q-14 -10 -2 -27q137 -162 137 -452v-170q0 -299 -144.5 -433.5t-420.5 -134.5zM639 133q188 0 266 75t78 187q0 111 -95 170.5t-261 59.5q-184 0 -263 -57.5t-79 -174.5
q0 -260 354 -260z" />
    <glyph glyph-name="ntilde" unicode="&#xf1;" horiz-adv-x="1179" 
d="M315 1069q-16 0 -26 10.5t-10 26.5q-12 354 182 354q49 0 78.5 -28.5t68.5 -90.5q6 -10 10.5 -16t13.5 -22.5t13 -22.5t12.5 -18.5t14.5 -17.5t14 -12t16.5 -9t16.5 -2q74 0 67 202q6 39 35 39h56q37 0 36 -37q4 -180 -47 -267t-139 -87q-37 0 -67.5 20.5t-47 43
t-41.5 65.5q-6 10 -17 28.5t-16.5 27t-13.5 20.5t-15 17t-15.5 9.5t-18.5 4.5q-74 0 -69 -201q-4 -37 -33 -37h-58zM696 981q346 0 346 -348v-594q0 -39 -38 -39h-103q-16 0 -26.5 11.5t-10.5 27.5v553q0 231 -231 231q-166 0 -287 -127q-8 -12 -8 -18v-639
q0 -16 -10.5 -27.5t-26.5 -11.5h-102q-39 0 -39 39v874q0 16 11 27.5t28 11.5h86q31 0 37 -24v-76q2 -12 8 -14q2 0 4 2q131 141 362 141z" />
    <glyph glyph-name="ograve" unicode="&#xf2;" horiz-adv-x="1148" 
d="M350 1372q-14 12 -12 29.5t16 28.5l54 40q33 27 55 -10l203 -305q18 -29 -7 -49l-28 -21q-25 -16 -45 5zM573 -31q-211 0 -343 100.5t-132 325.5v162q0 154 69 252t170 135t236 37q100 0 182.5 -21.5t151 -68.5t106.5 -132t38 -202v-162q0 -225 -133.5 -325.5
t-344.5 -100.5zM573 119q127 0 213 65.5t86 216.5v150q0 152 -86 216t-213 64q-125 0 -211 -64.5t-86 -215.5v-150q0 -152 86 -217t211 -65z" />
    <glyph glyph-name="oacute" unicode="&#xf3;" horiz-adv-x="1148" 
d="M819 1430q14 -10 16.5 -28t-10.5 -30l-235 -282q-20 -20 -45 -5l-27 21q-29 18 -10 49l203 305q23 37 57 10zM573 -31q-211 0 -343 100.5t-132 325.5v162q0 154 69 252t170 135t236 37q100 0 182.5 -21.5t151 -68.5t106.5 -132t38 -202v-162q0 -225 -133.5 -325.5
t-344.5 -100.5zM573 119q127 0 213 65.5t86 216.5v150q0 152 -86 216t-213 64q-125 0 -211 -64.5t-86 -215.5v-150q0 -152 86 -217t211 -65z" />
    <glyph glyph-name="ocircumflex" unicode="&#xf4;" horiz-adv-x="1148" 
d="M324 1085l-27 17q-31 20 -10 51l211 322q10 16 28 16h97q18 0 28 -16l211 -320q23 -31 -8 -49l-27 -16q-25 -18 -45 6l-188 256q-18 23 -35 0l-192 -258q-18 -27 -43 -9zM573 -31q-211 0 -343 100.5t-132 325.5v162q0 154 69 252t170 135t236 37q100 0 182.5 -21.5
t151 -68.5t106.5 -132t38 -202v-162q0 -225 -133.5 -325.5t-344.5 -100.5zM573 119q127 0 213 65.5t86 216.5v150q0 152 -86 216t-213 64q-125 0 -211 -64.5t-86 -215.5v-150q0 -152 86 -217t211 -65z" />
    <glyph glyph-name="otilde" unicode="&#xf5;" horiz-adv-x="1148" 
d="M289 1069q-14 0 -25.5 10.5t-11.5 26.5q-12 354 182 354q49 0 79 -28.5t69 -90.5q6 -10 10 -16t13 -22.5t13.5 -22.5t12.5 -18.5t14 -17.5t14.5 -12t16.5 -9t16 -2q74 0 68 202q6 39 35 39h55q37 0 37 -37q4 -180 -47.5 -267t-139.5 -87q-37 0 -67.5 20.5t-47 43
t-40.5 65.5q-6 10 -17.5 28.5t-16.5 27t-13.5 20.5t-15.5 17t-15 9.5t-18 4.5q-74 0 -70 -201q-4 -37 -33 -37h-57zM573 -31q-211 0 -343 100.5t-132 325.5v162q0 154 69 252t170 135t236 37q100 0 182.5 -21.5t151 -68.5t106.5 -132t38 -202v-162q0 -225 -133.5 -325.5
t-344.5 -100.5zM573 119q127 0 213 65.5t86 216.5v150q0 152 -86 216t-213 64q-125 0 -211 -64.5t-86 -215.5v-150q0 -152 86 -217t211 -65z" />
    <glyph glyph-name="odieresis" unicode="&#xf6;" horiz-adv-x="1148" 
d="M518 1141q-106 0 -106 121q0 117 106 116q29 0 55 -10q18 8 50 8q111 0 110 -114q0 -121 -110 -121q-27 0 -52 10q-24 -10 -53 -10zM573 981q100 0 182.5 -21.5t151 -68.5t106.5 -132t38 -202v-162q0 -225 -133.5 -325.5t-344.5 -100.5t-343 100.5t-132 325.5v162
q0 154 69 252t170 135t236 37zM872 401v150q0 152 -86 216t-213 64q-125 0 -211 -64.5t-86 -215.5v-150q0 -152 86.5 -217t210.5 -65q127 0 213 65t86 217z" />
    <glyph glyph-name="divide" unicode="&#xf7;" horiz-adv-x="1181" 
d="M600 874q-119 0 -119 103q0 96 119 96q123 0 123 -96q0 -103 -123 -103zM150 578q-14 0 -26.5 12t-12.5 26v56q0 16 11 27.5t28 11.5h882q16 0 27.5 -11.5t11.5 -27.5v-56q0 -14 -11 -26t-28 -12h-882zM600 221q-119 0 -119 103q0 96 119 96q123 0 123 -96
q0 -103 -123 -103z" />
    <glyph glyph-name="oslash" unicode="&#xf8;" horiz-adv-x="1150" 
d="M1085 913q29 -29 0 -55l-79 -82q47 -90 47 -219v-162q0 -225 -133.5 -325.5t-344.5 -100.5q-174 0 -286 64l-90 -92q-25 -25 -54 -2l-79 71q-29 25 -3 56l93 96q-55 94 -56 233v162q0 154 69 252t170 135t236 37q188 0 306 -72l71 74q27 27 54 0zM279 401q0 -57 12 -100
l471 485q-76 45 -187 45q-125 0 -210.5 -64.5t-85.5 -215.5v-150zM874 551q0 49 -8 80l-458 -475q68 -37 167 -37q127 0 213 65.5t86 216.5v150z" />
    <glyph glyph-name="ugrave" unicode="&#xf9;" horiz-adv-x="1173" 
d="M362 1372q-14 12 -12 29.5t17 28.5l53 40q33 27 55 -10l203 -305q18 -29 -6 -49l-29 -21q-25 -16 -45 5zM985 952q14 0 26.5 -11t12.5 -28v-874q0 -16 -11.5 -27.5t-27.5 -11.5h-88q-29 0 -33 20l-4 76q-4 23 -18 8q-135 -135 -346 -135q-346 0 -346 348v596
q0 16 11 27.5t27 11.5h103q14 0 25.5 -11t11.5 -28v-555q0 -229 231 -229q76 0 155 35t122 86q10 10 10 24v639q0 16 11 27.5t26 11.5h102z" />
    <glyph glyph-name="uacute" unicode="&#xfa;" horiz-adv-x="1173" 
d="M831 1430q14 -10 16.5 -28t-9.5 -30l-236 -282q-20 -20 -45 -5l-27 21q-29 18 -10 49l203 305q23 37 57 10zM985 952q14 0 26.5 -11t12.5 -28v-874q0 -16 -11.5 -27.5t-27.5 -11.5h-88q-29 0 -33 20l-4 76q-4 23 -18 8q-135 -135 -346 -135q-346 0 -346 348v596
q0 16 11 27.5t27 11.5h103q14 0 25.5 -11t11.5 -28v-555q0 -229 231 -229q76 0 155 35t122 86q10 10 10 24v639q0 16 11 27.5t26 11.5h102z" />
    <glyph glyph-name="ucircumflex" unicode="&#xfb;" horiz-adv-x="1173" 
d="M336 1085l-27 17q-31 20 -10 51l211 322q10 16 29 16h96q18 0 29 -16l210 -320q23 -31 -8 -49l-26 -16q-25 -18 -45 6l-189 256q-18 23 -35 0l-192 -258q-18 -27 -43 -9zM985 952q14 0 26.5 -11t12.5 -28v-874q0 -16 -11.5 -27.5t-27.5 -11.5h-88q-29 0 -33 20l-4 76
q-4 23 -18 8q-135 -135 -346 -135q-346 0 -346 348v596q0 16 11 27.5t27 11.5h103q14 0 25.5 -11t11.5 -28v-555q0 -229 231 -229q76 0 155 35t122 86q10 10 10 24v639q0 16 11 27.5t26 11.5h102z" />
    <glyph glyph-name="udieresis" unicode="&#xfc;" horiz-adv-x="1173" 
d="M530 1141q-106 0 -106 121q0 117 106 116q29 0 56 -10q18 8 49 8q111 0 110 -114q0 -121 -110 -121q-27 0 -51 10q-25 -10 -54 -10zM985 952q14 0 26.5 -11t12.5 -28v-874q0 -16 -11.5 -27.5t-27.5 -11.5h-88q-29 0 -33 20l-4 76q-4 23 -18 8q-135 -135 -346 -135
q-346 0 -346 348v596q0 16 11 27.5t27 11.5h103q14 0 25.5 -11t11.5 -28v-555q0 -229 231 -229q76 0 155 35t122 86q10 10 10 24v639q0 16 11 27.5t26 11.5h102z" />
    <glyph glyph-name="yacute" unicode="&#xfd;" horiz-adv-x="1083" 
d="M786 1430q14 -10 16.5 -28t-9.5 -30l-236 -282q-20 -20 -45 -5l-27 21q-29 18 -10 49l203 305q23 37 57 10zM993 952q25 0 37 -19.5t4 -43.5l-555 -1254q-10 -23 -33 -22h-96q-25 0 -36 19.5t-1 43.5l129 285q4 10 0 19l-393 911q-10 23 2 42t35 19h125q27 0 33 -26
l282 -690q4 -14 10.5 -19.5t12.5 0.5t10 23l283 688q10 25 35 24h116z" />
    <glyph glyph-name="thorn" unicode="&#xfe;" horiz-adv-x="1204" 
d="M688 981q418 0 418 -408v-190q0 -217 -119 -315.5t-319 -98.5q-186 0 -295 99q-47 41 -47 -27v-389q0 -16 -11.5 -27.5t-27.5 -11.5h-103q-16 0 -26.5 11t-10.5 28v1827q0 16 11.5 27.5t25.5 11.5h95q16 0 27 -11.5t11 -27.5v-584q0 -76 41 -29q105 115 330 115zM930 401
v156q0 147 -84 212t-205 65q-225 0 -299 -164q-16 -37 -16 -68v-283q0 -33 14 -53q78 -150 293 -149q127 0 212 66t85 218z" />
    <glyph glyph-name="ydieresis" unicode="&#xff;" horiz-adv-x="1083" 
d="M485 1141q-106 0 -106 121q0 117 106 116q29 0 56 -10q18 8 49 8q111 0 110 -114q0 -121 -110 -121q-27 0 -51 10q-25 -10 -54 -10zM993 952q25 0 37 -19.5t4 -43.5l-555 -1254q-10 -23 -33 -22h-96q-25 0 -36 19.5t-1 43.5l129 285q4 10 0 19l-393 911q-10 23 2 42
t35 19h125q27 0 33 -26l282 -690q4 -14 10.5 -19.5t12.5 0.5t10 23l283 688q10 25 35 24h116z" />
    <glyph glyph-name="Amacron" unicode="&#x100;" horiz-adv-x="1253" 
d="M975 1665q0 -14 -10.5 -25.5t-26.5 -11.5h-621q-16 0 -27 10.5t-11 26.5v66q0 16 11 26t27 10h621q16 0 26.5 -11t10.5 -25v-66zM96 0q-23 0 -33 16.5t-2 38.5l439 1286q8 27 35 27h182q27 0 37 -29l438 -1284q6 -23 -3 -39t-32 -16h-98q-37 0 -45 37l-86 246
q-6 14 -21 14h-561q-16 0 -20 -14l-86 -248q-8 -35 -41 -35h-103zM391 449h469q23 0 17 20l-238 690q-4 12 -12.5 12t-12.5 -12l-237 -690q-6 -20 14 -20z" />
    <glyph glyph-name="amacron" unicode="&#x101;" horiz-adv-x="1056" 
d="M866 1249q0 -16 -11 -26.5t-26 -10.5h-620q-16 0 -27.5 10.5t-11.5 26.5v66q0 16 11.5 26.5t27.5 10.5h620q14 0 25.5 -10.5t11.5 -26.5v-66zM391 -31q-315 0 -315 287q0 145 88 212t266 67h293q27 0 27 20v70q0 209 -263 209q-168 0 -278 -103q-29 -23 -51 6l-41 58
q-27 33 8 55q145 131 389 131q197 0 306.5 -83t109.5 -294v-565q0 -39 -39 -39h-80q-29 0 -35 25l-2 88q-4 23 -18 4q-119 -148 -365 -148zM436 106q209 0 307 152q10 8 11 21v129q0 14 -19 14h-286q-203 0 -203 -156q0 -76 50 -118t140 -42z" />
    <glyph glyph-name="Abreve" unicode="&#x102;" horiz-adv-x="1253" 
d="M629 1479q-305 0 -316 358q-2 16 10.5 27.5t28.5 11.5h74q33 0 37 -39q4 -231 166 -231q158 0 162 231q4 39 38 39h72q39 0 39 -45q-10 -352 -311 -352zM96 0q-23 0 -33 16.5t-2 38.5l439 1286q8 27 35 27h182q27 0 37 -29l438 -1284q6 -23 -3 -39t-32 -16h-98
q-37 0 -45 37l-86 246q-6 14 -21 14h-561q-16 0 -20 -14l-86 -248q-8 -35 -41 -35h-103zM391 449h469q23 0 17 20l-238 690q-4 12 -12.5 12t-12.5 -12l-237 -690q-6 -20 14 -20z" />
    <glyph glyph-name="abreve" unicode="&#x103;" horiz-adv-x="1056" 
d="M520 1063q-305 0 -315 358q-2 16 10 27.5t29 11.5h73q33 0 37 -39q4 -231 166 -231q158 0 162 231q4 39 39 39h72q39 0 38 -45q-10 -352 -311 -352zM391 -31q-315 0 -315 287q0 145 88 212t266 67h293q27 0 27 20v70q0 209 -263 209q-168 0 -278 -103q-29 -23 -51 6
l-41 58q-27 33 8 55q145 131 389 131q197 0 306.5 -83t109.5 -294v-565q0 -39 -39 -39h-80q-29 0 -35 25l-2 88q-4 23 -18 4q-119 -148 -365 -148zM436 106q209 0 307 152q10 8 11 21v129q0 14 -19 14h-286q-203 0 -203 -156q0 -76 50 -118t140 -42z" />
    <glyph glyph-name="Aogonek" unicode="&#x104;" horiz-adv-x="1253" 
d="M1192 55q10 -37 -16 -51l6 -2q-121 -70 -173.5 -118t-52.5 -109q0 -63 82 -64q37 0 109 17q27 2 31 -23l2 -43q4 -37 -27 -43q-55 -18 -143 -18q-184 0 -185 141q0 80 66.5 147.5t169.5 110.5h-2q-37 0 -45 37l-86 246q-6 14 -21 14h-561q-16 0 -20 -14l-86 -248
q-8 -35 -41 -35h-103q-23 0 -33 16.5t-2 38.5l439 1286q8 27 35 27h182q27 0 37 -29zM860 449q23 0 17 20l-238 690q-4 12 -12.5 12t-12.5 -12l-237 -690q-6 -20 14 -20h469z" />
    <glyph glyph-name="aogonek" unicode="&#x105;" horiz-adv-x="1056" 
d="M514 981q197 0 306.5 -83t109.5 -294v-565q0 -25 -23 -35l4 -2q-121 -70 -173 -118t-52 -109q0 -63 82 -64q37 0 109 17q27 2 30 -23l2 -43q4 -37 -26 -43q-55 -18 -144 -18q-184 0 -184 141q0 82 68.5 149.5t173.5 110.5q-16 6 -21 23l-2 88q-4 23 -18 4
q-119 -147 -365 -148q-315 0 -315 287q0 145 88 212t266 67h293q27 0 27 20v70q0 209 -263 209q-168 0 -278 -103q-29 -23 -51 6l-41 58q-27 33 8 55q145 131 389 131zM754 279v129q0 14 -19 14h-286q-203 0 -203 -156q0 -76 50 -118t140 -42q209 0 307 152q11 9 11 21z" />
    <glyph glyph-name="Cacute" unicode="&#x106;" horiz-adv-x="1269" 
d="M897 1843q14 -10 16 -27.5t-10 -29.5l-235 -283q-20 -20 -45 -4l-27 21q-29 18 -10 49l202 305q23 37 58 10zM1186 373q37 -18 22 -58q-66 -182 -198.5 -264t-341.5 -82q-268 0 -413.5 142.5t-145.5 433.5v280q0 289 147 430.5t418 141.5q393 0 528 -305q16 -37 -18 -54
l-74 -41q-39 -20 -59 17q-98 215 -373 215q-387 0 -387 -398v-294q0 -201 100.5 -301.5t284.5 -100.5q283 0 377 250q23 39 59 23z" />
    <glyph glyph-name="cacute" unicode="&#x107;" horiz-adv-x="1079" 
d="M786 1430q14 -10 16.5 -28t-9.5 -30l-236 -282q-20 -20 -45 -5l-27 21q-29 18 -10 49l203 305q23 37 57 10zM954 213q27 -20 13 -47q-119 -197 -416 -197q-201 0 -327 100.5t-126 325.5v162q0 225 127 324.5t338 99.5q285 0 398 -186q18 -29 -11 -52l-67 -41
q-27 -20 -52 11q-80 121 -260 121q-295 0 -295 -285v-146q0 -156 84 -221t213 -65q180 0 267 125q23 35 51 12z" />
    <glyph glyph-name="Cdotaccent" unicode="&#x10a;" horiz-adv-x="1269" 
d="M651 1587q-106 0 -106 121q0 117 106 117q111 0 111 -117q0 -121 -111 -121zM1186 373q37 -18 22 -58q-66 -182 -198.5 -264t-341.5 -82q-268 0 -413.5 142.5t-145.5 433.5v280q0 289 147 430.5t418 141.5q393 0 528 -305q16 -37 -18 -54l-74 -41q-39 -20 -59 17
q-98 215 -373 215q-387 0 -387 -398v-294q0 -201 100.5 -301.5t284.5 -100.5q283 0 377 250q23 39 59 23z" />
    <glyph glyph-name="cdotaccent" unicode="&#x10b;" horiz-adv-x="1079" 
d="M541 1165q-106 0 -107 123q0 115 107 115q111 0 110 -115q0 -59 -29.5 -91t-80.5 -32zM954 213q27 -20 13 -47q-119 -197 -416 -197q-201 0 -327 100.5t-126 325.5v162q0 225 127 324.5t338 99.5q285 0 398 -186q18 -29 -11 -52l-67 -41q-27 -20 -52 11q-80 121 -260 121
q-295 0 -295 -285v-146q0 -156 84 -221t213 -65q180 0 267 125q23 35 51 12z" />
    <glyph glyph-name="Ccaron" unicode="&#x10c;" horiz-adv-x="1269" 
d="M604 1493q-18 0 -29 16l-210 322q-18 31 10 51l26 16q25 18 43 -8l193 -258q16 -18 35 0l188 256q20 25 45 8l27 -18q31 -18 8 -49l-211 -320q-10 -16 -29 -16h-96zM1186 373q37 -18 22 -58q-66 -182 -198.5 -264t-341.5 -82q-268 0 -413.5 142.5t-145.5 433.5v280
q0 289 147 430.5t418 141.5q393 0 528 -305q16 -37 -18 -54l-74 -41q-39 -20 -59 17q-98 215 -373 215q-387 0 -387 -398v-294q0 -201 100.5 -301.5t284.5 -100.5q283 0 377 250q23 39 59 23z" />
    <glyph glyph-name="ccaron" unicode="&#x10d;" horiz-adv-x="1079" 
d="M494 1079q-18 0 -29 17l-211 321q-18 31 10 51l27 17q25 18 43 -8l192 -258q16 -18 35 0l189 256q20 25 45 8l26 -19q31 -18 8 -49l-211 -319q-10 -16 -28 -17h-96zM954 213q27 -20 13 -47q-119 -197 -416 -197q-201 0 -327 100.5t-126 325.5v162q0 225 127 324.5
t338 99.5q285 0 398 -186q18 -29 -11 -52l-67 -41q-27 -20 -52 11q-80 121 -260 121q-295 0 -295 -285v-146q0 -156 84 -221t213 -65q180 0 267 125q23 35 51 12z" />
    <glyph glyph-name="Dcaron" unicode="&#x10e;" horiz-adv-x="1380" 
d="M645 1493q-18 0 -29 16l-210 322q-18 31 10 51l26 16q25 18 43 -8l193 -258q16 -18 35 0l188 256q20 25 45 8l27 -18q31 -18 8 -49l-211 -320q-10 -16 -29 -16h-96zM682 1366q592 0 592 -549v-270q0 -547 -592 -547h-475q-39 0 -39 39v1288q0 39 39 39h475zM1090 545v276
q0 375 -408 375h-315q-18 0 -19 -18v-990q0 -18 19 -18h315q408 0 408 375z" />
    <glyph glyph-name="dcaron" unicode="&#x10f;" horiz-adv-x="1316" 
d="M528 -31q-197 0 -313.5 97.5t-116.5 316.5v182q0 219 122 317.5t317 98.5q229 0 323 -127q10 -10 20.5 -5t10.5 19v611q0 16 11 27.5t28 11.5h100q16 0 27.5 -11.5t11.5 -27.5v-1440q0 -39 -39 -39h-74q-37 0 -36 33v86q0 29 -25 4q-59 -76 -160 -115t-207 -39z
M1337 1505q16 -2 26.5 -16t6.5 -31l-65 -444q-6 -29 -39 -29l-35 6q-35 0 -31 37l23 449q4 43 43 39zM575 117q92 0 178.5 43t133.5 137q4 8 4 16v330q0 10 -4 14q-80 176 -305 177q-133 0 -219.5 -66t-86.5 -221v-141q0 -156 85 -222.5t214 -66.5z" />
    <glyph glyph-name="Dcroat" unicode="&#x110;" horiz-adv-x="1386" 
d="M682 1366q592 0 592 -549v-270q0 -547 -592 -547h-475q-39 0 -39 39v575h-78q-39 0 -39 39v64q0 39 39 39h78v571q0 39 39 39h475zM1090 545v276q0 375 -408 375h-315q-18 0 -19 -18v-422h371q16 0 26.5 -11.5t10.5 -27.5v-64q0 -16 -10.5 -27.5t-26.5 -11.5h-371v-426
q0 -18 19 -18h315q408 0 408 375z" />
    <glyph glyph-name="dcroat" unicode="&#x111;" horiz-adv-x="1280" 
d="M1153 1348q14 0 25.5 -10.5t11.5 -26.5v-66q0 -16 -11.5 -27.5t-25.5 -11.5h-84v-1167q0 -39 -39 -39h-74q-37 0 -36 33v86q0 29 -25 4q-59 -76 -159.5 -115t-207.5 -39q-197 0 -313.5 97.5t-116.5 316.5v182q0 219 122 317.5t317 98.5q229 0 323 -127q10 -10 20.5 -5
t10.5 19v338h-485q-16 0 -27.5 11.5t-11.5 27.5v66q0 14 11 25.5t28 11.5h485v131q0 16 11 27.5t28 11.5h100q16 0 27.5 -11.5t11.5 -27.5v-131h84zM891 313v330q0 10 -4 14q-80 176 -305 177q-133 0 -219.5 -66t-86.5 -221v-141q0 -156 85 -222.5t214 -66.5q92 0 178.5 43
t133.5 137q4 8 4 16z" />
    <glyph glyph-name="Emacron" unicode="&#x112;" horiz-adv-x="1189" 
d="M961 1665q0 -14 -11.5 -25.5t-25.5 -11.5h-621q-16 0 -27.5 10.5t-11.5 26.5v66q0 16 11.5 26t27.5 10h621q14 0 25.5 -11t11.5 -25v-66zM209 0q-41 0 -41 41v1286q0 39 39 39h856q16 0 26.5 -11.5t10.5 -27.5v-92q0 -16 -11.5 -27.5t-25.5 -11.5h-696q-18 0 -19 -18
v-394q0 -18 19 -18h561q16 0 27.5 -11.5t11.5 -27.5v-68q0 -16 -11.5 -27t-27.5 -11h-561q-18 0 -19 -19v-416q0 -18 19 -18h700q14 0 25.5 -10.5t11.5 -26.5v-92q0 -16 -10.5 -27.5t-26.5 -11.5h-858z" />
    <glyph glyph-name="emacron" unicode="&#x113;" horiz-adv-x="1071" 
d="M895 1251q0 -14 -11.5 -25.5t-25.5 -11.5h-620q-16 0 -27.5 10.5t-11.5 26.5v66q0 16 11 26.5t28 10.5h620q14 0 25.5 -11.5t11.5 -25.5v-66zM545 981q442 0 442 -414v-102q0 -39 -39 -39h-655q-18 0 -19 -16v-39q0 -135 80 -194.5t203 -59.5q197 0 293 104q27 20 49 -2
l55 -55q25 -29 4 -49q-131 -145 -407 -146q-205 0 -329 98.5t-124 319.5v180q0 219 126 316.5t321 97.5zM545 834q-115 0 -193 -58.5t-78 -191.5v-39q0 -20 19 -21h500q16 0 16 17v45q0 133 -75.5 190.5t-188.5 57.5z" />
    <glyph glyph-name="Edotaccent" unicode="&#x116;" horiz-adv-x="1189" 
d="M610 1587q-106 0 -106 121q0 117 106 117q111 0 111 -117q0 -121 -111 -121zM209 0q-41 0 -41 41v1286q0 39 39 39h856q16 0 26.5 -11.5t10.5 -27.5v-92q0 -16 -11.5 -27.5t-25.5 -11.5h-696q-18 0 -19 -18v-394q0 -18 19 -18h561q16 0 27.5 -11.5t11.5 -27.5v-68
q0 -16 -11.5 -27t-27.5 -11h-561q-18 0 -19 -19v-416q0 -18 19 -18h700q14 0 25.5 -10.5t11.5 -26.5v-92q0 -16 -10.5 -27.5t-26.5 -11.5h-858z" />
    <glyph glyph-name="edotaccent" unicode="&#x117;" horiz-adv-x="1071" 
d="M545 1165q-106 0 -107 123q0 115 107 115q111 0 110 -115q0 -59 -29.5 -91t-80.5 -32zM545 981q442 0 442 -414v-102q0 -39 -39 -39h-655q-18 0 -19 -16v-39q0 -135 80 -194.5t203 -59.5q197 0 293 104q27 20 49 -2l55 -55q25 -29 4 -49q-131 -145 -407 -146
q-205 0 -329 98.5t-124 319.5v180q0 219 126 316.5t321 97.5zM545 834q-115 0 -193 -58.5t-78 -191.5v-39q0 -20 19 -21h500q16 0 16 17v45q0 133 -75.5 190.5t-188.5 57.5z" />
    <glyph glyph-name="Eogonek" unicode="&#x118;" horiz-adv-x="1189" 
d="M1067 168q14 0 25.5 -10.5t11.5 -26.5v-92q0 -27 -23 -37h2q-121 -70 -173 -118t-52 -109q0 -63 82 -64q37 0 109 17q27 2 30 -23l2 -43q4 -37 -26 -43q-55 -18 -144 -18q-184 0 -184 141q0 80 66.5 147.5t169.5 110.5h-754q-41 0 -41 41v1286q0 39 39 39h856
q16 0 26.5 -11.5t10.5 -27.5v-92q0 -16 -11.5 -27.5t-25.5 -11.5h-696q-18 0 -19 -18v-394q0 -18 19 -18h561q16 0 27.5 -11.5t11.5 -27.5v-68q0 -16 -11.5 -27t-27.5 -11h-561q-18 0 -19 -19v-416q0 -18 19 -18h700z" />
    <glyph glyph-name="eogonek" unicode="&#x119;" horiz-adv-x="1071" 
d="M545 981q442 0 442 -414v-102q0 -39 -39 -39h-655q-18 0 -19 -16v-39q0 -135 80 -194.5t203 -59.5q197 0 293 104q27 20 49 -2l55 -55q25 -29 4 -49q-74 -82 -200 -121q-96 -57 -140.5 -101.5t-44.5 -101.5q0 -63 82 -63q37 0 109 16q27 2 31 -23l2 -43q4 -37 -27 -43
q-55 -18 -143 -18q-184 0 -185 141q0 119 148 211h-39q-205 0 -329 98.5t-124 319.5v180q0 219 126 316.5t321 97.5zM809 541v45q0 133 -76 190.5t-188 57.5q-115 0 -193 -58.5t-78 -191.5v-39q0 -20 19 -21h500q16 1 16 17z" />
    <glyph glyph-name="Ecaron" unicode="&#x11a;" horiz-adv-x="1189" 
d="M563 1493q-18 0 -28 16l-211 322q-18 31 10 51l26 16q25 18 43 -8l193 -258q16 -18 35 0l188 256q20 25 45 8l27 -18q31 -18 8 -49l-211 -320q-10 -16 -29 -16h-96zM209 0q-41 0 -41 41v1286q0 39 39 39h856q16 0 26.5 -11.5t10.5 -27.5v-92q0 -16 -11.5 -27.5
t-25.5 -11.5h-696q-18 0 -19 -18v-394q0 -18 19 -18h561q16 0 27.5 -11.5t11.5 -27.5v-68q0 -16 -11.5 -27t-27.5 -11h-561q-18 0 -19 -19v-416q0 -18 19 -18h700q14 0 25.5 -10.5t11.5 -26.5v-92q0 -16 -10.5 -27.5t-26.5 -11.5h-858z" />
    <glyph glyph-name="ecaron" unicode="&#x11b;" horiz-adv-x="1071" 
d="M498 1079q-18 0 -29 17l-211 321q-18 31 10 51l27 17q25 18 43 -8l192 -258q16 -18 35 0l189 256q20 25 45 8l26 -19q31 -18 9 -49l-211 -319q-10 -16 -29 -17h-96zM545 981q442 0 442 -414v-102q0 -39 -39 -39h-655q-18 0 -19 -16v-39q0 -135 80 -194.5t203 -59.5
q197 0 293 104q27 20 49 -2l55 -55q25 -29 4 -49q-131 -145 -407 -146q-205 0 -329 98.5t-124 319.5v180q0 219 126 316.5t321 97.5zM545 834q-115 0 -193 -58.5t-78 -191.5v-39q0 -20 19 -21h500q16 0 16 17v45q0 133 -75.5 190.5t-188.5 57.5z" />
    <glyph glyph-name="Gbreve" unicode="&#x11e;" horiz-adv-x="1316" 
d="M657 1479q-305 0 -315 358q-2 16 10.5 27.5t28.5 11.5h74q33 0 37 -39q4 -231 165 -231q158 0 162 231q4 39 39 39h72q39 0 39 -45q-11 -352 -312 -352zM684 -31q-575 0 -575 576v276q0 291 147 433.5t420 142.5q348 0 520 -273q20 -29 -6 -49l-74 -57q-31 -25 -55 10
q-123 201 -383 201q-387 0 -387 -398v-294q0 -401 411 -402q205 0 330 76q12 4 12 20v312q0 18 -18 18h-442q-16 0 -27.5 11.5t-11.5 27.5v70q0 14 12 26.5t27 12.5h596q16 0 27.5 -11.5t11.5 -27.5v-512q0 -53 -31 -72q-74 -51 -209 -84t-295 -33z" />
    <glyph glyph-name="gbreve" unicode="&#x11f;" horiz-adv-x="1130" 
d="M598 1065q-305 0 -315 358q-2 16 10 27.5t29 11.5h73q33 0 37 -39q4 -231 166 -231q158 0 162 231q4 39 39 39h71q39 0 39 -45q-10 -352 -311 -352zM539 -418q-264 0 -387 121q-25 20 -9 49l31 74q18 39 57 10q104 -111 293 -110q299 0 299 262v104q0 14 -10 16.5
t-20 -8.5q-106 -113 -297 -112q-180 0 -291 95t-111 312v172q0 219 114 316.5t292 97.5q96 0 184 -37t141 -102q4 -6 9.5 -8.5t8.5 1t3 11.5v74q0 14 11 23t26 9h80q16 0 27 -11t11 -28v-915q0 -233 -121.5 -324.5t-340.5 -91.5zM551 131q184 0 268 135q6 8 6 19v395
q0 10 -6 16q-66 139 -270 140q-121 0 -200 -64.5t-79 -214.5v-147q0 -147 80 -213t201 -66z" />
    <glyph glyph-name="Gdotaccent" unicode="&#x120;" horiz-adv-x="1316" 
d="M653 1587q-106 0 -106 121q0 117 106 117q111 0 111 -117q0 -121 -111 -121zM684 -31q-575 0 -575 576v276q0 291 147 433.5t420 142.5q348 0 520 -273q20 -29 -6 -49l-74 -57q-31 -25 -55 10q-123 201 -383 201q-387 0 -387 -398v-294q0 -401 411 -402q205 0 330 76
q12 4 12 20v312q0 18 -18 18h-442q-16 0 -27.5 11.5t-11.5 27.5v70q0 14 12 26.5t27 12.5h596q16 0 27.5 -11.5t11.5 -27.5v-512q0 -53 -31 -72q-74 -51 -209 -84t-295 -33z" />
    <glyph glyph-name="gdotaccent" unicode="&#x121;" horiz-adv-x="1130" 
d="M594 1165q-106 0 -107 123q0 115 107 115q111 0 111 -115q0 -59 -30 -91t-81 -32zM539 -418q-264 0 -387 121q-25 20 -9 49l31 74q18 39 57 10q104 -111 293 -110q299 0 299 262v104q0 14 -10 16.5t-20 -8.5q-106 -113 -297 -112q-180 0 -291 95t-111 312v172
q0 219 114 316.5t292 97.5q96 0 184 -37t141 -102q4 -6 9.5 -8.5t8.5 1t3 11.5v74q0 14 11 23t26 9h80q16 0 27 -11t11 -28v-915q0 -233 -121.5 -324.5t-340.5 -91.5zM551 131q184 0 268 135q6 8 6 19v395q0 10 -6 16q-66 139 -270 140q-121 0 -200 -64.5t-79 -214.5v-147
q0 -147 80 -213t201 -66z" />
    <glyph glyph-name="uni0122" unicode="&#x122;" horiz-adv-x="1316" 
d="M684 -31q-575 0 -575 576v276q0 291 147 433.5t420 142.5q348 0 520 -273q20 -29 -6 -49l-74 -57q-31 -25 -55 10q-123 201 -383 201q-387 0 -387 -398v-294q0 -401 411 -402q205 0 330 76q12 4 12 20v312q0 18 -18 18h-442q-16 0 -27.5 11.5t-11.5 27.5v70q0 14 12 26.5
t27 12.5h596q16 0 27.5 -11.5t11.5 -27.5v-512q0 -53 -31 -72q-74 -51 -209 -84t-295 -33zM567 -518q-37 0 -37 35l-2 18q0 33 43 37q147 -6 179 106q8 68 -41 84q-2 2 -15 -6q-6 -37 -61 -37q-37 0 -59.5 24t-22.5 67q0 104 125 104q84 0 136 -54.5t52 -144.5
q0 -115 -76 -176t-221 -57z" />
    <glyph glyph-name="uni0123" unicode="&#x123;" horiz-adv-x="1130" 
d="M719 1544q37 0 37 -35l2 -18q0 -33 -43 -37q-147 6 -178 -106q-8 -68 41 -84q2 -2 14 6q6 37 61 37q37 0 59.5 -23.5t22.5 -66.5q0 -104 -125 -105q-84 0 -136 54.5t-52 144.5q0 115 76 176t221 57zM539 -418q-264 0 -387 121q-25 20 -9 49l31 74q18 39 57 10
q104 -111 293 -110q299 0 299 262v104q0 14 -10 16.5t-20 -8.5q-106 -113 -297 -112q-180 0 -291 95t-111 312v172q0 219 114 316.5t292 97.5q96 0 184 -37t141 -102q4 -6 9.5 -8.5t8.5 1t3 11.5v74q0 14 11 23t26 9h80q16 0 27 -11t11 -28v-915q0 -233 -121.5 -324.5
t-340.5 -91.5zM551 131q184 0 268 135q6 8 6 19v395q0 10 -6 16q-66 139 -270 140q-121 0 -200 -64.5t-79 -214.5v-147q0 -147 80 -213t201 -66z" />
    <glyph glyph-name="Hbar" unicode="&#x126;" horiz-adv-x="1402" 
d="M1284 1094q16 0 27.5 -11.5t11.5 -27.5v-68q0 -16 -11.5 -26.5t-27.5 -10.5h-61v-911q0 -16 -10.5 -27.5t-26.5 -11.5h-107q-16 0 -26.5 11.5t-10.5 27.5v481h-682v-481q0 -16 -10 -27.5t-26 -11.5h-105q-39 0 -39 39v911h-61q-16 0 -26.5 10.5t-10.5 26.5v68
q0 16 11 27.5t26 11.5h61v233q0 39 39 39h105q16 0 26 -11.5t10 -27.5v-233h682v233q0 16 10.5 27.5t26.5 11.5h107q16 0 26.5 -11.5t10.5 -27.5v-233h61zM1042 684v266h-682v-266h682z" />
    <glyph glyph-name="hbar" unicode="&#x127;" horiz-adv-x="1228" 
d="M688 981q346 0 346 -346v-596q0 -16 -10 -27.5t-27 -11.5h-102q-39 0 -39 39v555q0 229 -231 229q-154 0 -285 -127q-10 -6 -10 -18v-639q0 -16 -10.5 -27.5t-26.5 -11.5h-103q-16 0 -27 11.5t-11 27.5v1147h-58q-14 0 -24.5 11t-10.5 28v65q0 14 10.5 25.5t24.5 11.5h58
v152q0 16 12 27.5t26 11.5h89q16 0 27 -11.5t11 -27.5v-152h461q35 0 35 -37v-65q0 -16 -10 -27.5t-25 -11.5h-461v-324q0 -31 23 -12q131 131 348 131z" />
    <glyph glyph-name="Imacron" unicode="&#x12a;" horiz-adv-x="516" 
d="M608 1665q0 -14 -11 -25.5t-26 -11.5h-620q-16 0 -27.5 10.5t-11.5 26.5v66q0 16 11 26t28 10h620q14 0 25.5 -11t11.5 -25v-66zM207 0q-39 0 -39 39v1288q0 39 39 39h104q16 0 26.5 -11.5t10.5 -27.5v-1288q0 -16 -10 -27.5t-27 -11.5h-104z" />
    <glyph glyph-name="imacron" unicode="&#x12b;" horiz-adv-x="497" 
d="M596 1251q0 -14 -11.5 -25.5t-25.5 -11.5h-620q-16 0 -27.5 10.5t-11.5 26.5v66q0 16 11 26.5t28 10.5h620q14 0 25.5 -11.5t11.5 -25.5v-66zM197 0q-16 0 -26.5 11.5t-10.5 27.5v874q0 16 11 27.5t26 11.5h102q16 0 27.5 -11t11.5 -28v-874q0 -16 -11.5 -27.5
t-27.5 -11.5h-102z" />
    <glyph glyph-name="Iogonek" unicode="&#x12e;" horiz-adv-x="516" 
d="M348 39q0 -20 -14 -31l8 -4q-121 -70 -173 -118t-52 -109q0 -63 82 -64q37 0 108 17q27 2 31 -23l2 -43q4 -37 -27 -43q-55 -18 -143 -18q-184 0 -184 141q0 78 65.5 145.5t165.5 110.5h-10q-39 0 -39 39v1288q0 39 39 39h104q16 0 26.5 -11.5t10.5 -27.5v-1288z" />
    <glyph glyph-name="iogonek" unicode="&#x12f;" horiz-adv-x="497" 
d="M246 1165q-106 0 -107 123q0 115 107 115q111 0 110 -115q0 -59 -29.5 -91t-80.5 -32zM299 952q16 0 27.5 -11t11.5 -28v-874q0 -27 -23 -35l2 -2q-121 -70 -173 -118t-52 -109q0 -63 82 -64q37 0 109 17q27 2 30 -23l2 -43q4 -37 -26 -43q-55 -18 -144 -18
q-184 0 -184 141q0 80 66.5 147.5t169.5 110.5q-16 0 -26.5 11.5t-10.5 27.5v874q0 16 11 27.5t26 11.5h102z" />
    <glyph glyph-name="Idotaccent" unicode="&#x130;" horiz-adv-x="516" 
d="M258 1587q-106 0 -106 121q0 117 106 117q111 0 111 -117q0 -121 -111 -121zM207 0q-39 0 -39 39v1288q0 39 39 39h104q16 0 26.5 -11.5t10.5 -27.5v-1288q0 -16 -10 -27.5t-27 -11.5h-104z" />
    <glyph glyph-name="dotlessi" unicode="&#x131;" horiz-adv-x="497" 
d="M197 0q-16 0 -26.5 11.5t-10.5 27.5v874q0 16 11 27.5t26 11.5h102q16 0 27.5 -11t11.5 -28v-874q0 -16 -11.5 -27.5t-27.5 -11.5h-102z" />
    <glyph glyph-name="uni0136" unicode="&#x136;" horiz-adv-x="1261" 
d="M207 0q-39 0 -39 39v1288q0 39 39 39h104q16 0 26.5 -11.5t10.5 -27.5v-633q0 -12 8.5 -15t16.5 7l583 641q29 39 70 39h86q31 0 42 -26.5t-9 -49.5l-391 -426q-10 -10 -4 -24l426 -779q10 -23 -0.5 -42t-36.5 -19h-101q-47 0 -61 41l-348 635q-12 25 -27 2l-246 -254
q-8 -16 -8 -23v-362q0 -16 -10 -27.5t-27 -11.5h-104zM557 -518q-37 0 -37 35l-2 18q0 33 43 37q147 -6 178 106q8 68 -41 84q-2 2 -14 -6q-6 -37 -61 -37q-37 0 -59.5 24t-22.5 67q0 104 125 104q84 0 136 -54.5t52 -144.5q0 -115 -76 -176t-221 -57z" />
    <glyph glyph-name="uni0137" unicode="&#x137;" horiz-adv-x="1062" 
d="M188 0q-39 0 -38 39v1438q0 16 11 26t27 10h103q16 0 26.5 -11t10.5 -25v-914q0 -16 10 -21t20 7l420 375q29 29 66 28h84q29 0 38 -28.5t-14 -51.5l-272 -243q-10 -10 -4 -23l325 -545q10 -23 0 -42t-34 -19h-123q-20 0 -31 20l-264 445q-12 25 -33 4l-180 -158
q-8 -8 -8 -16v-256q0 -16 -10.5 -27.5t-26.5 -11.5h-103zM426 -518q-37 0 -37 35l-2 18q0 33 43 37q147 -6 178 106q8 68 -41 84q-2 2 -14 -6q-6 -37 -61 -37q-37 0 -59.5 24t-22.5 67q0 104 125 104q84 0 136 -54.5t52 -144.5q0 -115 -76 -176t-221 -57z" />
    <glyph glyph-name="Lacute" unicode="&#x139;" horiz-adv-x="1046" 
d="M506 1843q14 -10 16 -27.5t-10 -29.5l-236 -283q-20 -20 -45 -4l-26 21q-29 18 -10 49l202 305q23 37 58 10zM981 168q16 0 27.5 -11.5t11.5 -25.5v-92q0 -16 -11.5 -27.5t-27.5 -11.5h-774q-16 0 -27.5 11.5t-11.5 27.5v1288q0 39 39 39h104q16 0 26.5 -11.5t10.5 -27.5
v-1141q0 -18 19 -18h614z" />
    <glyph glyph-name="lacute" unicode="&#x13a;" horiz-adv-x="483" 
d="M485 1997q14 -10 16.5 -27.5t-9.5 -30.5l-236 -282q-20 -20 -45 -4l-27 20q-29 18 -10 49l203 306q23 37 57 10zM190 0q-16 0 -27 11.5t-11 27.5v1440q0 16 12 27.5t26 11.5h103q14 0 25.5 -11.5t11.5 -27.5v-1440q0 -16 -10.5 -27.5t-26.5 -11.5h-103z" />
    <glyph glyph-name="uni013B" unicode="&#x13b;" horiz-adv-x="1046" 
d="M981 168q16 0 27.5 -11.5t11.5 -25.5v-92q0 -16 -11.5 -27.5t-27.5 -11.5h-774q-16 0 -27.5 11.5t-11.5 27.5v1288q0 39 39 39h104q16 0 26.5 -11.5t10.5 -27.5v-1141q0 -18 19 -18h614zM424 -518q-37 0 -37 35l-2 18q0 33 43 37q147 -6 178 106q8 68 -41 84q-2 2 -14 -6
q-6 -37 -62 -37q-37 0 -59 24t-22 67q0 104 124 104q84 0 136.5 -54.5t52.5 -144.5q0 -115 -76 -176t-221 -57z" />
    <glyph glyph-name="uni013C" unicode="&#x13c;" horiz-adv-x="483" 
d="M190 0q-16 0 -27 11.5t-11 27.5v1440q0 16 12 27.5t26 11.5h103q14 0 25.5 -11.5t11.5 -27.5v-1440q0 -16 -10.5 -27.5t-26.5 -11.5h-103zM137 -518q-37 0 -37 35l-2 18q0 33 43 37q147 -6 178 106q8 68 -40 84q-2 2 -15 -6q-6 -37 -61 -37q-37 0 -59.5 24t-22.5 67
q0 104 125 104q84 0 136 -54.5t52 -144.5q0 -115 -76 -176t-221 -57z" />
    <glyph glyph-name="Lcaron" unicode="&#x13d;" horiz-adv-x="1062" 
d="M780 1356q16 -2 26.5 -16.5t6.5 -30.5l-65 -445q-6 -29 -39 -28l-35 6q-35 0 -31 37l23 448q4 43 43 39zM981 168q16 0 27.5 -11.5t11.5 -25.5v-92q0 -16 -11.5 -27.5t-27.5 -11.5h-774q-16 0 -27.5 11.5t-11.5 27.5v1288q0 39 39 39h104q16 0 26.5 -11.5t10.5 -27.5
v-1141q0 -18 19 -18h614z" />
    <glyph glyph-name="lcaron" unicode="&#x13e;" horiz-adv-x="546" 
d="M190 0q-16 0 -27 11.5t-11 27.5v1440q0 16 12 27.5t26 11.5h103q14 0 25.5 -11.5t11.5 -27.5v-1440q0 -16 -10.5 -27.5t-26.5 -11.5h-103zM590 1505q16 -2 26.5 -16t6.5 -31l-66 -444q-6 -29 -39 -29l-35 6q-35 0 -30 37l22 449q4 43 43 39z" />
    <glyph glyph-name="Lslash" unicode="&#x141;" horiz-adv-x="1083" 
d="M1004 168q16 0 26 -10.5t10 -26.5v-92q0 -16 -10 -27.5t-26 -11.5h-777q-16 0 -26.5 11.5t-10.5 27.5v448q0 35 -30 19l-115 -66q-33 -18 -51 17l-33 57q-16 31 16 49l205 117q8 4 8 14v633q0 16 10.5 27.5t26.5 11.5h105q39 0 39 -39v-502q0 -14 10 -21t25 1l239 133
q35 20 53 -14l33 -60q16 -31 -16 -49l-336 -186q-8 -2 -8 -15v-428q0 -18 18 -18h615z" />
    <glyph glyph-name="lslash" unicode="&#x142;" horiz-adv-x="698" 
d="M741 940q18 -31 -14 -51l-272 -150q-8 -4 -9 -16v-684q0 -39 -38 -39h-103q-16 0 -26.5 11.5t-10.5 27.5v557q0 14 -10 21.5t-25 -1.5l-170 -94q-35 -16 -51 17l-32 57q-16 31 16 49l264 146q8 8 8 16v672q0 16 11.5 27.5t25.5 11.5h103q16 0 27 -11.5t11 -27.5v-543
q0 -14 10.5 -21.5t22.5 0.5l178 97q33 23 52 -15z" />
    <glyph glyph-name="Nacute" unicode="&#x143;" horiz-adv-x="1359" 
d="M926 1843q14 -10 16 -27.5t-10 -29.5l-236 -283q-20 -20 -45 -4l-26 21q-29 18 -11 49l203 305q23 37 57 10zM1155 1366q16 0 26.5 -11.5t10.5 -27.5v-1288q0 -16 -10.5 -27.5t-26.5 -11.5h-115q-23 0 -34 20l-648 994q-6 10 -14 8t-8 -16l2 -967q0 -16 -10.5 -27.5
t-26.5 -11.5h-94q-39 0 -39 39v1288q0 39 39 39h115q23 0 34 -20l645 -990q6 -10 14.5 -8t8.5 14l-2 965q0 16 10 27.5t27 11.5h96z" />
    <glyph glyph-name="nacute" unicode="&#x144;" horiz-adv-x="1179" 
d="M846 1430q14 -10 16 -28t-10 -30l-236 -282q-20 -20 -45 -5l-26 21q-29 18 -10 49l202 305q23 37 58 10zM696 981q346 0 346 -348v-594q0 -39 -38 -39h-103q-16 0 -26.5 11.5t-10.5 27.5v553q0 231 -231 231q-166 0 -287 -127q-8 -12 -8 -18v-639q0 -16 -10.5 -27.5
t-26.5 -11.5h-102q-39 0 -39 39v874q0 16 11 27.5t28 11.5h86q31 0 37 -24v-76q2 -12 8 -14q2 0 4 2q131 141 362 141z" />
    <glyph glyph-name="uni0145" unicode="&#x145;" horiz-adv-x="1359" 
d="M1155 1366q16 0 26.5 -11.5t10.5 -27.5v-1288q0 -16 -10.5 -27.5t-26.5 -11.5h-115q-23 0 -34 20l-648 994q-6 10 -14 8t-8 -16l2 -967q0 -16 -10.5 -27.5t-26.5 -11.5h-94q-39 0 -39 39v1288q0 39 39 39h115q23 0 34 -20l645 -990q6 -10 14.5 -8t8.5 14l-2 965
q0 16 10 27.5t27 11.5h96zM573 -518q-37 0 -36 35l-2 18q0 33 43 37q147 -6 178 106q8 68 -41 84q-2 2 -15 -6q-6 -37 -61 -37q-37 0 -59.5 24t-22.5 67q0 104 125 104q84 0 136 -54.5t52 -144.5q0 -115 -76 -176t-221 -57z" />
    <glyph glyph-name="uni0146" unicode="&#x146;" horiz-adv-x="1179" 
d="M696 981q346 0 346 -348v-594q0 -39 -38 -39h-103q-16 0 -26.5 11.5t-10.5 27.5v553q0 231 -231 231q-166 0 -287 -127q-8 -12 -8 -18v-639q0 -16 -10.5 -27.5t-26.5 -11.5h-102q-39 0 -39 39v874q0 16 11 27.5t28 11.5h86q31 0 37 -24v-76q2 -12 8 -14q2 0 4 2
q131 141 362 141zM483 -518q-37 0 -37 35l-2 18q0 33 43 37q147 -6 179 106q8 68 -41 84q-2 2 -15 -6q-6 -37 -61 -37q-37 0 -59.5 24t-22.5 67q0 104 125 104q84 0 136 -54.5t52 -144.5q0 -115 -76 -176t-221 -57z" />
    <glyph glyph-name="Ncaron" unicode="&#x147;" horiz-adv-x="1359" 
d="M633 1493q-18 0 -29 16l-211 322q-18 31 10 51l27 16q25 18 43 -8l193 -258q16 -18 34 0l189 256q20 25 45 8l27 -18q31 -18 8 -49l-211 -320q-10 -16 -29 -16h-96zM1155 1366q16 0 26.5 -11.5t10.5 -27.5v-1288q0 -16 -10.5 -27.5t-26.5 -11.5h-115q-23 0 -34 20
l-648 994q-6 10 -14 8t-8 -16l2 -967q0 -16 -10.5 -27.5t-26.5 -11.5h-94q-39 0 -39 39v1288q0 39 39 39h115q23 0 34 -20l645 -990q6 -10 14.5 -8t8.5 14l-2 965q0 16 10 27.5t27 11.5h96z" />
    <glyph glyph-name="ncaron" unicode="&#x148;" horiz-adv-x="1179" 
d="M553 1079q-18 0 -29 17l-211 321q-18 31 11 51l26 17q25 18 43 -8l193 -258q16 -18 35 0l188 256q20 25 45 8l27 -19q31 -18 8 -49l-211 -319q-10 -16 -29 -17h-96zM696 981q346 0 346 -348v-594q0 -39 -38 -39h-103q-16 0 -26.5 11.5t-10.5 27.5v553q0 231 -231 231
q-166 0 -287 -127q-8 -12 -8 -18v-639q0 -16 -10.5 -27.5t-26.5 -11.5h-102q-39 0 -39 39v874q0 16 11 27.5t28 11.5h86q31 0 37 -24v-76q2 -12 8 -14q2 0 4 2q131 141 362 141z" />
    <glyph glyph-name="Eng" unicode="&#x14a;" horiz-adv-x="1359" 
d="M772 -399q-188 0 -334 102q-27 20 -12 49l37 70q20 37 59 14q113 -82 236 -82q242 0 262 254l-684 1036l2 -1005q0 -16 -10.5 -27.5t-26.5 -11.5h-94q-39 0 -39 39v1288q0 39 39 39h119q16 0 28 -16l668 -1022l-2 999q0 39 39 39h96q16 0 26.5 -11.5t10.5 -27.5v-1253
q0 -254 -106.5 -363.5t-313.5 -109.5z" />
    <glyph glyph-name="eng" unicode="&#x14b;" horiz-adv-x="1179" 
d="M696 981q346 0 346 -348v-590q0 -246 -112.5 -350.5t-321.5 -114.5q-33 -4 -37 33l-12 78q-4 37 37 41q133 10 200.5 77.5t67.5 223.5v561q0 231 -231 231q-156 0 -264 -112q-31 -23 -31 -52v-620q0 -16 -10.5 -27.5t-26.5 -11.5h-102q-39 0 -39 39v874q0 16 11 27.5
t28 11.5h86q29 0 34 -24l3 -74q2 -25 28 2q133 125 346 125z" />
    <glyph glyph-name="Omacron" unicode="&#x14c;" horiz-adv-x="1404" 
d="M1051 1665q0 -14 -11.5 -25.5t-25.5 -11.5h-621q-16 0 -27.5 10.5t-11.5 26.5v66q0 16 11.5 26t27.5 10h621q14 0 25.5 -11t11.5 -25v-66zM700 -31q-283 0 -437 142.5t-154 433.5v280q0 287 155.5 429.5t435.5 142.5q285 0 441.5 -142.5t156.5 -429.5v-280
q0 -291 -156.5 -433.5t-441.5 -142.5zM700 135q199 0 307.5 101.5t108.5 302.5v290q0 201 -108.5 300.5t-307.5 99.5q-195 0 -302 -99.5t-107 -300.5v-290q0 -201 107 -302.5t302 -101.5z" />
    <glyph glyph-name="omacron" unicode="&#x14d;" horiz-adv-x="1148" 
d="M924 1251q0 -14 -11.5 -25.5t-25.5 -11.5h-621q-16 0 -27.5 10.5t-11.5 26.5v66q0 16 11.5 26.5t27.5 10.5h621q14 0 25.5 -11.5t11.5 -25.5v-66zM573 -31q-211 0 -343 100.5t-132 325.5v162q0 154 69 252t170 135t236 37q100 0 182.5 -21.5t151 -68.5t106.5 -132
t38 -202v-162q0 -225 -133.5 -325.5t-344.5 -100.5zM573 119q127 0 213 65.5t86 216.5v150q0 152 -86 216t-213 64q-125 0 -211 -64.5t-86 -215.5v-150q0 -152 86 -217t211 -65z" />
    <glyph glyph-name="Ohungarumlaut" unicode="&#x150;" horiz-adv-x="1404" 
d="M520 1497l-26 12q-25 14 -19 45l152 351q6 18 20.5 24t30.5 -2l65 -31q39 -20 17 -57l-195 -328q-16 -26 -45 -14zM870 1489q-25 -18 -45 -2l-22 18q-25 16 -4 45l225 310q10 16 26.5 18t30.5 -10l52 -45q31 -31 0 -60zM700 -31q-283 0 -437 142.5t-154 433.5v280
q0 287 155.5 429.5t435.5 142.5q285 0 441.5 -142.5t156.5 -429.5v-280q0 -291 -156.5 -433.5t-441.5 -142.5zM700 135q199 0 307.5 101.5t108.5 302.5v290q0 201 -108.5 300.5t-307.5 99.5q-195 0 -302 -99.5t-107 -300.5v-290q0 -201 107 -302.5t302 -101.5z" />
    <glyph glyph-name="ohungarumlaut" unicode="&#x151;" horiz-adv-x="1148" 
d="M393 1083l-26 13q-25 14 -19 45l152 350q6 18 20.5 24.5t30.5 -2.5l65 -30q39 -20 17 -58l-195 -327q-16 -27 -45 -15zM743 1075q-25 -18 -45 -2l-22 19q-25 16 -4 45l225 309q10 16 26.5 18t30.5 -10l52 -45q31 -31 0 -59zM573 -31q-211 0 -343 100.5t-132 325.5v162
q0 154 69 252t170 135t236 37q100 0 182.5 -21.5t151 -68.5t106.5 -132t38 -202v-162q0 -225 -133.5 -325.5t-344.5 -100.5zM573 119q127 0 213 65.5t86 216.5v150q0 152 -86 216t-213 64q-125 0 -211 -64.5t-86 -215.5v-150q0 -152 86 -217t211 -65z" />
    <glyph glyph-name="OE" unicode="&#x152;" horiz-adv-x="2131" 
d="M2009 168q14 0 25.5 -10.5t11.5 -26.5v-92q0 -16 -10.5 -27.5t-26.5 -11.5h-858q-41 0 -41 41v65q-141 -139 -403 -139q-287 0 -442.5 142.5t-155.5 435.5v280q0 289 156.5 431.5t441.5 142.5q262 0 403 -139v67q0 39 39 39h856q16 0 26.5 -11.5t10.5 -27.5v-92
q0 -16 -11.5 -27.5t-25.5 -11.5h-696q-18 0 -19 -18v-394q0 -18 19 -18h561q16 0 27.5 -11.5t11.5 -27.5v-68q0 -16 -11.5 -27t-27.5 -11h-561q-18 0 -19 -19v-416q0 -18 19 -18h700zM707 133q190 0 296.5 102.5t106.5 303.5v290q0 199 -106.5 300.5t-296.5 101.5
q-199 0 -307.5 -100.5t-108.5 -301.5v-290q0 -203 108.5 -304.5t307.5 -101.5z" />
    <glyph glyph-name="oe" unicode="&#x153;" horiz-adv-x="1847" 
d="M1321 981q442 0 442 -414v-102q0 -39 -39 -39h-655q-18 0 -18 -16v-39q0 -135 79.5 -194.5t202.5 -59.5q197 0 293 104q27 20 49 -2l56 -55q25 -29 4 -49q-131 -145 -408 -146q-254 0 -369 140q-123 -139 -385 -140q-211 0 -343 100.5t-132 325.5v162q0 154 69 252
t170 135t236 37q266 0 385 -139q115 139 363 139zM1585 541v45q0 133 -75.5 190.5t-188.5 57.5q-115 0 -192.5 -58.5t-77.5 -191.5v-39q0 -20 18 -21h500q16 1 16 17zM872 401v150q0 152 -86 216t-213 64q-125 0 -211 -64.5t-86 -215.5v-150q0 -152 86.5 -217t210.5 -65
q127 0 213 65t86 217z" />
    <glyph glyph-name="Racute" unicode="&#x154;" horiz-adv-x="1218" 
d="M852 1843q14 -10 16 -27.5t-10 -29.5l-235 -283q-20 -20 -45 -4l-27 21q-29 18 -10 49l202 305q23 37 58 10zM195 0q-16 0 -26.5 11.5t-10.5 27.5v1288q0 16 10 27.5t27 11.5h507q231 0 340 -101.5t109 -338.5q0 -334 -240 -424q-18 -6 -8 -25l230 -414q12 -23 1.5 -43
t-36.5 -20h-111q-25 0 -33 18l-241 433q-12 14 -23 12q-27 -2 -84 -2h-256q-14 0 -14 -19v-403q0 -16 -11.5 -27.5t-27.5 -11.5h-102zM350 618h322q145 0 222 78t77 230q0 150 -73 212t-216 62h-328q-18 0 -18 -18v-545q0 -19 14 -19z" />
    <glyph glyph-name="racute" unicode="&#x155;" horiz-adv-x="837" 
d="M662 1430q14 -10 16 -28t-10 -30l-236 -282q-20 -20 -45 -5l-27 21q-29 18 -10 49l203 305q23 37 57 10zM801 932q27 -14 12 -49l-49 -80q-16 -29 -51 -15q-59 37 -135 37q-145 0 -232 -141q-8 -10 -8 -25v-620q0 -16 -10.5 -27.5t-26.5 -11.5h-102q-39 0 -39 39v874
q0 16 11 27.5t28 11.5h90q31 0 35 -30l2 -76q4 -25 22 0q106 135 264 135q111 0 189 -49z" />
    <glyph glyph-name="uni0156" unicode="&#x156;" horiz-adv-x="1218" 
d="M195 0q-16 0 -26.5 11.5t-10.5 27.5v1288q0 16 10 27.5t27 11.5h507q231 0 340 -101.5t109 -338.5q0 -334 -240 -424q-18 -6 -8 -25l230 -414q12 -23 1.5 -43t-36.5 -20h-111q-25 0 -33 18l-241 433q-12 14 -23 12q-27 -2 -84 -2h-256q-14 0 -14 -19v-403
q0 -16 -11.5 -27.5t-27.5 -11.5h-102zM350 618h322q145 0 222 78t77 230q0 150 -73 212t-216 62h-328q-18 0 -18 -18v-545q0 -19 14 -19zM500 -518q-37 0 -37 35l-2 18q0 33 43 37q147 -6 178 106q8 68 -41 84q-2 2 -14 -6q-6 -37 -62 -37q-37 0 -59.5 24t-22.5 67
q0 104 125 104q84 0 136.5 -54.5t52.5 -144.5q0 -115 -76 -176t-221 -57z" />
    <glyph glyph-name="uni0157" unicode="&#x157;" horiz-adv-x="837" 
d="M801 932q27 -14 12 -49l-49 -80q-16 -29 -51 -15q-59 37 -135 37q-145 0 -232 -141q-8 -10 -8 -25v-620q0 -16 -10.5 -27.5t-26.5 -11.5h-102q-39 0 -39 39v874q0 16 11 27.5t28 11.5h90q31 0 35 -30l2 -76q4 -25 22 0q106 135 264 135q111 0 189 -49zM150 -518
q-37 0 -37 35l-2 18q0 33 43 37q147 -6 178 106q8 68 -41 84q-2 2 -15 -6q-6 -37 -61 -37q-37 0 -59.5 24t-22.5 67q0 104 125 104q84 0 136 -54.5t52 -144.5q0 -115 -75.5 -176t-220.5 -57z" />
    <glyph glyph-name="Rcaron" unicode="&#x158;" horiz-adv-x="1218" 
d="M559 1493q-18 0 -29 16l-211 322q-18 31 11 51l26 16q25 18 43 -8l193 -258q16 -18 35 0l188 256q20 25 45 8l27 -18q31 -18 8 -49l-211 -320q-10 -16 -29 -16h-96zM195 0q-16 0 -26.5 11.5t-10.5 27.5v1288q0 16 10 27.5t27 11.5h507q231 0 340 -101.5t109 -338.5
q0 -334 -240 -424q-18 -6 -8 -25l230 -414q12 -23 1.5 -43t-36.5 -20h-111q-25 0 -33 18l-241 433q-12 14 -23 12q-27 -2 -84 -2h-256q-14 0 -14 -19v-403q0 -16 -11.5 -27.5t-27.5 -11.5h-102zM350 618h322q145 0 222 78t77 230q0 150 -73 212t-216 62h-328q-18 0 -18 -18
v-545q0 -19 14 -19z" />
    <glyph glyph-name="rcaron" unicode="&#x159;" horiz-adv-x="837" 
d="M369 1079q-18 0 -29 17l-211 321q-18 31 10 51l27 17q25 18 43 -8l192 -258q16 -18 35 0l189 256q20 25 45 8l26 -19q31 -18 9 -49l-211 -319q-10 -16 -29 -17h-96zM801 932q27 -14 12 -49l-49 -80q-16 -29 -51 -15q-59 37 -135 37q-145 0 -232 -141q-8 -10 -8 -25v-620
q0 -16 -10.5 -27.5t-26.5 -11.5h-102q-39 0 -39 39v874q0 16 11 27.5t28 11.5h90q31 0 35 -30l2 -76q4 -25 22 0q106 135 264 135q111 0 189 -49z" />
    <glyph glyph-name="Sacute" unicode="&#x15a;" horiz-adv-x="1193" 
d="M840 1843q14 -10 16 -27.5t-10 -29.5l-236 -283q-20 -20 -45 -4l-26 21q-29 18 -11 49l203 305q23 37 57 10zM612 -31q-197 0 -322.5 56.5t-215.5 189.5q-20 25 2 47l61 70q29 29 60 -2q72 -100 169 -148.5t246 -48.5q139 0 231.5 60.5t92.5 166.5q0 90 -54.5 143.5
t-179.5 88.5l-260 63q-340 92 -340 385q0 170 134.5 263.5t361.5 93.5q158 0 278.5 -49.5t219.5 -173.5q20 -25 0 -50l-64 -69q-25 -25 -53 0q-139 178 -381 178q-315 0 -315 -195q0 -86 56 -140t177 -87l227 -57q184 -43 278.5 -133.5t94.5 -260.5q0 -193 -140.5 -292
t-363.5 -99z" />
    <glyph glyph-name="sacute" unicode="&#x15b;" horiz-adv-x="976" 
d="M733 1430q14 -10 16.5 -28t-10.5 -30l-235 -282q-20 -20 -45 -5l-27 21q-29 18 -10 49l203 305q23 37 57 10zM469 -31q-260 0 -399 152q-29 23 -7 49l35 57q18 27 54 6q106 -129 317 -129q109 0 180.5 36t71.5 114q0 59 -35 93t-111 50l-227 49q-262 57 -262 269
q0 131 106.5 198.5t280.5 67.5q264 0 391 -147q29 -20 6 -52l-36 -55q-20 -27 -54 -4q-106 125 -297 125q-96 0 -162.5 -34t-66.5 -99q0 -104 149 -135l224 -50q131 -27 195.5 -91t64.5 -181q0 -152 -116 -220.5t-302 -68.5z" />
    <glyph glyph-name="Scedilla" unicode="&#x15e;" horiz-adv-x="1193" 
d="M629 -31l-8 -43q-8 -23 14 -24q78 -8 130 -48t52 -110q0 -145 -217 -145q-53 0 -125 10q-31 6 -26 41l4 18q6 37 36 29q41 -10 95 -10q117 0 116 61q0 74 -143 80q-43 8 -37 45l21 98q-164 10 -274.5 66.5t-192.5 177.5q-20 25 2 47l61 70q29 29 60 -2
q72 -100 169 -148.5t246 -48.5q139 0 231.5 60.5t92.5 166.5q0 90 -54.5 143.5t-179.5 88.5l-260 63q-340 92 -340 385q0 170 134.5 263.5t361.5 93.5q158 0 278.5 -49.5t219.5 -173.5q20 -25 0 -50l-64 -69q-25 -25 -53 0q-139 178 -381 178q-315 0 -315 -195
q0 -86 56 -140t177 -87l227 -57q184 -43 278.5 -133.5t94.5 -260.5q0 -188 -136 -287.5t-351 -103.5z" />
    <glyph glyph-name="scedilla" unicode="&#x15f;" horiz-adv-x="976" 
d="M522 -29l-8 -45q-8 -23 14 -24q78 -8 130.5 -48t52.5 -110q0 -145 -217 -145q-53 0 -125 10q-31 6 -27 41l4 18q6 37 37 29q41 -10 94 -10q117 0 117 61q0 74 -143 80q-43 8 -37 45l20 96q-236 10 -364 152q-29 23 -7 49l35 57q18 27 54 6q106 -129 317 -129
q109 0 180.5 36t71.5 114q0 59 -35 93t-111 50l-227 49q-262 57 -262 269q0 131 106.5 198.5t280.5 67.5q264 0 391 -147q29 -20 6 -52l-36 -55q-20 -27 -54 -4q-106 125 -297 125q-96 0 -162.5 -34t-66.5 -99q0 -104 149 -135l224 -50q131 -27 195.5 -91t64.5 -181
q0 -141 -99.5 -210t-265.5 -77z" />
    <glyph glyph-name="Scaron" unicode="&#x160;" horiz-adv-x="1193" 
d="M547 1493q-18 0 -29 16l-211 322q-18 31 10 51l27 16q25 18 43 -8l193 -258q16 -18 34 0l189 256q20 25 45 8l26 -18q31 -18 9 -49l-211 -320q-10 -16 -29 -16h-96zM612 -31q-197 0 -322.5 56.5t-215.5 189.5q-20 25 2 47l61 70q29 29 60 -2q72 -100 169 -148.5
t246 -48.5q139 0 231.5 60.5t92.5 166.5q0 90 -54.5 143.5t-179.5 88.5l-260 63q-340 92 -340 385q0 170 134.5 263.5t361.5 93.5q158 0 278.5 -49.5t219.5 -173.5q20 -25 0 -50l-64 -69q-25 -25 -53 0q-139 178 -381 178q-315 0 -315 -195q0 -86 56 -140t177 -87l227 -57
q184 -43 278.5 -133.5t94.5 -260.5q0 -193 -140.5 -292t-363.5 -99z" />
    <glyph glyph-name="scaron" unicode="&#x161;" horiz-adv-x="976" 
d="M440 1079q-18 0 -28 17l-211 321q-18 31 10 51l27 17q25 18 43 -8l192 -258q16 -18 35 0l188 256q20 25 45 8l27 -19q31 -18 8 -49l-211 -319q-10 -16 -28 -17h-97zM469 -31q-260 0 -399 152q-29 23 -7 49l35 57q18 27 54 6q106 -129 317 -129q109 0 180.5 36t71.5 114
q0 59 -35 93t-111 50l-227 49q-262 57 -262 269q0 131 106.5 198.5t280.5 67.5q264 0 391 -147q29 -20 6 -52l-36 -55q-20 -27 -54 -4q-106 125 -297 125q-96 0 -162.5 -34t-66.5 -99q0 -104 149 -135l224 -50q131 -27 195.5 -91t64.5 -181q0 -152 -116 -220.5t-302 -68.5z
" />
    <glyph glyph-name="uni0162" unicode="&#x162;" horiz-adv-x="1140" 
d="M1049 1366q39 0 38 -39v-90q0 -16 -11 -26.5t-27 -10.5h-369q-18 0 -18 -18v-1143q0 -16 -11.5 -27.5t-27.5 -11.5h-15l-14 -74q-8 -23 14 -24q78 -8 130.5 -48t52.5 -110q0 -145 -218 -145q-53 0 -124 10q-31 6 -27 41l4 18q6 37 37 29q41 -10 94 -10q117 0 117 61
q0 74 -144 80q-43 8 -36 45l26 127h-2q-39 0 -39 39v1143q0 18 -18 18h-371q-16 0 -26.5 10.5t-10.5 26.5v90q0 16 10.5 27.5t26.5 11.5h959z" />
    <glyph glyph-name="uni0163" unicode="&#x163;" horiz-adv-x="954" 
d="M932 90q10 -33 -19 -47q-127 -74 -325 -74h-8l-11 -49q-8 -23 15 -24q78 -8 130 -48.5t52 -109.5q0 -145 -217 -146q-53 0 -125 11q-31 6 -27 41l4 18q6 37 37 29q41 -10 94 -10q117 0 117 61q0 74 -143 80q-43 8 -37 45l25 108q-135 18 -207 107.5t-72 277.5v433
q0 18 -18 18h-72q-16 0 -26.5 11.5t-10.5 27.5v63q0 16 11.5 27.5t25.5 11.5h72q18 0 18 19v172q0 16 11.5 27.5t25.5 11.5h102q16 0 27.5 -11.5t11.5 -27.5v-172q0 -18 19 -19h411q16 0 27.5 -11t11.5 -28v-63q0 -39 -39 -39h-411q-18 0 -19 -18v-418q0 -254 221 -254
q133 0 242 57q39 16 51 -18z" />
    <glyph glyph-name="Tcaron" unicode="&#x164;" horiz-adv-x="1140" 
d="M520 1493q-18 0 -28 16l-211 322q-18 31 10 51l26 16q25 18 43 -8l193 -258q16 -18 35 0l188 256q20 25 45 8l27 -18q31 -18 8 -49l-211 -320q-10 -16 -29 -16h-96zM1049 1366q39 0 38 -39v-90q0 -16 -11 -26.5t-27 -10.5h-369q-18 0 -18 -18v-1143q0 -16 -11.5 -27.5
t-27.5 -11.5h-105q-39 0 -39 39v1143q0 18 -18 18h-371q-16 0 -26.5 10.5t-10.5 26.5v90q0 16 10.5 27.5t26.5 11.5h959z" />
    <glyph glyph-name="tcaron" unicode="&#x165;" horiz-adv-x="954" 
d="M711 1563q16 -2 26.5 -16.5t5.5 -30.5l-65 -445q-6 -29 -39 -29l-35 7q-35 0 -31 36l23 449q4 43 43 39zM932 90q10 -33 -19 -47q-127 -74 -325 -74q-180 0 -276.5 86t-96.5 305v433q0 18 -18 18h-72q-16 0 -26.5 11.5t-10.5 27.5v63q0 16 11.5 27.5t25.5 11.5h72
q18 0 18 19v172q0 16 11.5 27.5t25.5 11.5h102q16 0 27.5 -11.5t11.5 -27.5v-172q0 -18 19 -19h411q16 0 27.5 -11t11.5 -28v-63q0 -39 -39 -39h-411q-18 0 -19 -18v-418q0 -254 221 -254q133 0 242 57q39 16 51 -18z" />
    <glyph glyph-name="Tbar" unicode="&#x166;" horiz-adv-x="1140" 
d="M1049 1366q39 0 38 -39v-90q0 -16 -11 -26.5t-27 -10.5h-369q-18 0 -18 -18v-426h280q16 0 26.5 -11.5t10.5 -25.5v-66q0 -16 -11.5 -27.5t-25.5 -11.5h-280v-575q0 -16 -11.5 -27.5t-27.5 -11.5h-105q-39 0 -39 39v575h-284q-14 0 -26.5 12.5t-12.5 26.5v66
q0 14 11 25.5t28 11.5h284v426q0 18 -18 18h-371q-16 0 -26.5 10.5t-10.5 26.5v90q0 16 10.5 27.5t26.5 11.5h959z" />
    <glyph glyph-name="tbar" unicode="&#x167;" horiz-adv-x="960" 
d="M934 86q14 -35 -10 -45q-143 -72 -336 -72q-180 0 -276.5 86t-96.5 305v80h-88q-16 0 -27.5 10.5t-11.5 26.5v35q0 16 11.5 26.5t27.5 10.5h88v276h-90q-16 0 -26.5 11.5t-10.5 27.5v49q0 16 11.5 27.5t25.5 11.5h90v191q0 16 11.5 27.5t25.5 11.5h102q16 0 27.5 -11.5
t11.5 -27.5v-191h432q14 0 26.5 -11t12.5 -28v-49q0 -16 -11 -27.5t-28 -11.5h-432v-276h410q16 0 26.5 -10.5t10.5 -26.5v-35q0 -14 -10.5 -25.5t-26.5 -11.5h-410v-65q0 -141 60.5 -197.5t167.5 -56.5q133 0 237 53q39 14 51 -18z" />
    <glyph glyph-name="Umacron" unicode="&#x16a;" horiz-adv-x="1323" 
d="M1010 1665q0 -14 -11.5 -25.5t-25.5 -11.5h-621q-16 0 -27.5 10.5t-11.5 26.5v66q0 16 11.5 26t27.5 10h621q14 0 25.5 -11t11.5 -25v-66zM670 -31q-258 0 -398.5 140.5t-140.5 429.5v788q0 39 39 39h102q39 0 39 -39v-795q0 -397 359 -397q342 0 342 397v795q0 39 39 39
h104q16 0 27.5 -11.5t11.5 -27.5v-788q0 -289 -136 -429.5t-388 -140.5z" />
    <glyph glyph-name="umacron" unicode="&#x16b;" horiz-adv-x="1173" 
d="M936 1251q0 -14 -11.5 -25.5t-25.5 -11.5h-620q-16 0 -27.5 10.5t-11.5 26.5v66q0 16 11 26.5t28 10.5h620q14 0 25.5 -11.5t11.5 -25.5v-66zM985 952q14 0 26.5 -11t12.5 -28v-874q0 -16 -11.5 -27.5t-27.5 -11.5h-88q-29 0 -33 20l-4 76q-4 23 -18 8
q-135 -135 -346 -135q-346 0 -346 348v596q0 16 11 27.5t27 11.5h103q14 0 25.5 -11t11.5 -28v-555q0 -229 231 -229q76 0 155 35t122 86q10 10 10 24v639q0 16 11 27.5t26 11.5h102z" />
    <glyph glyph-name="Uring" unicode="&#x16e;" horiz-adv-x="1323" 
d="M661.5 1485q-288.5 0 -288.5 213v35q0 211 288.5 211t288.5 -211v-35q0 -213 -288.5 -213zM662 1585q170 0 169 119v25q0 115 -169 114q-172 0 -173 -114v-25q1 -119 173 -119zM670 -31q-258 0 -398.5 140.5t-140.5 429.5v788q0 39 39 39h102q39 0 39 -39v-795
q0 -397 359 -397q342 0 342 397v795q0 39 39 39h104q16 0 27.5 -11.5t11.5 -27.5v-788q0 -289 -136 -429.5t-388 -140.5z" />
    <glyph glyph-name="uring" unicode="&#x16f;" horiz-adv-x="1173" 
d="M588 1079q-139 0 -214 54.5t-75 158.5v35q0 211 289 211t289 -211v-35q0 -104 -75 -158.5t-214 -54.5zM588 1180q170 0 170 114v31q0 113 -170 113q-172 0 -172 -113v-31q0 -114 172 -114zM985 952q14 0 26.5 -11t12.5 -28v-874q0 -16 -11.5 -27.5t-27.5 -11.5h-88
q-29 0 -33 20l-4 76q-4 23 -18 8q-135 -135 -346 -135q-346 0 -346 348v596q0 16 11 27.5t27 11.5h103q14 0 25.5 -11t11.5 -28v-555q0 -229 231 -229q76 0 155 35t122 86q10 10 10 24v639q0 16 11 27.5t26 11.5h102z" />
    <glyph glyph-name="Uhungarumlaut" unicode="&#x170;" horiz-adv-x="1323" 
d="M479 1497l-26 12q-25 14 -19 45l152 351q6 18 20.5 24t30.5 -2l65 -31q39 -20 17 -57l-195 -328q-16 -26 -45 -14zM829 1489q-25 -18 -45 -2l-22 18q-25 16 -4 45l225 310q10 16 26.5 18t30.5 -10l52 -45q31 -31 0 -60zM670 -31q-258 0 -398.5 140.5t-140.5 429.5v788
q0 39 39 39h102q39 0 39 -39v-795q0 -397 359 -397q342 0 342 397v795q0 39 39 39h104q16 0 27.5 -11.5t11.5 -27.5v-788q0 -289 -136 -429.5t-388 -140.5z" />
    <glyph glyph-name="uhungarumlaut" unicode="&#x171;" horiz-adv-x="1173" 
d="M406 1083l-27 13q-25 14 -19 45l152 350q6 18 20.5 24.5t30.5 -2.5l66 -30q39 -20 16 -58l-194 -327q-16 -27 -45 -15zM756 1075q-25 -18 -45 -2l-23 19q-25 16 -4 45l225 309q10 16 26.5 18t31.5 -10l51 -45q31 -31 0 -59zM985 952q14 0 26.5 -11t12.5 -28v-874
q0 -16 -11.5 -27.5t-27.5 -11.5h-88q-29 0 -33 20l-4 76q-4 23 -18 8q-135 -135 -346 -135q-346 0 -346 348v596q0 16 11 27.5t27 11.5h103q14 0 25.5 -11t11.5 -28v-555q0 -229 231 -229q76 0 155 35t122 86q10 10 10 24v639q0 16 11 27.5t26 11.5h102z" />
    <glyph glyph-name="Uogonek" unicode="&#x172;" horiz-adv-x="1323" 
d="M1155 1366q16 0 27.5 -11.5t11.5 -27.5v-788q0 -455 -342 -547q-90 -53 -131 -97.5t-41 -99.5q0 -63 82 -63q37 0 108 16q27 2 31 -22l2 -43q4 -37 -26 -43q-55 -18 -144 -19q-184 0 -184 141q0 115 139 207h-18q-258 0 -398.5 140.5t-140.5 429.5v788q0 39 39 39h102
q39 0 39 -39v-795q0 -397 359 -397q342 0 342 397v795q0 39 39 39h104z" />
    <glyph glyph-name="uogonek" unicode="&#x173;" horiz-adv-x="1173" 
d="M1038 -283l2 -43q4 -37 -26 -43q-55 -18 -144 -18q-184 0 -184 141q0 74 58.5 138.5t150.5 107.5q-27 0 -31 20l-4 76q-4 23 -18 8q-135 -135 -346 -135q-346 0 -346 348v596q0 16 11 27.5t27 11.5h103q14 0 25.5 -11t11.5 -28v-555q0 -229 231 -229q76 0 155 35t122 86
q10 10 10 24v639q0 16 11 27.5t26 11.5h102q14 0 26.5 -11t12.5 -28v-874q0 -4 -1 -8t-1 -6l20 -11q-121 -70 -173 -118t-52 -109q0 -63 82 -63q37 0 109 16q26 2 30 -23z" />
    <glyph glyph-name="Wcircumflex" unicode="&#x174;" horiz-adv-x="1912" 
d="M709 1499l-27 17q-31 20 -10 51l211 321q10 16 28 17h97q18 0 28 -17l211 -319q23 -31 -8 -49l-27 -17q-25 -18 -45 6l-188 256q-18 23 -35 0l-192 -258q-18 -26 -43 -8zM1792 1366q20 0 30.5 -16.5t4.5 -36.5l-365 -1290q-6 -27 -32 -27h-152q-27 0 -33 27l-282 1017
q-2 8 -6.5 11.5t-9.5 0.5t-7 -10l-303 -1019q-6 -27 -33 -27h-151q-27 0 -33 27l-336 1292q-4 20 6 35.5t31 15.5h112q29 0 35 -29l252 -1040q4 -12 12.5 -12t10.5 12l299 1038q6 27 35 27h153q27 0 33 -29l283 -1034q2 -12 10 -12t10 12l276 1038q8 29 35 29h115z" />
    <glyph glyph-name="wcircumflex" unicode="&#x175;" horiz-adv-x="1611" 
d="M553 1085l-27 17q-31 20 -10 51l211 322q10 16 29 16h96q18 0 29 -16l211 -320q23 -31 -9 -49l-26 -16q-25 -18 -45 6l-189 256q-18 23 -35 0l-192 -258q-18 -27 -43 -9zM373 0q-29 0 -37 29l-287 864q-8 23 4.5 41t34.5 18h123q33 0 37 -34l190 -660q6 -37 12.5 -37
t16.5 39l221 662q10 31 37 30h154q31 0 39 -30l210 -648q12 -51 18.5 -52t16.5 50l201 650q4 31 35 30h121q23 0 36 -17t5 -40l-306 -872q-8 -23 -32 -23h-162q-29 0 -35 27l-213 661q-4 18 -10 24.5t-12.5 -0.5t-10.5 -24l-225 -663q-6 -25 -37 -25h-145z" />
    <glyph glyph-name="Ycircumflex" unicode="&#x176;" horiz-adv-x="1218" 
d="M358 1499l-26 17q-31 20 -10 51l210 321q10 16 29 17h96q18 0 29 -17l211 -319q23 -31 -8 -49l-27 -17q-25 -18 -45 6l-188 256q-18 23 -35 0l-193 -258q-18 -26 -43 -8zM1110 1366q27 0 38 -21.5t-1 -44.5l-438 -761q-4 -16 -4 -23v-477q0 -39 -39 -39h-105
q-16 0 -27.5 11.5t-11.5 27.5l-2 483q0 16 -6 25l-440 751q-14 25 -4 46.5t36 21.5h101q27 0 39 -25l354 -616q14 -20 25 0l348 616q10 25 37 25h100z" />
    <glyph glyph-name="ycircumflex" unicode="&#x177;" horiz-adv-x="1083" 
d="M291 1085l-27 17q-31 20 -10 51l211 322q10 16 29 16h96q18 0 28 -16l211 -320q23 -31 -8 -49l-26 -16q-25 -18 -45 6l-189 256q-18 23 -35 0l-192 -258q-18 -27 -43 -9zM993 952q25 0 37 -19.5t4 -43.5l-555 -1254q-10 -23 -33 -22h-96q-25 0 -36 19.5t-1 43.5l129 285
q4 10 0 19l-393 911q-10 23 2 42t35 19h125q27 0 33 -26l282 -690q4 -14 10.5 -19.5t12.5 0.5t10 23l283 688q10 25 35 24h116z" />
    <glyph glyph-name="Ydieresis" unicode="&#x178;" horiz-adv-x="1218" 
d="M395 1544q-106 0 -106 121q0 115 106 115q109 0 109 -115q0 -121 -109 -121zM823 1544q-106 0 -106 121q0 115 106 115q111 0 111 -115q0 -121 -111 -121zM1110 1366q27 0 38 -21.5t-1 -44.5l-438 -761q-4 -16 -4 -23v-477q0 -39 -39 -39h-105q-16 0 -27.5 11.5
t-11.5 27.5l-2 483q0 16 -6 25l-440 751q-14 25 -4 46.5t36 21.5h101q27 0 39 -25l354 -616q14 -20 25 0l348 616q10 25 37 25h100z" />
    <glyph glyph-name="Zacute" unicode="&#x179;" horiz-adv-x="1128" 
d="M807 1843q14 -10 16 -27.5t-10 -29.5l-235 -283q-20 -20 -46 -4l-26 21q-29 18 -10 49l202 305q23 37 58 10zM1047 166q39 0 38 -39v-88q0 -39 -38 -39h-922q-39 0 -39 39v94q0 12 10 29l709 1016q14 23 -12 22h-707q-16 0 -27.5 10.5t-11.5 26.5v90q0 39 39 39h934
q16 0 27.5 -11.5t11.5 -27.5l-2 -96q0 -16 -8 -27l-707 -1016q-8 -8 -4 -15t14 -7h695z" />
    <glyph glyph-name="zacute" unicode="&#x17a;" horiz-adv-x="919" 
d="M705 1430q14 -10 16 -28t-10 -30l-236 -282q-20 -20 -45 -5l-27 21q-29 18 -10 49l203 305q23 37 57 10zM838 139q16 0 26 -11t10 -28v-61q0 -16 -10 -27.5t-26 -11.5h-715q-16 0 -26.5 11.5t-10.5 27.5v80q0 14 8 24l490 637q8 10 4 21.5t-19 11.5h-460
q-16 0 -27.5 11.5t-11.5 25.5v63q0 16 12 27.5t27 11.5h700q14 0 25.5 -11t11.5 -26v-81q0 -12 -8 -27l-486 -637q-8 -10 -4 -20.5t19 -10.5h471z" />
    <glyph glyph-name="Zdotaccent" unicode="&#x17b;" horiz-adv-x="1128" 
d="M561 1587q-106 0 -106 121q0 117 106 117q111 0 111 -117q0 -121 -111 -121zM1047 166q39 0 38 -39v-88q0 -39 -38 -39h-922q-39 0 -39 39v94q0 12 10 29l709 1016q14 23 -12 22h-707q-16 0 -27.5 10.5t-11.5 26.5v90q0 39 39 39h934q16 0 27.5 -11.5t11.5 -27.5l-2 -96
q0 -16 -8 -27l-707 -1016q-8 -8 -4 -15t14 -7h695z" />
    <glyph glyph-name="zdotaccent" unicode="&#x17c;" horiz-adv-x="919" 
d="M459 1165q-106 0 -107 123q0 115 107 115q111 0 110 -115q0 -59 -29.5 -91t-80.5 -32zM838 139q16 0 26 -11t10 -28v-61q0 -16 -10 -27.5t-26 -11.5h-715q-16 0 -26.5 11.5t-10.5 27.5v80q0 14 8 24l490 637q8 10 4 21.5t-19 11.5h-460q-16 0 -27.5 11.5t-11.5 25.5v63
q0 16 12 27.5t27 11.5h700q14 0 25.5 -11t11.5 -26v-81q0 -12 -8 -27l-486 -637q-8 -10 -4 -20.5t19 -10.5h471z" />
    <glyph glyph-name="Zcaron" unicode="&#x17d;" horiz-adv-x="1128" 
d="M514 1493q-18 0 -29 16l-211 322q-18 31 11 51l26 16q25 18 43 -8l193 -258q16 -18 35 0l188 256q20 25 45 8l27 -18q31 -18 8 -49l-211 -320q-10 -16 -29 -16h-96zM1047 166q39 0 38 -39v-88q0 -39 -38 -39h-922q-39 0 -39 39v94q0 12 10 29l709 1016q14 23 -12 22h-707
q-16 0 -27.5 10.5t-11.5 26.5v90q0 39 39 39h934q16 0 27.5 -11.5t11.5 -27.5l-2 -96q0 -16 -8 -27l-707 -1016q-8 -8 -4 -15t14 -7h695z" />
    <glyph glyph-name="zcaron" unicode="&#x17e;" horiz-adv-x="919" 
d="M412 1079q-18 0 -29 17l-211 321q-18 31 10 51l27 17q25 18 43 -8l192 -258q16 -18 35 0l189 256q20 25 45 8l26 -19q31 -18 9 -49l-211 -319q-10 -16 -29 -17h-96zM838 139q16 0 26 -11t10 -28v-61q0 -16 -10 -27.5t-26 -11.5h-715q-16 0 -26.5 11.5t-10.5 27.5v80
q0 14 8 24l490 637q8 10 4 21.5t-19 11.5h-460q-16 0 -27.5 11.5t-11.5 25.5v63q0 16 12 27.5t27 11.5h700q14 0 25.5 -11t11.5 -26v-81q0 -12 -8 -27l-486 -637q-8 -10 -4 -20.5t19 -10.5h471z" />
    <glyph glyph-name="uni01CD" unicode="&#x1cd;" horiz-adv-x="1253" 
d="M578 1493q-18 0 -29 16l-211 322q-18 31 10 51l27 16q25 18 43 -8l192 -258q16 -18 35 0l189 256q20 25 45 8l26 -18q31 -18 8 -49l-211 -320q-10 -16 -28 -16h-96zM96 0q-23 0 -33 16.5t-2 38.5l439 1286q8 27 35 27h182q27 0 37 -29l438 -1284q6 -23 -3 -39t-32 -16
h-98q-37 0 -45 37l-86 246q-6 14 -21 14h-561q-16 0 -20 -14l-86 -248q-8 -35 -41 -35h-103zM391 449h469q23 0 17 20l-238 690q-4 12 -12.5 12t-12.5 -12l-237 -690q-6 -20 14 -20z" />
    <glyph glyph-name="uni01CE" unicode="&#x1ce;" horiz-adv-x="1056" 
d="M469 1077q-18 0 -29 17l-211 321q-18 31 11 51l26 17q25 18 43 -8l193 -258q16 -18 35 0l188 256q20 25 45 8l27 -19q31 -18 8 -49l-211 -319q-10 -16 -29 -17h-96zM391 -31q-315 0 -315 287q0 145 88 212t266 67h293q27 0 27 20v70q0 209 -263 209q-168 0 -278 -103
q-29 -23 -51 6l-41 58q-27 33 8 55q145 131 389 131q197 0 306.5 -83t109.5 -294v-565q0 -39 -39 -39h-80q-29 0 -35 25l-2 88q-4 23 -18 4q-119 -148 -365 -148zM436 106q209 0 307 152q10 8 11 21v129q0 14 -19 14h-286q-203 0 -203 -156q0 -76 50 -118t140 -42z" />
    <glyph glyph-name="uni01CF" unicode="&#x1cf;" horiz-adv-x="516" 
d="M211 1493q-18 0 -29 16l-211 322q-18 31 11 51l26 16q25 18 43 -8l193 -258q16 -18 35 0l188 256q20 25 45 8l27 -18q31 -18 8 -49l-211 -320q-10 -16 -29 -16h-96zM207 0q-39 0 -39 39v1288q0 39 39 39h104q16 0 26.5 -11.5t10.5 -27.5v-1288q0 -16 -10 -27.5t-27 -11.5
h-104z" />
    <glyph glyph-name="uni01D0" unicode="&#x1d0;" horiz-adv-x="497" 
d="M199 1079q-18 0 -29 17l-211 321q-18 31 10 51l27 17q25 18 43 -8l192 -258q16 -18 35 0l189 256q20 25 45 8l26 -19q31 -18 9 -49l-211 -319q-10 -16 -29 -17h-96zM197 0q-16 0 -26.5 11.5t-10.5 27.5v874q0 16 11 27.5t26 11.5h102q16 0 27.5 -11t11.5 -28v-874
q0 -16 -11.5 -27.5t-27.5 -11.5h-102z" />
    <glyph glyph-name="uni01D1" unicode="&#x1d1;" horiz-adv-x="1404" 
d="M653 1493q-18 0 -28 16l-211 322q-18 31 10 51l27 16q25 18 43 -8l192 -258q16 -18 35 0l188 256q20 25 45 8l27 -18q31 -18 8 -49l-211 -320q-10 -16 -28 -16h-97zM700 -31q-283 0 -437 142.5t-154 433.5v280q0 287 155.5 429.5t435.5 142.5q285 0 441.5 -142.5
t156.5 -429.5v-280q0 -291 -156.5 -433.5t-441.5 -142.5zM700 135q199 0 307.5 101.5t108.5 302.5v290q0 201 -108.5 300.5t-307.5 99.5q-195 0 -302 -99.5t-107 -300.5v-290q0 -201 107 -302.5t302 -101.5z" />
    <glyph glyph-name="uni01D2" unicode="&#x1d2;" horiz-adv-x="1148" 
d="M526 1079q-18 0 -28 17l-211 321q-18 31 10 51l27 17q25 18 43 -8l192 -258q16 -18 35 0l188 256q20 25 45 8l27 -19q31 -18 8 -49l-211 -319q-10 -16 -28 -17h-97zM573 -31q-211 0 -343 100.5t-132 325.5v162q0 154 69 252t170 135t236 37q100 0 182.5 -21.5t151 -68.5
t106.5 -132t38 -202v-162q0 -225 -133.5 -325.5t-344.5 -100.5zM573 119q127 0 213 65.5t86 216.5v150q0 152 -86 216t-213 64q-125 0 -211 -64.5t-86 -215.5v-150q0 -152 86 -217t211 -65z" />
    <glyph glyph-name="uni01D3" unicode="&#x1d3;" horiz-adv-x="1323" 
d="M612 1493q-18 0 -28 16l-211 322q-18 31 10 51l27 16q25 18 43 -8l192 -258q16 -18 35 0l188 256q20 25 45 8l27 -18q31 -18 8 -49l-211 -320q-10 -16 -28 -16h-97zM670 -31q-258 0 -398.5 140.5t-140.5 429.5v788q0 39 39 39h102q39 0 39 -39v-795q0 -397 359 -397
q342 0 342 397v795q0 39 39 39h104q16 0 27.5 -11.5t11.5 -27.5v-788q0 -289 -136 -429.5t-388 -140.5z" />
    <glyph glyph-name="uni01D4" unicode="&#x1d4;" horiz-adv-x="1173" 
d="M539 1079q-18 0 -29 17l-211 321q-18 31 10 51l27 17q25 18 43 -8l192 -258q16 -18 35 0l189 256q20 25 45 8l26 -19q31 -18 8 -49l-210 -319q-10 -16 -29 -17h-96zM985 952q14 0 26.5 -11t12.5 -28v-874q0 -16 -11.5 -27.5t-27.5 -11.5h-88q-29 0 -33 20l-4 76
q-4 23 -18 8q-135 -135 -346 -135q-346 0 -346 348v596q0 16 11 27.5t27 11.5h103q14 0 25.5 -11t11.5 -28v-555q0 -229 231 -229q76 0 155 35t122 86q10 10 10 24v639q0 16 11 27.5t26 11.5h102z" />
    <glyph glyph-name="uni01D5" unicode="&#x1d5;" horiz-adv-x="1323" 
d="M1006 1976q0 -14 -11.5 -25.5t-25.5 -11.5h-621q-16 0 -27.5 10.5t-11.5 26.5v66q0 16 11.5 26.5t27.5 10.5h621q14 0 25.5 -11.5t11.5 -25.5v-66zM449 1481q-106 0 -107 121q0 115 107 114q109 0 108 -114q1 -121 -108 -121zM877 1481q-106 0 -107 121q0 115 107 114
q111 0 110 -114q1 -121 -110 -121zM670 -31q-258 0 -398.5 140.5t-140.5 429.5v788q0 39 39 39h102q39 0 39 -39v-795q0 -397 359 -397q342 0 342 397v795q0 39 39 39h104q16 0 27.5 -11.5t11.5 -27.5v-788q0 -289 -136 -429.5t-388 -140.5z" />
    <glyph glyph-name="uni01D6" unicode="&#x1d6;" horiz-adv-x="1173" 
d="M274 1452q-16 0 -27 10.5t-11 26.5v65q0 16 11 26.5t27 10.5h621q14 0 25.5 -11t11.5 -26v-65q0 -14 -11.5 -25.5t-25.5 -11.5h-621zM590 1294q18 8 49 9q111 0 111 -115q0 -121 -111 -121q-27 0 -51 10q-25 -10 -53 -10q-106 0 -107 121q0 117 107 117q28 -1 55 -11z
M985 952q14 0 26.5 -11t12.5 -28v-874q0 -16 -11.5 -27.5t-27.5 -11.5h-88q-29 0 -33 20l-4 76q-4 23 -18 8q-135 -135 -346 -135q-346 0 -346 348v596q0 16 11 27.5t27 11.5h103q14 0 25.5 -11t11.5 -28v-555q0 -229 231 -229q76 0 155 35t122 86q10 10 10 24v639
q0 16 11 27.5t26 11.5h102z" />
    <glyph glyph-name="uni01D7" unicode="&#x1d7;" horiz-adv-x="1323" 
d="M903 2146q14 -10 16.5 -27.5t-10.5 -29.5l-235 -283q-20 -20 -45 -4l-27 21q-29 18 -10 49l203 305q23 37 57 10zM449 1477q-106 0 -107 120q0 115 107 115q109 0 108 -115q1 -120 -108 -120zM877 1477q-106 0 -107 120q0 115 107 115q111 0 110 -115q1 -120 -110 -120z
M670 -31q-258 0 -398.5 140.5t-140.5 429.5v788q0 39 39 39h102q39 0 39 -39v-795q0 -397 359 -397q342 0 342 397v795q0 39 39 39h104q16 0 27.5 -11.5t11.5 -27.5v-788q0 -289 -136 -429.5t-388 -140.5z" />
    <glyph glyph-name="uni01D8" unicode="&#x1d8;" horiz-adv-x="1173" 
d="M526 1380q-29 18 -10 50l203 305q23 37 57 10l51 -41q14 -10 16.5 -27.5t-9.5 -29.5l-236 -283q-20 -20 -45 -4zM535 1067q-106 0 -107 121q0 117 107 117q29 0 55 -11q18 8 49 9q111 0 111 -115q0 -121 -111 -121q-27 0 -51 10q-24 -10 -53 -10zM985 952q14 0 26.5 -11
t12.5 -28v-874q0 -16 -11.5 -27.5t-27.5 -11.5h-88q-29 0 -33 20l-4 76q-4 23 -18 8q-135 -135 -346 -135q-346 0 -346 348v596q0 16 11 27.5t27 11.5h103q14 0 25.5 -11t11.5 -28v-555q0 -229 231 -229q76 0 155 35t122 86q10 10 10 24v639q0 16 11 27.5t26 11.5h102z" />
    <glyph glyph-name="uni01D9" unicode="&#x1d9;" horiz-adv-x="1323" 
d="M610 1808q-18 0 -28 17l-211 321q-18 31 10 52l27 16q25 18 43 -8l192 -258q16 -18 35 0l188 256q20 25 45 8l27 -19q31 -18 8 -49l-211 -319q-10 -16 -28 -17h-97zM449 1475q-106 0 -107 120q0 115 107 115q109 0 108 -115q1 -120 -108 -120zM877 1475q-106 0 -107 120
q0 115 107 115q111 0 110 -115q1 -120 -110 -120zM670 -31q-258 0 -398.5 140.5t-140.5 429.5v788q0 39 39 39h102q39 0 39 -39v-795q0 -397 359 -397q342 0 342 397v795q0 39 39 39h104q16 0 27.5 -11.5t11.5 -27.5v-788q0 -289 -136 -429.5t-388 -140.5z" />
    <glyph glyph-name="uni01DA" unicode="&#x1da;" horiz-adv-x="1173" 
d="M508 1376l-211 322q-18 31 10 51l27 16q25 18 43 -8l192 -258q16 -18 35 0l189 256q20 25 45 8l26 -18q31 -18 8 -49l-210 -320q-10 -16 -29 -16h-96q-19 0 -29 16zM590 1294q18 8 49 9q111 0 111 -115q0 -121 -111 -121q-27 0 -51 10q-25 -10 -53 -10q-106 0 -107 121
q0 117 107 117q28 -1 55 -11zM985 952q14 0 26.5 -11t12.5 -28v-874q0 -16 -11.5 -27.5t-27.5 -11.5h-88q-29 0 -33 20l-4 76q-4 23 -18 8q-135 -135 -346 -135q-346 0 -346 348v596q0 16 11 27.5t27 11.5h103q14 0 25.5 -11t11.5 -28v-555q0 -229 231 -229q76 0 155 35
t122 86q10 10 10 24v639q0 16 11 27.5t26 11.5h102z" />
    <glyph glyph-name="uni01DB" unicode="&#x1db;" horiz-adv-x="1323" 
d="M717 1796q-27 -18 -47 6l-236 283q-14 12 -12 29.5t16 27.5l54 41q33 27 55 -10l203 -305q18 -29 -7 -49zM449 1477q-106 0 -107 120q0 115 107 115q109 0 108 -115q1 -120 -108 -120zM877 1477q-106 0 -107 120q0 115 107 115q111 0 110 -115q1 -120 -110 -120zM670 -31
q-258 0 -398.5 140.5t-140.5 429.5v788q0 39 39 39h102q39 0 39 -39v-795q0 -397 359 -397q342 0 342 397v795q0 39 39 39h104q16 0 27.5 -11.5t11.5 -27.5v-788q0 -289 -136 -429.5t-388 -140.5z" />
    <glyph glyph-name="uni01DC" unicode="&#x1dc;" horiz-adv-x="1173" 
d="M360 1655q-14 12 -12 29.5t17 27.5l53 41q33 27 55 -10l203 -305q18 -29 -6 -49l-29 -21q-25 -16 -45 4zM590 1296q18 8 49 9q111 0 111 -115q0 -121 -111 -121q-27 0 -51 10q-25 -10 -53 -10q-106 0 -107 121q0 117 107 117q28 -1 55 -11zM985 952q14 0 26.5 -11
t12.5 -28v-874q0 -16 -11.5 -27.5t-27.5 -11.5h-88q-29 0 -33 20l-4 76q-4 23 -18 8q-135 -135 -346 -135q-346 0 -346 348v596q0 16 11 27.5t27 11.5h103q14 0 25.5 -11t11.5 -28v-555q0 -229 231 -229q76 0 155 35t122 86q10 10 10 24v639q0 16 11 27.5t26 11.5h102z" />
    <glyph glyph-name="uni0218" unicode="&#x218;" horiz-adv-x="1193" 
d="M612 -31q-197 0 -322.5 56.5t-215.5 189.5q-20 25 2 47l61 70q29 29 60 -2q72 -100 169 -148.5t246 -48.5q139 0 231.5 60.5t92.5 166.5q0 90 -54.5 143.5t-179.5 88.5l-260 63q-340 92 -340 385q0 170 134.5 263.5t361.5 93.5q158 0 278.5 -49.5t219.5 -173.5
q20 -25 0 -50l-64 -69q-25 -25 -53 0q-139 178 -381 178q-315 0 -315 -195q0 -86 56 -140t177 -87l227 -57q184 -43 278.5 -133.5t94.5 -260.5q0 -193 -140.5 -292t-363.5 -99zM487 -518q-37 0 -36 35l-2 18q0 33 43 37q147 -6 178 106q8 68 -41 84q-2 2 -15 -6
q-6 -37 -61 -37q-37 0 -59.5 24t-22.5 67q0 104 125 104q84 0 136 -54.5t52 -144.5q0 -115 -76 -176t-221 -57z" />
    <glyph glyph-name="uni0219" unicode="&#x219;" horiz-adv-x="976" 
d="M469 -31q-260 0 -399 152q-29 23 -7 49l35 57q18 27 54 6q106 -129 317 -129q109 0 180.5 36t71.5 114q0 59 -35 93t-111 50l-227 49q-262 57 -262 269q0 131 106.5 198.5t280.5 67.5q264 0 391 -147q29 -20 6 -52l-36 -55q-20 -27 -54 -4q-106 125 -297 125
q-96 0 -162.5 -34t-66.5 -99q0 -104 149 -135l224 -50q131 -27 195.5 -91t64.5 -181q0 -152 -116 -220.5t-302 -68.5zM381 -518q-37 0 -37 35l-2 18q0 33 43 37q147 -6 178 106q8 68 -41 84q-2 2 -14 -6q-6 -37 -62 -37q-37 0 -59 24t-22 67q0 104 124 104q84 0 136.5 -54.5
t52.5 -144.5q0 -115 -76 -176t-221 -57z" />
    <glyph glyph-name="uni021A" unicode="&#x21a;" horiz-adv-x="1140" 
d="M1049 1366q39 0 38 -39v-90q0 -16 -11 -26.5t-27 -10.5h-369q-18 0 -18 -18v-1143q0 -16 -11.5 -27.5t-27.5 -11.5h-105q-39 0 -39 39v1143q0 18 -18 18h-371q-16 0 -26.5 10.5t-10.5 26.5v90q0 16 10.5 27.5t26.5 11.5h959zM461 -518q-37 0 -37 35l-2 18q0 33 43 37
q147 -6 178 106q8 68 -41 84q-2 2 -14 -6q-6 -37 -62 -37q-37 0 -59.5 24t-22.5 67q0 104 125 104q84 0 136.5 -54.5t52.5 -144.5q0 -115 -76 -176t-221 -57z" />
    <glyph glyph-name="uni021B" unicode="&#x21b;" horiz-adv-x="954" 
d="M932 90q10 -33 -19 -47q-127 -74 -325 -74q-180 0 -276.5 86t-96.5 305v433q0 18 -18 18h-72q-16 0 -26.5 11.5t-10.5 27.5v63q0 16 11.5 27.5t25.5 11.5h72q18 0 18 19v172q0 16 11.5 27.5t25.5 11.5h102q16 0 27.5 -11.5t11.5 -27.5v-172q0 -18 19 -19h411
q16 0 27.5 -11t11.5 -28v-63q0 -39 -39 -39h-411q-18 0 -19 -18v-418q0 -254 221 -254q133 0 242 57q39 16 51 -18zM436 -524q-37 0 -37 35l-2 18q0 33 43 37q147 -6 178 106q8 68 -40 84q-2 2 -15 -6q-6 -37 -61 -37q-37 0 -59.5 23.5t-22.5 66.5q0 104 125 105
q84 0 136 -54.5t52 -144.5q0 -115 -76 -176t-221 -57z" />
    <glyph glyph-name="gravecomb" unicode="&#x300;" 
d="M-356 1372q-14 12 -12.5 29.5t16.5 28.5l53 40q33 27 55 -10l203 -305q18 -29 -6 -49l-29 -21q-25 -16 -45 5z" />
    <glyph glyph-name="acutecomb" unicode="&#x301;" 
d="M-53 1430q14 -10 16 -28t-10 -30l-236 -282q-20 -20 -45 -5l-26 21q-29 18 -11 49l203 305q23 37 58 10z" />
    <glyph glyph-name="uni0302" unicode="&#x302;" 
d="M-586 1085l-26 17q-31 20 -11 51l211 322q10 16 29 16h96q18 0 29 -16l211 -320q23 -31 -8 -49l-27 -16q-25 -18 -45 6l-188 256q-18 23 -35 0l-193 -258q-18 -27 -43 -9z" />
    <glyph glyph-name="tildecomb" unicode="&#x303;" 
d="M-639 1069q-16 0 -26.5 10.5t-10.5 26.5q-12 354 182 354q37 0 68 -22.5t43 -40t47 -72.5q4 -6 13.5 -22.5t13.5 -22.5t12 -18.5t14.5 -17.5t14.5 -12t16 -9t16 -2q74 0 68 202q6 39 35 39h55q37 0 37 -37q4 -180 -47 -267t-139 -87q-37 0 -68 20.5t-47 43t-41 65.5
q-6 10 -17.5 28.5t-16.5 27t-13 20.5t-15.5 17t-15.5 9.5t-18 4.5q-74 0 -70 -201q-4 -37 -33 -37h-57z" />
    <glyph glyph-name="uni0304" unicode="&#x304;" 
d="M-59 1251q0 -14 -11.5 -25.5t-25.5 -11.5h-621q-16 0 -27.5 10.5t-11.5 26.5v66q0 16 11.5 26.5t27.5 10.5h621q14 0 25.5 -11.5t11.5 -25.5v-66z" />
    <glyph glyph-name="uni0306" unicode="&#x306;" 
d="M-344 1065q-305 0 -315 358q-2 16 10 27.5t28 11.5h74q33 0 37 -39q4 -231 166 -231q158 0 162 231q4 39 39 39h71q39 0 39 -45q-10 -352 -311 -352z" />
    <glyph glyph-name="uni0307" unicode="&#x307;" 
d="M-150 1165q-106 0 -106 123q0 115 106 115q111 0 111 -115q0 -59 -30 -91t-81 -32z" />
    <glyph glyph-name="uni0308" unicode="&#x308;" 
d="M-305 1376q111 0 110 -114q0 -121 -110 -121q-27 0 -51 10q-25 -10 -54 -10q-106 0 -106 121q0 117 106 116q29 0 56 -10q18 8 49 8z" />
    <glyph glyph-name="uni030A" unicode="&#x30a;" 
d="M-321.5 1079q-139.5 0 -214 54.5t-74.5 158.5v35q0 211 288.5 211t288.5 -211v-35q0 -104 -74.5 -158.5t-214 -54.5zM-322 1180q170 0 170 114v31q0 113 -170 113q-172 0 -172 -113v-31q0 -114 172 -114z" />
    <glyph glyph-name="uni030B" unicode="&#x30b;" 
d="M-666 1083l-26 13q-25 14 -19 45l152 350q6 18 20.5 24.5t30.5 -2.5l66 -30q39 -20 16 -58l-195 -327q-16 -27 -45 -15zM-315 1075q-25 -18 -45 -2l-23 19q-25 16 -4 45l225 309q10 16 26.5 18t31.5 -10l51 -45q31 -31 0 -59z" />
    <glyph glyph-name="uni030C" unicode="&#x30c;" 
d="M-383 1079q-18 0 -29 17l-211 321q-18 31 11 51l26 17q25 18 43 -8l193 -258q16 -18 35 0l188 256q20 25 45 8l27 -19q31 -18 8 -49l-211 -319q-10 -16 -29 -17h-96z" />
    <glyph glyph-name="uni0312" unicode="&#x312;" 
d="M-66 1544q37 0 37 -35l2 -18q0 -33 -43 -37q-147 6 -178 -106q-8 -68 41 -84q2 -2 14 6q6 37 62 37q37 0 59.5 -23.5t22.5 -66.5q0 -104 -125 -105q-84 0 -136 54.5t-52 144.5q0 115 75.5 176t220.5 57z" />
    <glyph glyph-name="uni0326" unicode="&#x326;" 
d="M-319 -524q-37 0 -37 35l-2 18q0 33 43 37q147 -6 178 106q8 68 -41 84q-2 2 -15 -6q-6 -37 -61 -37q-37 0 -59.5 23.5t-22.5 66.5q0 104 125 105q84 0 136 -54.5t52 -144.5q0 -115 -75.5 -176t-220.5 -57z" />
    <glyph glyph-name="uni0327" unicode="&#x327;" 
d="M-242 -401q-53 0 -125 10q-31 6 -26 41l4 18q6 37 37 29q41 -10 94 -10q117 0 117 61q0 74 -144 80q-43 8 -37 45l31 141l86 -6l-16 -82q-8 -23 14 -24q78 -8 130 -48t52 -110q0 -145 -217 -145z" />
    <glyph glyph-name="uni0328" unicode="&#x328;" 
d="M-219 -393q-184 0 -184 141q0 94 90 170t215 113l51 -23q-121 -70 -173 -118t-52 -109q0 -63 82 -64q37 0 108 17q27 2 31 -23l2 -43q4 -37 -27 -43q-55 -18 -143 -18z" />
    <glyph glyph-name="uni0335" unicode="&#x335;" 
d="M-55 547q0 -16 -11.5 -27.5t-25.5 -11.5h-748q-16 0 -27.5 12t-11.5 27v65q0 14 11.5 25.5t27.5 11.5h748q14 0 25.5 -11t11.5 -26v-65z" />
    <glyph glyph-name="uni0336" unicode="&#x336;" 
d="M-94 555q0 -16 -11.5 -26.5t-27.5 -10.5h-1268q-16 0 -27.5 10.5t-11.5 26.5v66q0 16 11.5 27t27.5 11h1268q16 0 27.5 -11t11.5 -27v-66z" />
    <glyph glyph-name="uni0337" unicode="&#x337;" 
d="M-59 754q16 -33 -15 -52l-663 -366q-35 -16 -54 14l-30 58q-18 31 14 51l662 366q35 20 53 -14z" />
    <glyph glyph-name="uni0338" unicode="&#x338;" 
 />
    <glyph glyph-name="Wgrave" unicode="&#x1e80;" horiz-adv-x="1912" 
d="M1018 1497q-27 -18 -47 6l-236 283q-14 12 -12 29.5t16 27.5l54 41q33 27 55 -10l203 -305q18 -29 -7 -49zM1792 1366q20 0 30.5 -16.5t4.5 -36.5l-365 -1290q-6 -27 -32 -27h-152q-27 0 -33 27l-282 1017q-2 8 -6.5 11.5t-9.5 0.5t-7 -10l-303 -1019q-6 -27 -33 -27
h-151q-27 0 -33 27l-336 1292q-4 20 6 35.5t31 15.5h112q29 0 35 -29l252 -1040q4 -12 12.5 -12t10.5 12l299 1038q6 27 35 27h153q27 0 33 -29l283 -1034q2 -12 10 -12t10 12l276 1038q8 29 35 29h115z" />
    <glyph glyph-name="wgrave" unicode="&#x1e81;" horiz-adv-x="1611" 
d="M580 1372q-14 12 -12.5 29.5t16.5 28.5l53 40q33 27 55 -10l203 -305q18 -29 -6 -49l-29 -21q-25 -16 -45 5zM373 0q-29 0 -37 29l-287 864q-8 23 4.5 41t34.5 18h123q33 0 37 -34l190 -660q6 -37 12.5 -37t16.5 39l221 662q10 31 37 30h154q31 0 39 -30l210 -648
q12 -51 18.5 -52t16.5 50l201 650q4 31 35 30h121q23 0 36 -17t5 -40l-306 -872q-8 -23 -32 -23h-162q-29 0 -35 27l-213 661q-4 18 -10 24.5t-12.5 -0.5t-10.5 -24l-225 -663q-6 -25 -37 -25h-145z" />
    <glyph glyph-name="Wacute" unicode="&#x1e82;" horiz-adv-x="1912" 
d="M1204 1843q14 -10 16.5 -27.5t-10.5 -29.5l-235 -283q-20 -20 -45 -4l-27 21q-29 18 -10 49l203 305q23 37 57 10zM1792 1366q20 0 30.5 -16.5t4.5 -36.5l-365 -1290q-6 -27 -32 -27h-152q-27 0 -33 27l-282 1017q-2 8 -6.5 11.5t-9.5 0.5t-7 -10l-303 -1019
q-6 -27 -33 -27h-151q-27 0 -33 27l-336 1292q-4 20 6 35.5t31 15.5h112q29 0 35 -29l252 -1040q4 -12 12.5 -12t10.5 12l299 1038q6 27 35 27h153q27 0 33 -29l283 -1034q2 -12 10 -12t10 12l276 1038q8 29 35 29h115z" />
    <glyph glyph-name="wacute" unicode="&#x1e83;" horiz-adv-x="1611" 
d="M1049 1430q14 -10 16 -28t-10 -30l-236 -282q-20 -20 -45 -5l-26 21q-29 18 -11 49l203 305q23 37 57 10zM373 0q-29 0 -37 29l-287 864q-8 23 4.5 41t34.5 18h123q33 0 37 -34l190 -660q6 -37 12.5 -37t16.5 39l221 662q10 31 37 30h154q31 0 39 -30l210 -648
q12 -51 18.5 -52t16.5 50l201 650q4 31 35 30h121q23 0 36 -17t5 -40l-306 -872q-8 -23 -32 -23h-162q-29 0 -35 27l-213 661q-4 18 -10 24.5t-12.5 -0.5t-10.5 -24l-225 -663q-6 -25 -37 -25h-145z" />
    <glyph glyph-name="Wdieresis" unicode="&#x1e84;" horiz-adv-x="1912" 
d="M745 1544q-106 0 -106 121q0 115 106 115q109 0 109 -115q0 -121 -109 -121zM1174 1544q-106 0 -107 121q0 115 107 115q111 0 110 -115q1 -121 -110 -121zM1792 1366q20 0 30.5 -16.5t4.5 -36.5l-365 -1290q-6 -27 -32 -27h-152q-27 0 -33 27l-282 1017q-2 8 -6.5 11.5
t-9.5 0.5t-7 -10l-303 -1019q-6 -27 -33 -27h-151q-27 0 -33 27l-336 1292q-4 20 6 35.5t31 15.5h112q29 0 35 -29l252 -1040q4 -12 12.5 -12t10.5 12l299 1038q6 27 35 27h153q27 0 33 -29l283 -1034q2 -12 10 -12t10 12l276 1038q8 29 35 29h115z" />
    <glyph glyph-name="wdieresis" unicode="&#x1e85;" horiz-adv-x="1611" 
d="M748 1141q-106 0 -107 121q0 117 107 116q29 0 55 -10q18 8 49 8q111 0 111 -114q0 -121 -111 -121q-27 0 -51 10q-24 -10 -53 -10zM1520 952q23 0 36 -17t5 -40l-306 -872q-8 -23 -32 -23h-162q-29 0 -35 27l-213 661q-4 18 -10 24.5t-12.5 -0.5t-10.5 -24l-225 -663
q-6 -25 -37 -25h-145q-29 0 -37 29l-287 864q-8 23 4.5 41t34.5 18h123q33 0 37 -34l190 -660q6 -37 12.5 -37t16.5 39l221 662q10 31 37 30h154q31 0 39 -30l210 -648q12 -51 18.5 -52t16.5 50l201 650q4 31 35 30h121z" />
    <glyph glyph-name="Ygrave" unicode="&#x1ef2;" horiz-adv-x="1218" 
d="M668 1497q-27 -18 -47 6l-236 283q-14 12 -12 29.5t16 27.5l53 41q33 27 56 -10l202 -305q18 -29 -6 -49zM1110 1366q27 0 38 -21.5t-1 -44.5l-438 -761q-4 -16 -4 -23v-477q0 -39 -39 -39h-105q-16 0 -27.5 11.5t-11.5 27.5l-2 483q0 16 -6 25l-440 751q-14 25 -4 46.5
t36 21.5h101q27 0 39 -25l354 -616q14 -20 25 0l348 616q10 25 37 25h100z" />
    <glyph glyph-name="ygrave" unicode="&#x1ef3;" horiz-adv-x="1083" 
d="M317 1372q-14 12 -12 29.5t17 28.5l53 40q33 27 55 -10l203 -305q18 -29 -6 -49l-29 -21q-25 -16 -45 5zM993 952q25 0 37 -19.5t4 -43.5l-555 -1254q-10 -23 -33 -22h-96q-25 0 -36 19.5t-1 43.5l129 285q4 10 0 19l-393 911q-10 23 2 42t35 19h125q27 0 33 -26
l282 -690q4 -14 10.5 -19.5t12.5 0.5t10 23l283 688q10 25 35 24h116z" />
    <glyph glyph-name="endash" unicode="&#x2013;" horiz-adv-x="1150" 
d="M1059 571q0 -16 -10.5 -27.5t-26.5 -11.5h-891q-39 0 -39 39v64q0 39 39 39h891q16 0 26.5 -11.5t10.5 -27.5v-64z" />
    <glyph glyph-name="emdash" unicode="&#x2014;" horiz-adv-x="1468" 
d="M1374 571q0 -16 -10 -27.5t-27 -11.5h-1206q-39 0 -39 39v64q0 39 39 39h1206q16 0 26.5 -11.5t10.5 -27.5v-64z" />
    <glyph glyph-name="quoteleft" unicode="&#x2018;" horiz-adv-x="387" 
d="M211 950q-82 0 -132 63.5t-50 180.5q0 137 74.5 222t205.5 89q35 4 39 -28l4 -31q2 -31 -37 -41q-70 -6 -114.5 -49t-53.5 -113q-2 -68 21 -94q6 -14 16 0q12 29 45 29q47 0 74 -29t27 -78q0 -55 -32 -88t-87 -33z" />
    <glyph glyph-name="quoteright" unicode="&#x2019;" horiz-adv-x="387" 
d="M180 1513q82 0 132 -63.5t50 -179.5q0 -137 -74.5 -222t-205.5 -90q-35 -4 -39 29l-4 31q-2 31 37 41q70 6 115 49t53 113q2 68 -21 94q-6 16 -16 0q-12 -29 -45 -29q-47 0 -74 28.5t-27 78.5q0 55 32 87.5t87 32.5z" />
    <glyph glyph-name="quotesinglbase" unicode="&#x201a;" horiz-adv-x="385" 
d="M37 -354q-16 0 -27.5 12t-9.5 29l6 37q4 33 41 32q90 -4 141.5 35t59.5 113q4 51 -15 90q-4 14 -28 -4q-16 -16 -43 -17q-104 0 -105 123q0 61 34 95t93 34q82 0 132.5 -67.5t50.5 -202.5q0 -325 -330 -309z" />
    <glyph glyph-name="quotedblleft" unicode="&#x201c;" horiz-adv-x="735" 
d="M211 950q-82 0 -132 63.5t-50 180.5q0 137 74.5 222t205.5 89q35 4 39 -28l4 -31q2 -31 -37 -41q-70 -6 -114.5 -49t-53.5 -113q-2 -68 21 -94q6 -14 16 0q12 29 45 29q47 0 74 -29t27 -78q0 -55 -32 -88t-87 -33zM559 950q-82 0 -132 63.5t-50 180.5q0 137 74.5 222
t205.5 89q35 4 39 -28l4 -31q2 -31 -36 -41q-70 -6 -115 -49t-53 -113q-2 -68 20 -94q6 -14 16 0q12 29 46 29q47 0 73.5 -29t26.5 -78q0 -55 -32 -88t-87 -33z" />
    <glyph glyph-name="quotedblright" unicode="&#x201d;" horiz-adv-x="735" 
d="M176 1509q82 0 132 -63.5t50 -179.5q0 -137 -74.5 -222.5t-205.5 -89.5q-35 -4 -39 29l-4 31q-2 31 37 41q70 6 114.5 49t53.5 113q2 68 -21 94q-6 16 -16 0q-12 -29 -45 -29q-47 0 -74 28.5t-27 78.5q0 55 32 87.5t87 32.5zM524 1509q82 0 132.5 -63.5t50.5 -179.5
q0 -137 -75 -222.5t-206 -89.5q-35 -4 -39 29l-4 31q-2 31 37 41q70 6 115 49t53 113q2 68 -21 94q-6 16 -16 0q-12 -29 -45 -29q-47 0 -73.5 28.5t-26.5 78.5q0 55 31.5 87.5t86.5 32.5z" />
    <glyph glyph-name="quotedblbase" unicode="&#x201e;" horiz-adv-x="385" 
d="M184 225q82 0 132.5 -67.5t50.5 -202.5q0 -326 -330 -309q-16 0 -27.5 12t-9.5 29l6 37q4 33 41 32q90 -4 141.5 35t59.5 113q4 51 -15 90q-4 14 -28 -4q-16 -16 -43 -17q-104 0 -105 123q0 61 34 95t93 34z" />
    <glyph glyph-name="dagger" unicode="&#x2020;" horiz-adv-x="1228" 
 />
    <glyph glyph-name="daggerdbl" unicode="&#x2021;" horiz-adv-x="1228" 
 />
    <glyph glyph-name="bullet" unicode="&#x2022;" horiz-adv-x="466" 
d="M231 520q-168 0 -168 180q0 172 168 172q80 0 126 -43t46 -129q0 -88 -45 -134t-127 -46z" />
    <glyph glyph-name="ellipsis" unicode="&#x2026;" horiz-adv-x="1228" 
 />
    <glyph glyph-name="perthousand" unicode="&#x2030;" horiz-adv-x="2252" 
d="M412 778q-137 0 -224.5 61.5t-87.5 196.5v99q0 258 312 258q139 0 226 -60.5t87 -197.5v-99q0 -135 -87 -196.5t-226 -61.5zM242 0q-33 0 -44.5 26.5t9.5 53.5l977 1253q23 33 53 33h78q33 0 44 -26.5t-9 -53.5l-963 -1241q-20 -29 -35.5 -37t-44.5 -8h-65zM412 891
q78 -2 129 34t51 119v84q0 154 -180 154q-76 0 -128.5 -36t-52.5 -118v-84q1 -153 181 -153zM1149 -29q-139 0 -226 60.5t-87 197.5v99q0 258 313 258q139 0 226 -60.5t87 -197.5v-99q0 -135 -87 -196.5t-226 -61.5zM1839 -29q-137 0 -224 60.5t-87 197.5v99q0 258 311 258
q139 0 226 -60.5t87 -197.5v-99q0 -135 -87 -196.5t-226 -61.5zM1149 84q78 -2 129 34t51 120v84q0 154 -180 153.5t-180 -153.5v-84q0 -154 180 -154zM1839 84q78 -2 129 34t51 120v84q0 154 -180 153q-76 0 -128 -36t-52 -117v-84q0 -154 180 -154z" />
    <glyph glyph-name="guilsinglleft" unicode="&#x2039;" horiz-adv-x="612" 
d="M193 481l329 -321q31 -29 2 -58l-43 -41q-25 -25 -49 0l-385 367q-14 12 -14 31v73q0 18 12 31l387 369q25 20 49 0l43 -43q29 -27 0 -55l-331 -326q-16 -13 0 -27z" />
    <glyph glyph-name="guilsinglright" unicode="&#x203a;" horiz-adv-x="610" 
d="M422 481q16 14 0 27l-332 326q-29 29 0 55l43 43q25 20 49 0l387 -369q12 -12 13 -31v-73q0 -18 -15 -31l-385 -367q-25 -25 -49 0l-43 41q-29 29 2 58z" />
    <glyph glyph-name="fraction" unicode="&#x2044;" horiz-adv-x="1228" 
 />
    <glyph glyph-name="Euro" unicode="&#x20ac;" horiz-adv-x="1275" 
d="M690 -31q-240 0 -385 124t-145 382v31q0 18 -19 18h-67q-16 0 -26.5 11.5t-10.5 27.5v29q0 37 29 37h73q16 0 17 18v98q0 18 -17 19h-71q-31 4 -31 37v24q0 16 10 27.5t27 11.5h67q18 0 19 19v26q0 246 151.5 367t401.5 121q354 0 493 -269q23 -31 -8 -53l-72 -55
q-27 -16 -49 8q-94 201 -364 201q-172 0 -272.5 -82t-100.5 -242v-22q0 -18 18 -19h510q16 0 27.5 -11t11.5 -28v-24q0 -14 -11 -25.5t-28 -11.5h-512q-18 0 -18 -19v-98q0 -18 18 -18h512q16 0 27.5 -11.5t11.5 -25.5v-29q0 -16 -11 -27.5t-28 -11.5h-508q-18 0 -18 -18
v-29q0 -170 94 -256t269 -86q150 0 240.5 57.5t141.5 178.5q20 25 46 10l75 -43q29 -16 19 -43q-66 -176 -199 -251t-338 -75z" />
    <glyph glyph-name="trademark" unicode="&#x2122;" horiz-adv-x="2203" 
d="M436 537q-39 0 -39 38v611q0 18 -18 18h-270q-16 0 -27.5 11.5t-11.5 27.5v84q0 16 11 27.5t28 11.5h751q39 0 39 -39v-84q0 -39 -39 -39h-270q-18 0 -19 -18v-611q0 -39 -39 -38h-96zM1063 537q-16 0 -26.5 11t-10.5 27v752q0 16 10.5 27.5t26.5 11.5h131q20 0 31 -16
l268 -473q18 -39 41 0l274 473q10 16 29 16h133q16 0 26.5 -11.5t10.5 -27.5v-752q0 -16 -10 -27t-27 -11h-86q-37 0 -37 38l2 451q0 35 -5 47t-15 3t-27 -38l-217 -368q-10 -16 -31 -17h-84q-23 0 -28 17l-209 362q-18 31 -28.5 40t-15.5 -2t-5 -44l2 -451q0 -39 -39 -38
h-84z" />
    <glyph glyph-name="minus" unicode="&#x2212;" horiz-adv-x="1181" 
d="M1071 616q0 -14 -11 -26t-28 -12h-882q-14 0 -26.5 12t-12.5 26v56q0 16 11 27.5t28 11.5h882q16 0 27.5 -11.5t11.5 -27.5v-56z" />
    <glyph glyph-name="notequal" unicode="&#x2260;" horiz-adv-x="1228" 
 />
    <glyph glyph-name="lessequal" unicode="&#x2264;" horiz-adv-x="1228" 
 />
    <glyph glyph-name="greaterequal" unicode="&#x2265;" horiz-adv-x="1228" 
 />
    <glyph glyph-name="lozenge" unicode="&#x25ca;" horiz-adv-x="1228" 
 />
    <glyph glyph-name="i.locl" horiz-adv-x="497" 
d="M246 1165q-106 0 -107 123q0 115 107 115q111 0 110 -115q0 -59 -29.5 -91t-80.5 -32zM197 0q-16 0 -26.5 11.5t-10.5 27.5v874q0 16 11 27.5t26 11.5h102q16 0 27.5 -11t11.5 -28v-874q0 -16 -11.5 -27.5t-27.5 -11.5h-102z" />
    <glyph glyph-name="A.aalt" horiz-adv-x="1140" 
d="M100 0q-23 0 -35 18.5t-2 38.5l388 967q8 23 30 23h185q23 0 30 -23l381 -967q8 -20 -2 -38.5t-33 -18.5h-102q-25 0 -35 25l-69 176q-4 10 -17 10h-502q-14 0 -16 -10l-70 -176q-10 -25 -32 -25h-99zM375 342h387q10 0 16 9t4 20l-190 477q-20 66 -43 0l-195 -477
q-4 -10 3.5 -19.5t17.5 -9.5z" />
    <glyph glyph-name="Aacute.aalt" horiz-adv-x="1140" 
d="M817 1524q14 -10 16.5 -27.5t-10.5 -30.5l-235 -282q-20 -20 -45 -4l-27 20q-29 18 -10 49l203 305q23 37 57 11zM100 0q-23 0 -35 18.5t-2 38.5l388 967q8 23 30 23h185q23 0 30 -23l381 -967q8 -20 -2 -38.5t-33 -18.5h-102q-25 0 -35 25l-69 176q-4 10 -17 10h-502
q-14 0 -16 -10l-70 -176q-10 -25 -32 -25h-99zM375 342h387q10 0 16 9t4 20l-190 477q-20 66 -43 0l-195 -477q-4 -10 3.5 -19.5t17.5 -9.5z" />
    <glyph glyph-name="Abreve.aalt" horiz-adv-x="1140" 
d="M575 1159q-305 0 -315 359q-2 16 10.5 27t28.5 11h74q33 0 37 -38q4 -231 165 -232q158 0 162 232q4 39 39 38h72q39 0 39 -45q-11 -352 -312 -352zM100 0q-23 0 -35 18.5t-2 38.5l388 967q8 23 30 23h185q23 0 30 -23l381 -967q8 -20 -2 -38.5t-33 -18.5h-102
q-25 0 -35 25l-69 176q-4 10 -17 10h-502q-14 0 -16 -10l-70 -176q-10 -25 -32 -25h-99zM375 342h387q10 0 16 9t4 20l-190 477q-20 66 -43 0l-195 -477q-4 -10 3.5 -19.5t17.5 -9.5z" />
    <glyph glyph-name="Acircumflex.aalt" horiz-adv-x="1140" 
d="M322 1180l-27 16q-31 20 -10 51l211 322q10 16 28 16h97q18 0 28 -16l211 -320q23 -31 -8 -49l-27 -16q-25 -18 -45 6l-188 256q-18 23 -35 0l-192 -258q-18 -26 -43 -8zM100 0q-23 0 -35 18.5t-2 38.5l388 967q8 23 30 23h185q23 0 30 -23l381 -967q8 -20 -2 -38.5
t-33 -18.5h-102q-25 0 -35 25l-69 176q-4 10 -17 10h-502q-14 0 -16 -10l-70 -176q-10 -25 -32 -25h-99zM375 342h387q10 0 16 9t4 20l-190 477q-20 66 -43 0l-195 -477q-4 -10 3.5 -19.5t17.5 -9.5z" />
    <glyph glyph-name="Adieresis.aalt" horiz-adv-x="1140" 
d="M516 1235q-106 0 -106 121q0 117 106 117q29 0 55 -11q18 8 50 8q111 0 110 -114q0 -121 -110 -121q-27 0 -52 10q-24 -10 -53 -10zM1077 57q8 -20 -2 -38.5t-33 -18.5h-102q-25 0 -35 25l-69 176q-4 10 -17 10h-502q-14 0 -16 -10l-70 -176q-10 -25 -32 -25h-99
q-23 0 -35 18.5t-2 38.5l388 967q8 23 30 23h185q23 0 30 -23zM762 342q10 0 16 9t4 20l-190 477q-20 66 -43 0l-195 -477q-4 -10 3.5 -19.5t17.5 -9.5h387z" />
    <glyph glyph-name="Agrave.aalt" horiz-adv-x="1140" 
d="M348 1466q-14 12 -12 29.5t16 28.5l54 41q33 27 55 -11l203 -305q18 -29 -7 -49l-28 -20q-25 -16 -45 4zM100 0q-23 0 -35 18.5t-2 38.5l388 967q8 23 30 23h185q23 0 30 -23l381 -967q8 -20 -2 -38.5t-33 -18.5h-102q-25 0 -35 25l-69 176q-4 10 -17 10h-502
q-14 0 -16 -10l-70 -176q-10 -25 -32 -25h-99zM375 342h387q10 0 16 9t4 20l-190 477q-20 66 -43 0l-195 -477q-4 -10 3.5 -19.5t17.5 -9.5z" />
    <glyph glyph-name="Amacron.aalt" horiz-adv-x="1140" 
d="M922 1346q0 -14 -10.5 -25.5t-26.5 -11.5h-621q-16 0 -27.5 10t-11.5 27v65q0 16 11.5 26.5t27.5 10.5h621q16 0 26.5 -11.5t10.5 -25.5v-65zM100 0q-23 0 -35 18.5t-2 38.5l388 967q8 23 30 23h185q23 0 30 -23l381 -967q8 -20 -2 -38.5t-33 -18.5h-102q-25 0 -35 25
l-69 176q-4 10 -17 10h-502q-14 0 -16 -10l-70 -176q-10 -25 -32 -25h-99zM375 342h387q10 0 16 9t4 20l-190 477q-20 66 -43 0l-195 -477q-4 -10 3.5 -19.5t17.5 -9.5z" />
    <glyph glyph-name="Aogonek.aalt" horiz-adv-x="1140" 
d="M1075 2q-121 -70 -173 -118t-52 -109q0 -63 82 -64q37 0 108 17q27 2 31 -23l2 -43q4 -37 -26 -43q-55 -18 -144 -18q-184 0 -184 141q0 80 66.5 147.5t168.5 110.5h-14q-25 0 -35 25l-69 176q-4 10 -17 10h-502q-14 0 -16 -10l-70 -176q-10 -25 -32 -25h-99
q-23 0 -35 18.5t-2 38.5l388 967q8 23 30 23h185q23 0 30 -23l381 -967q12 -33 -12 -51zM762 342q10 0 16 9t4 20l-190 477q-20 66 -43 0l-195 -477q-4 -10 3.5 -19.5t17.5 -9.5h387z" />
    <glyph glyph-name="Aring.aalt" horiz-adv-x="1140" 
d="M573.5 1174q-139.5 0 -214 54t-74.5 158v35q0 211 288.5 211t288.5 -211v-35q0 -104 -74.5 -158t-214 -54zM573 1274q170 0 170 115v30q0 113 -170 113q-172 0 -172 -113v-30q0 -115 172 -115zM100 0q-23 0 -35 18.5t-2 38.5l388 967q8 23 30 23h185q23 0 30 -23
l381 -967q8 -20 -2 -38.5t-33 -18.5h-102q-25 0 -35 25l-69 176q-4 10 -17 10h-502q-14 0 -16 -10l-70 -176q-10 -25 -32 -25h-99zM375 342h387q10 0 16 9t4 20l-190 477q-20 66 -43 0l-195 -477q-4 -10 3.5 -19.5t17.5 -9.5z" />
    <glyph glyph-name="Atilde.aalt" horiz-adv-x="1140" 
d="M287 1163q-16 0 -26.5 10.5t-10.5 26.5q-12 354 182 354q37 0 67.5 -22.5t43 -39.5t47.5 -73q4 -6 13 -22.5t13.5 -22.5t12.5 -18.5t14 -17.5t14.5 -12t16.5 -9t16 -2q74 0 68 203q6 39 35 38h55q37 0 37 -36q4 -180 -47.5 -267.5t-139.5 -87.5q-37 0 -67.5 20.5t-47 43
t-40.5 65.5q-6 10 -17.5 28.5t-16.5 27t-13.5 20.5t-15.5 17.5t-15 9.5t-19 4q-74 0 -69 -201q-4 -37 -33 -37h-57zM100 0q-23 0 -35 18.5t-2 38.5l388 967q8 23 30 23h185q23 0 30 -23l381 -967q8 -20 -2 -38.5t-33 -18.5h-102q-25 0 -35 25l-69 176q-4 10 -17 10h-502
q-14 0 -16 -10l-70 -176q-10 -25 -32 -25h-99zM375 342h387q10 0 16 9t4 20l-190 477q-20 66 -43 0l-195 -477q-4 -10 3.5 -19.5t17.5 -9.5z" />
    <glyph glyph-name="AE.aalt" horiz-adv-x="1896" 
d="M106 0q-25 0 -35 21.5t5 46.5l573 960q10 16 31 16h1026q14 0 25.5 -10t11.5 -26v-76q0 -16 -10.5 -27.5t-26.5 -11.5l-631 -2q-18 0 -18 -17l16 -260q0 -16 17 -16h503q16 0 26.5 -11.5t10.5 -27.5v-49q0 -16 -11 -27.5t-26 -11.5h-495q-18 0 -19 -16l15 -267
q2 -27 30 -26l586 -2q14 0 25.5 -10.5t11.5 -26.5v-84q0 -16 -10.5 -27.5t-26.5 -11.5h-754q-33 0 -36 37l-11 213q0 18 -18 18h-483q-14 0 -25 -16l-143 -234q-6 -18 -29 -18h-105zM494 393h391q20 0 20 21l-26 460q0 18 -19 19h-102q-8 0 -15 -10l-270 -457
q-6 -12 1.5 -22.5t19.5 -10.5z" />
    <glyph glyph-name="B.aalt" horiz-adv-x="1236" 
d="M223 0q-39 0 -39 39v967q0 16 11.5 26t27.5 10h537q332 0 332 -243q0 -178 -156 -234q-25 -10 2 -20q100 -14 156.5 -79t56.5 -161q0 -305 -420 -305h-508zM379 594h338q88 0 144.5 43t56.5 117q0 137 -193 137h-338q-29 0 -29 -33v-237q1 -27 21 -27zM389 156h352
q233 0 234 170q0 72 -53.5 112.5t-147.5 40.5h-395q-20 0 -21 -24v-265q0 -34 31 -34z" />
    <glyph glyph-name="C.aalt" horiz-adv-x="1208" 
d="M1116 254q23 -23 6 -47q-133 -233 -512 -234q-508 0 -508 445v207q0 446 529 446q350 0 485 -201q23 -25 -4 -51l-59 -59q-27 -23 -54 4q-96 152 -362 151q-356 0 -356 -303v-172q0 -307 358 -307q260 0 365 178q29 29 55 6z" />
    <glyph glyph-name="Cacute.aalt" horiz-adv-x="1208" 
d="M866 1524q14 -10 16.5 -27.5t-10.5 -30.5l-235 -282q-20 -20 -45 -4l-27 20q-29 18 -10 49l203 305q23 37 57 11zM1116 254q23 -23 6 -47q-133 -233 -512 -234q-508 0 -508 445v207q0 446 529 446q350 0 485 -201q23 -25 -4 -51l-59 -59q-27 -23 -54 4q-96 152 -362 151
q-356 0 -356 -303v-172q0 -307 358 -307q260 0 365 178q29 29 55 6z" />
    <glyph glyph-name="Ccaron.aalt" horiz-adv-x="1208" 
d="M573 1174q-18 0 -28 16l-211 321q-18 31 10 52l27 16q25 18 43 -8l192 -258q16 -18 35 0l188 256q20 25 45 8l27 -18q31 -18 8 -50l-211 -319q-10 -16 -28 -16h-97zM1116 254q23 -23 6 -47q-133 -233 -512 -234q-508 0 -508 445v207q0 446 529 446q350 0 485 -201
q23 -25 -4 -51l-59 -59q-27 -23 -54 4q-96 152 -362 151q-356 0 -356 -303v-172q0 -307 358 -307q260 0 365 178q29 29 55 6z" />
    <glyph glyph-name="Ccedilla.aalt" horiz-adv-x="1208" 
d="M1116 254q23 -23 6 -47q-127 -223 -483 -234l-10 -47q-8 -23 14 -24q78 -8 130 -48t52 -110q0 -145 -217 -145q-53 0 -125 10q-31 6 -26 41l4 18q6 37 37 29q41 -10 94 -10q117 0 117 61q0 74 -144 80q-43 8 -37 45l23 102q-449 23 -449 443v207q0 446 529 446
q350 0 485 -201q23 -25 -4 -51l-59 -59q-27 -23 -54 4q-96 152 -362 151q-356 0 -356 -303v-172q0 -307 358 -307q260 0 365 178q29 29 55 6z" />
    <glyph glyph-name="Cdotaccent.aalt" horiz-adv-x="1208" 
d="M621 1260q-106 0 -107 122q0 115 107 115q111 0 110 -115q0 -59 -29.5 -90.5t-80.5 -31.5zM1116 254q23 -23 6 -47q-133 -233 -512 -234q-508 0 -508 445v207q0 446 529 446q350 0 485 -201q23 -25 -4 -51l-59 -59q-27 -23 -54 4q-96 152 -362 151q-356 0 -356 -303v-172
q0 -307 358 -307q260 0 365 178q29 29 55 6z" />
    <glyph glyph-name="D.aalt" horiz-adv-x="1306" 
d="M684 1042q518 0 518 -434v-166q0 -442 -518 -442h-461q-39 0 -39 39v967q0 16 11.5 26t27.5 10h461zM1024 449v157q0 147 -89 214t-276 67h-270q-27 0 -27 -33v-664q0 -31 27 -30h270q188 0 276.5 67.5t88.5 221.5z" />
    <glyph glyph-name="Eth.aalt" horiz-adv-x="1304" 
d="M684 1042q518 0 518 -434v-166q0 -442 -518 -442h-461q-39 0 -39 39v440h-75q-14 0 -25.5 10.5t-11.5 26.5v39q0 16 11 27.5t26 11.5h75v412q0 16 11.5 26t27.5 10h461zM1024 449v157q0 147 -89 214t-276 67h-270q-27 0 -27 -33v-260h302q14 0 25 -11.5t11 -27.5v-39
q0 -16 -10 -26.5t-26 -10.5h-302v-289q0 -31 27 -30h270q188 0 276.5 67.5t88.5 221.5z" />
    <glyph glyph-name="Dcaron.aalt" horiz-adv-x="1306" 
d="M604 1174q-18 0 -29 16l-210 321q-18 31 10 52l26 16q25 18 43 -8l193 -258q16 -18 35 0l188 256q20 25 45 8l27 -18q31 -18 8 -50l-211 -319q-10 -16 -29 -16h-96zM684 1042q518 0 518 -434v-166q0 -442 -518 -442h-461q-39 0 -39 39v967q0 16 11.5 26t27.5 10h461z
M1024 449v157q0 147 -89 214t-276 67h-270q-27 0 -27 -33v-664q0 -31 27 -30h270q188 0 276.5 67.5t88.5 221.5z" />
    <glyph glyph-name="Dcroat.aalt" horiz-adv-x="1304" 
d="M684 1042q518 0 518 -434v-166q0 -442 -518 -442h-461q-39 0 -39 39v440h-75q-14 0 -25.5 10.5t-11.5 26.5v39q0 16 11 27.5t26 11.5h75v412q0 16 11.5 26t27.5 10h461zM1024 449v157q0 147 -89 214t-276 67h-270q-27 0 -27 -33v-260h302q14 0 25 -11.5t11 -27.5v-39
q0 -16 -10 -26.5t-26 -10.5h-302v-289q0 -31 27 -30h270q188 0 276.5 67.5t88.5 221.5z" />
    <glyph glyph-name="E.aalt" horiz-adv-x="1210" 
d="M223 0q-39 0 -39 39v969q0 16 11.5 26t27.5 10h795q16 0 27.5 -10t11.5 -26v-76q0 -39 -39 -39h-631q-23 0 -22 -23v-258q0 -18 18 -18h500q39 0 39 -39v-43q0 -39 -39 -39h-500q-18 0 -18 -18v-273q0 -27 22 -26h635q16 0 26.5 -11.5t10.5 -27.5v-78q0 -16 -10.5 -27.5
t-26.5 -11.5h-799z" />
    <glyph glyph-name="Eacute.aalt" horiz-adv-x="1210" 
d="M877 1522q14 -10 16 -27.5t-10 -30.5l-236 -282q-20 -20 -45 -4l-27 20q-29 18 -10 49l203 305q23 37 57 11zM223 0q-39 0 -39 39v969q0 16 11.5 26t27.5 10h795q16 0 27.5 -10t11.5 -26v-76q0 -39 -39 -39h-631q-23 0 -22 -23v-258q0 -18 18 -18h500q39 0 39 -39v-43
q0 -39 -39 -39h-500q-18 0 -18 -18v-273q0 -27 22 -26h635q16 0 26.5 -11.5t10.5 -27.5v-78q0 -16 -10.5 -27.5t-26.5 -11.5h-799z" />
    <glyph glyph-name="Ecaron.aalt" horiz-adv-x="1210" 
d="M584 1171q-18 0 -29 17l-211 321q-18 31 10 52l27 16q25 18 43 -8l192 -258q16 -18 35 0l189 256q20 25 45 8l26 -19q31 -18 9 -49l-211 -319q-10 -16 -29 -17h-96zM223 0q-39 0 -39 39v969q0 16 11.5 26t27.5 10h795q16 0 27.5 -10t11.5 -26v-76q0 -39 -39 -39h-631
q-23 0 -22 -23v-258q0 -18 18 -18h500q39 0 39 -39v-43q0 -39 -39 -39h-500q-18 0 -18 -18v-273q0 -27 22 -26h635q16 0 26.5 -11.5t10.5 -27.5v-78q0 -16 -10.5 -27.5t-26.5 -11.5h-799z" />
    <glyph glyph-name="Ecircumflex.aalt" horiz-adv-x="1210" 
d="M381 1178l-27 16q-31 20 -10 51l211 322q10 16 29 16h96q18 0 29 -16l211 -320q23 -31 -9 -49l-26 -16q-25 -18 -45 6l-189 256q-18 23 -35 0l-192 -258q-18 -26 -43 -8zM223 0q-39 0 -39 39v969q0 16 11.5 26t27.5 10h795q16 0 27.5 -10t11.5 -26v-76q0 -39 -39 -39
h-631q-23 0 -22 -23v-258q0 -18 18 -18h500q39 0 39 -39v-43q0 -39 -39 -39h-500q-18 0 -18 -18v-273q0 -27 22 -26h635q16 0 26.5 -11.5t10.5 -27.5v-78q0 -16 -10.5 -27.5t-26.5 -11.5h-799z" />
    <glyph glyph-name="Edieresis.aalt" horiz-adv-x="1210" 
d="M575 1233q-106 0 -106 121q0 117 106 116q29 0 56 -10q18 8 49 8q111 0 111 -114q0 -121 -111 -121q-27 0 -51 10q-25 -10 -54 -10zM1022 156q16 0 26.5 -11.5t10.5 -27.5v-78q0 -16 -10.5 -27.5t-26.5 -11.5h-799q-39 0 -39 39v969q0 16 11.5 26t27.5 10h795
q16 0 27.5 -10t11.5 -26v-76q0 -39 -39 -39h-631q-23 0 -22 -23v-258q0 -18 18 -18h500q39 0 39 -39v-43q0 -39 -39 -39h-500q-18 0 -18 -18v-273q0 -27 22 -26h635z" />
    <glyph glyph-name="Edotaccent.aalt" horiz-adv-x="1210" 
d="M631 1257q-106 0 -107 123q0 115 107 115q111 0 110 -115q0 -59 -29.5 -91t-80.5 -32zM223 0q-39 0 -39 39v969q0 16 11.5 26t27.5 10h795q16 0 27.5 -10t11.5 -26v-76q0 -39 -39 -39h-631q-23 0 -22 -23v-258q0 -18 18 -18h500q39 0 39 -39v-43q0 -39 -39 -39h-500
q-18 0 -18 -18v-273q0 -27 22 -26h635q16 0 26.5 -11.5t10.5 -27.5v-78q0 -16 -10.5 -27.5t-26.5 -11.5h-799z" />
    <glyph glyph-name="Egrave.aalt" horiz-adv-x="1210" 
d="M408 1464q-14 12 -12.5 29.5t16.5 28.5l53 41q33 27 55 -11l203 -305q18 -29 -6 -49l-29 -20q-25 -16 -45 4zM223 0q-39 0 -39 39v969q0 16 11.5 26t27.5 10h795q16 0 27.5 -10t11.5 -26v-76q0 -39 -39 -39h-631q-23 0 -22 -23v-258q0 -18 18 -18h500q39 0 39 -39v-43
q0 -39 -39 -39h-500q-18 0 -18 -18v-273q0 -27 22 -26h635q16 0 26.5 -11.5t10.5 -27.5v-78q0 -16 -10.5 -27.5t-26.5 -11.5h-799z" />
    <glyph glyph-name="Emacron.aalt" horiz-adv-x="1210" 
d="M981 1343q0 -16 -11.5 -26t-25.5 -10h-620q-16 0 -27.5 10t-11.5 26v66q0 16 11 26.5t28 10.5h620q14 0 25.5 -10.5t11.5 -26.5v-66zM223 0q-39 0 -39 39v969q0 16 11.5 26t27.5 10h795q16 0 27.5 -10t11.5 -26v-76q0 -39 -39 -39h-631q-23 0 -22 -23v-258q0 -18 18 -18
h500q39 0 39 -39v-43q0 -39 -39 -39h-500q-18 0 -18 -18v-273q0 -27 22 -26h635q16 0 26.5 -11.5t10.5 -27.5v-78q0 -16 -10.5 -27.5t-26.5 -11.5h-799z" />
    <glyph glyph-name="Eogonek.aalt" horiz-adv-x="1210" 
d="M1022 156q16 0 26.5 -11.5t10.5 -27.5v-78q0 -25 -21 -35l2 -2q-121 -70 -173 -118t-52 -109q0 -63 82 -64q37 0 109 17q27 2 30 -23l2 -43q4 -37 -26 -43q-55 -18 -144 -18q-184 0 -184 141q0 80 66.5 147.5t169.5 110.5h-697q-39 0 -39 39v969q0 16 11.5 26t27.5 10
h795q16 0 27.5 -10t11.5 -26v-76q0 -39 -39 -39h-631q-23 0 -22 -23v-258q0 -18 18 -18h500q39 0 39 -39v-43q0 -39 -39 -39h-500q-18 0 -18 -18v-273q0 -27 22 -26h635z" />
    <glyph glyph-name="F.aalt" horiz-adv-x="1097" 
d="M967 1044q16 0 26.5 -10t10.5 -26v-82q0 -16 -10.5 -27.5t-26.5 -11.5h-596q-23 0 -23 -27v-272q0 -18 19 -19h464q16 0 27.5 -11t11.5 -28v-63q0 -16 -11 -27.5t-28 -11.5h-464q-18 0 -19 -18v-371q0 -39 -39 -39h-102q-39 0 -39 39v969q0 16 11 26t28 10h760z" />
    <glyph glyph-name="G.aalt" horiz-adv-x="1267" 
d="M629 -27q-526 0 -527 441v213q0 444 529 444q313 0 475 -162q27 -23 6 -53l-55 -76q-20 -27 -51 -4q-119 139 -369 139q-354 0 -354 -307v-168q0 -164 88 -237.5t268 -73.5q156 0 270 45q29 6 37 17.5t8 44.5v194q0 25 -24 25h-344q-14 0 -24.5 10t-10.5 24v56
q0 37 35 37h510q35 0 34 -37l3 -428q0 -31 -21 -43q-157 -101 -483 -101z" />
    <glyph glyph-name="Gbreve.aalt" horiz-adv-x="1267" 
d="M655 1157q-305 0 -315 359q-2 16 10 27t29 11h74q33 0 36 -38q4 -231 166 -232q158 0 162 232q4 39 39 38h72q39 0 39 -45q-11 -352 -312 -352zM629 -27q-526 0 -527 441v213q0 444 529 444q313 0 475 -162q27 -23 6 -53l-55 -76q-20 -27 -51 -4q-119 139 -369 139
q-354 0 -354 -307v-168q0 -164 88 -237.5t268 -73.5q156 0 270 45q29 6 37 17.5t8 44.5v194q0 25 -24 25h-344q-14 0 -24.5 10t-10.5 24v56q0 37 35 37h510q35 0 34 -37l3 -428q0 -31 -21 -43q-157 -101 -483 -101z" />
    <glyph glyph-name="uni0122.aalt" horiz-adv-x="1267" 
d="M629 -27q-526 0 -527 441v213q0 444 529 444q313 0 475 -162q27 -23 6 -53l-55 -76q-20 -27 -51 -4q-119 139 -369 139q-354 0 -354 -307v-168q0 -164 88 -237.5t268 -73.5q156 0 270 45q29 6 37 17.5t8 44.5v194q0 25 -24 25h-344q-14 0 -24.5 10t-10.5 24v56
q0 37 35 37h510q35 0 34 -37l3 -428q0 -31 -21 -43q-157 -101 -483 -101zM547 -518q-37 0 -37 35l-2 18q0 33 43 37q147 -6 178 106q8 68 -41 84q-2 2 -14 -6q-6 -37 -62 -37q-37 0 -59.5 24t-22.5 67q0 104 125 104q84 0 136.5 -54.5t52.5 -144.5q0 -115 -76 -176t-221 -57
z" />
    <glyph glyph-name="Gdotaccent.aalt" horiz-adv-x="1267" 
d="M651 1257q-106 0 -106 123q0 115 106 115q111 0 111 -115q0 -59 -30 -91t-81 -32zM629 -27q-526 0 -527 441v213q0 444 529 444q313 0 475 -162q27 -23 6 -53l-55 -76q-20 -27 -51 -4q-119 139 -369 139q-354 0 -354 -307v-168q0 -164 88 -237.5t268 -73.5q156 0 270 45
q29 6 37 17.5t8 44.5v194q0 25 -24 25h-344q-14 0 -24.5 10t-10.5 24v56q0 37 35 37h510q35 0 34 -37l3 -428q0 -31 -21 -43q-157 -101 -483 -101z" />
    <glyph glyph-name="H.aalt" horiz-adv-x="1339" 
d="M1116 1042q39 0 39 -38v-965q0 -39 -39 -39h-104q-16 0 -26.5 11.5t-10.5 27.5v391q0 18 -19 19h-573q-18 0 -18 -19v-391q0 -16 -11.5 -27.5t-27.5 -11.5h-103q-39 0 -39 39v965q0 39 39 38h103q16 0 27.5 -11t11.5 -27v-386q0 -18 18 -18h573q18 0 19 18v386
q0 16 10 27t27 11h104z" />
    <glyph glyph-name="Hbar.aalt" horiz-adv-x="1474" 
d="M254 0q-16 0 -26.5 11.5t-10.5 27.5v649q0 18 -18 19h-64q-29 0 -29 30v70q0 31 29 31h64q18 0 18 18v152q0 16 10.5 26t26.5 10h104q14 0 25.5 -10t11.5 -26v-142q0 -18 19 -18h647q18 0 18 18v142q0 16 11.5 26t27.5 10h103q16 0 27.5 -10t11.5 -26v-152q0 -18 18 -18
h63q29 0 29 -31v-70q0 -12 -9 -21t-20 -9h-63q-18 0 -18 -19v-649q0 -39 -39 -39h-103q-39 0 -39 39v313q0 18 -18 19h-647q-18 0 -19 -19v-313q0 -16 -10 -27.5t-27 -11.5h-104zM414 520h647q18 0 18 19v155q0 18 -18 19h-647q-18 0 -19 -19v-155q1 -19 19 -19z" />
    <glyph glyph-name="glyph383" horiz-adv-x="1474" 
d="M254 0q-16 0 -26.5 11.5t-10.5 27.5v649q0 18 -18 19h-58q-29 0 -28 30v70q0 31 28 31h58q18 0 18 18v152q0 16 10.5 26t26.5 10h104q14 0 25.5 -10t11.5 -26v-142q0 -18 19 -18h647q18 0 18 18v142q0 16 11.5 26t27.5 10h103q16 0 27.5 -10t11.5 -26v-152q0 -18 18 -18
h57q29 0 29 -31v-70q0 -12 -9 -21t-22 -9h-55q-18 0 -18 -19v-649q0 -39 -39 -39h-103q-39 0 -39 39v313q0 18 -18 19h-649q-16 0 -17 -17v-315q0 -16 -10 -27.5t-27 -11.5h-104zM412 520h649q18 0 18 19v155q0 18 -18 19h-647q-18 0 -19 -19v-157q1 -17 17 -17z" />
    <glyph glyph-name="I.aalt" horiz-adv-x="546" 
d="M223 0q-39 0 -39 39v969q0 16 11.5 26t27.5 10h103q16 0 27.5 -11t11.5 -25v-969q0 -16 -11.5 -27.5t-27.5 -11.5h-103z" />
    <glyph glyph-name="Iacute.aalt" horiz-adv-x="546" 
d="M518 1520q14 -10 16.5 -27.5t-10.5 -30.5l-235 -282q-20 -20 -45 -4l-27 20q-29 18 -10 49l203 305q23 37 57 11zM223 0q-39 0 -39 39v969q0 16 11.5 26t27.5 10h103q16 0 27.5 -11t11.5 -25v-969q0 -16 -11.5 -27.5t-27.5 -11.5h-103z" />
    <glyph glyph-name="Icircumflex.aalt" horiz-adv-x="546" 
d="M23 1176l-27 16q-31 20 -10 51l211 322q10 16 28 16h97q18 0 28 -16l211 -320q23 -31 -8 -49l-27 -16q-25 -18 -45 6l-188 256q-18 23 -35 0l-192 -258q-18 -26 -43 -8zM223 0q-39 0 -39 39v969q0 16 11.5 26t27.5 10h103q16 0 27.5 -11t11.5 -25v-969q0 -16 -11.5 -27.5
t-27.5 -11.5h-103z" />
    <glyph glyph-name="Idieresis.aalt" horiz-adv-x="546" 
d="M322 1466q111 0 110 -114q0 -121 -110 -121q-27 0 -52 10q-25 -10 -53 -10q-106 0 -106 121q0 117 106 116q29 0 55 -10q19 8 50 8zM326 1044q16 0 27.5 -11t11.5 -25v-969q0 -16 -11.5 -27.5t-27.5 -11.5h-103q-39 0 -39 39v969q0 16 11.5 26t27.5 10h103z" />
    <glyph glyph-name="Idotaccent.aalt" horiz-adv-x="546" 
d="M272 1255q-106 0 -106 123q0 115 106 115q111 0 111 -115q0 -59 -30 -91t-81 -32zM223 0q-39 0 -39 39v969q0 16 11.5 26t27.5 10h103q16 0 27.5 -11t11.5 -25v-969q0 -16 -11.5 -27.5t-27.5 -11.5h-103z" />
    <glyph glyph-name="Igrave.aalt" horiz-adv-x="546" 
d="M49 1462q-14 12 -12 29.5t16 28.5l53 41q33 27 56 -11l203 -305q18 -29 -7 -49l-28 -20q-25 -16 -45 4zM223 0q-39 0 -39 39v969q0 16 11.5 26t27.5 10h103q16 0 27.5 -11t11.5 -25v-969q0 -16 -11.5 -27.5t-27.5 -11.5h-103z" />
    <glyph glyph-name="Imacron.aalt" horiz-adv-x="546" 
d="M623 1341q0 -14 -10.5 -25t-26.5 -11h-621q-16 0 -27.5 10t-11.5 26v66q0 16 11.5 26.5t27.5 10.5h621q16 0 26.5 -11.5t10.5 -25.5v-66zM223 0q-39 0 -39 39v969q0 16 11.5 26t27.5 10h103q16 0 27.5 -11t11.5 -25v-969q0 -16 -11.5 -27.5t-27.5 -11.5h-103z" />
    <glyph glyph-name="Iogonek.aalt" horiz-adv-x="546" 
d="M397 -293l2 -43q4 -37 -26 -43q-55 -18 -144 -18q-184 0 -184 141q0 78 65.5 145.5t165.5 110.5h-53q-39 0 -39 39v969q0 16 11.5 26t27.5 10h103q16 0 27.5 -11t11.5 -25v-969q0 -8 -5 -16l41 -19q-121 -70 -173 -118t-52 -109q0 -63 82 -64q37 0 109 17q26 2 30 -23z
" />
    <glyph glyph-name="J.aalt" horiz-adv-x="1034" 
d="M80 82q-23 16 -8 47l37 72q20 39 57 12q111 -84 262 -84q137 0 207 70.5t70 228.5v580q0 14 11 25t27 11h105q16 0 26.5 -10t10.5 -26v-570q0 -244 -111.5 -353.5t-337.5 -109.5q-223 1 -356 107z" />
    <glyph glyph-name="K.aalt" horiz-adv-x="1261" 
d="M223 0q-39 0 -39 39v969q0 16 11.5 26t27.5 10h103q16 0 27.5 -11t11.5 -25v-424q0 -18 15 -25.5t30 6.5l532 463q18 14 31 14h96q37 0 46 -30.5t-21 -61.5l-338 -297q-8 -8 -2 -22l387 -557q16 -25 5 -49.5t-42 -24.5h-117q-23 0 -29 16l-331 473q-12 25 -33 5
q-23 -18 -98.5 -80t-112.5 -95q-18 -18 -18 -45v-235q0 -16 -11.5 -27.5t-27.5 -11.5h-103z" />
    <glyph glyph-name="uni0136.aalt" horiz-adv-x="1261" 
d="M223 0q-39 0 -39 39v969q0 16 11.5 26t27.5 10h103q16 0 27.5 -11t11.5 -25v-424q0 -18 15 -25.5t30 6.5l532 463q18 14 31 14h96q37 0 46 -30.5t-21 -61.5l-338 -297q-8 -8 -2 -22l387 -557q16 -25 5 -49.5t-42 -24.5h-117q-23 0 -29 16l-331 473q-12 25 -33 5
q-23 -18 -98.5 -80t-112.5 -95q-18 -18 -18 -45v-235q0 -16 -11.5 -27.5t-27.5 -11.5h-103zM520 -518q-37 0 -37 35l-2 18q0 33 43 37q147 -6 178 106q8 68 -40 84q-2 2 -15 -6q-6 -37 -61 -37q-37 0 -59.5 24t-22.5 67q0 104 125 104q84 0 136 -54.5t52 -144.5
q0 -115 -76 -176t-221 -57z" />
    <glyph glyph-name="L.aalt" horiz-adv-x="1013" 
d="M930 160q16 0 27.5 -11.5t11.5 -25.5v-84q0 -16 -11.5 -27.5t-27.5 -11.5h-707q-16 0 -27.5 11.5t-11.5 27.5v967q0 16 11.5 26t27.5 10h103q16 0 27.5 -10t11.5 -26v-801q0 -45 43 -45h522z" />
    <glyph glyph-name="Lacute.aalt" horiz-adv-x="1013" 
d="M522 1520q14 -10 16.5 -27.5t-10.5 -30.5l-235 -282q-20 -20 -45 -4l-27 20q-29 18 -10 49l203 305q23 37 57 11zM930 160q16 0 27.5 -11.5t11.5 -25.5v-84q0 -16 -11.5 -27.5t-27.5 -11.5h-707q-16 0 -27.5 11.5t-11.5 27.5v967q0 16 11.5 26t27.5 10h103q16 0 27.5 -10
t11.5 -26v-801q0 -45 43 -45h522z" />
    <glyph glyph-name="Lcaron.aalt" horiz-adv-x="1013" 
d="M930 160q16 0 27.5 -11.5t11.5 -25.5v-84q0 -16 -11.5 -27.5t-27.5 -11.5h-707q-16 0 -27.5 11.5t-11.5 27.5v967q0 16 11.5 26t27.5 10h103q16 0 27.5 -10t11.5 -26v-801q0 -45 43 -45h522zM752 1042q18 0 29.5 -13t9.5 -32l-29 -413q-4 -35 -37 -35h-37q-14 0 -24.5 11
t-10.5 28l2 416q0 39 39 38h58z" />
    <glyph glyph-name="uni013B.aalt" horiz-adv-x="1013" 
d="M930 160q16 0 27.5 -11.5t11.5 -25.5v-84q0 -16 -11.5 -27.5t-27.5 -11.5h-707q-16 0 -27.5 11.5t-11.5 27.5v967q0 16 11.5 26t27.5 10h103q16 0 27.5 -10t11.5 -26v-801q0 -45 43 -45h522zM483 -518q-37 0 -37 35l-2 18q0 33 43 37q147 -6 179 106q8 68 -41 84
q-2 2 -15 -6q-6 -37 -61 -37q-37 0 -59.5 24t-22.5 67q0 104 125 104q84 0 136 -54.5t52 -144.5q0 -115 -76 -176t-221 -57z" />
    <glyph glyph-name="Lslash.aalt" horiz-adv-x="1013" 
d="M930 160q16 0 27.5 -11.5t11.5 -25.5v-84q0 -16 -11.5 -27.5t-27.5 -11.5h-707q-16 0 -27.5 11.5t-11.5 27.5v379l-116 -64q-35 -16 -54 15l-30 57q-18 31 14 51l186 103v426q0 16 11.5 26t27.5 10h103q16 0 27.5 -10t11.5 -26v-326l294 164q35 20 54 -15l32 -57
q16 -33 -14 -51l-366 -203v-313q0 -45 43 -45h522z" />
    <glyph glyph-name="M.aalt" horiz-adv-x="1603" 
d="M1382 1042q14 0 25.5 -11t11.5 -25v-967q0 -16 -10 -27.5t-27 -11.5h-94q-37 0 -37 39v604q0 43 -6 57.5t-18.5 3t-32.5 -46.5l-326 -538q-8 -14 -28 -15h-84q-20 0 -29 15l-321 547q-53 86 -54 -15l2 -612q0 -39 -39 -39h-92q-39 0 -39 39v967q0 16 11.5 26t27.5 10h123
q20 0 29 -14l411 -692q14 -20 27 0l416 692q8 14 28 14h125z" />
    <glyph glyph-name="N.aalt" horiz-adv-x="1357" 
d="M1137 1044q16 0 26.5 -11t10.5 -27v-967q0 -16 -10.5 -27.5t-26.5 -11.5h-121q-18 0 -27 10l-588 709q-29 39 -40 36t-11 -55l2 -661q0 -39 -39 -39h-90q-39 0 -39 39v967q0 39 39 38h119q16 0 25 -10l589 -706q20 -25 30.5 -31t16 5t5.5 44l-2 660q0 16 10 27t26 11h95z
" />
    <glyph glyph-name="Nacute.aalt" horiz-adv-x="1357" 
d="M909 1524q14 -10 16.5 -27.5t-10.5 -30.5l-235 -282q-20 -20 -45 -4l-27 20q-29 18 -10 49l203 305q23 37 57 11zM1137 1044q16 0 26.5 -11t10.5 -27v-967q0 -16 -10.5 -27.5t-26.5 -11.5h-121q-18 0 -27 10l-588 709q-29 39 -40 36t-11 -55l2 -661q0 -39 -39 -39h-90
q-39 0 -39 39v967q0 39 39 38h119q16 0 25 -10l589 -706q20 -25 30.5 -31t16 5t5.5 44l-2 660q0 16 10 27t26 11h95z" />
    <glyph glyph-name="Ncaron.aalt" horiz-adv-x="1357" 
d="M616 1174q-18 0 -28 16l-211 321q-18 31 10 52l27 16q25 18 43 -8l192 -258q16 -18 35 0l188 256q20 25 46 8l26 -18q31 -18 8 -50l-211 -319q-10 -16 -28 -16h-97zM1137 1044q16 0 26.5 -11t10.5 -27v-967q0 -16 -10.5 -27.5t-26.5 -11.5h-121q-18 0 -27 10l-588 709
q-29 39 -40 36t-11 -55l2 -661q0 -39 -39 -39h-90q-39 0 -39 39v967q0 39 39 38h119q16 0 25 -10l589 -706q20 -25 30.5 -31t16 5t5.5 44l-2 660q0 16 10 27t26 11h95z" />
    <glyph glyph-name="uni0145.aalt" horiz-adv-x="1357" 
d="M1137 1044q16 0 26.5 -11t10.5 -27v-967q0 -16 -10.5 -27.5t-26.5 -11.5h-121q-18 0 -27 10l-588 709q-29 39 -40 36t-11 -55l2 -661q0 -39 -39 -39h-90q-39 0 -39 39v967q0 39 39 38h119q16 0 25 -10l589 -706q20 -25 30.5 -31t16 5t5.5 44l-2 660q0 16 10 27t26 11h95z
M557 -518q-37 0 -37 35l-2 18q0 33 43 37q147 -6 178 106q8 68 -41 84q-2 2 -14 -6q-6 -37 -61 -37q-37 0 -59.5 24t-22.5 67q0 104 125 104q84 0 136 -54.5t52 -144.5q0 -115 -76 -176t-221 -57z" />
    <glyph glyph-name="Eng.aalt" horiz-adv-x="1431" 
d="M825 -311q-182 0 -311 71q-37 14 -18 52l32 69q14 31 50 17q106 -59 231 -60q213 0 233 166q8 10 -2 21l-618 698q-16 16 -32.5 9t-16.5 -27l2 -666q0 -39 -39 -39h-94q-16 0 -27.5 11.5t-11.5 27.5v969q0 14 11 25t28 11h125q14 0 22 -10l623 -700q12 -16 29.5 -10
t17.5 28l-2 656q0 16 11 26t28 10h94q16 0 27.5 -11t11.5 -25v-914q-1 -405 -404 -405z" />
    <glyph glyph-name="Ntilde.aalt" horiz-adv-x="1357" 
d="M379 1163q-14 0 -25.5 10.5t-11.5 26.5q-12 354 182 354q37 0 68 -22.5t43 -39.5t47 -73q4 -6 13.5 -22.5t13.5 -22.5t12 -18.5t14 -17.5t14.5 -12t16.5 -9t16 -2q74 0 68 203q6 39 35 38h55q37 0 37 -36q4 -180 -47 -267.5t-139 -87.5q-37 0 -68 20.5t-47.5 43
t-40.5 65.5q-6 10 -17.5 28.5t-16.5 27t-13 20.5t-15.5 17.5t-15.5 9.5t-18 4q-74 0 -70 -201q-4 -37 -33 -37h-57zM1137 1044q16 0 26.5 -11t10.5 -27v-967q0 -16 -10.5 -27.5t-26.5 -11.5h-121q-18 0 -27 10l-588 709q-29 39 -40 36t-11 -55l2 -661q0 -39 -39 -39h-90
q-39 0 -39 39v967q0 39 39 38h119q16 0 25 -10l589 -706q20 -25 30.5 -31t16 5t5.5 44l-2 660q0 16 10 27t26 11h95z" />
    <glyph glyph-name="O.aalt" horiz-adv-x="1302" 
d="M649 -25q-264 0 -405.5 113t-141.5 338v195q0 451 547 450q266 0 408.5 -112.5t142.5 -337.5v-195q0 -223 -142.5 -337t-408.5 -114zM649 135q369 0 369 303v172q0 301 -369 301q-365 0 -364 -301v-172q-1 -303 364 -303z" />
    <glyph glyph-name="Oacute.aalt" horiz-adv-x="1302" 
d="M895 1524q14 -10 16 -27.5t-10 -30.5l-235 -282q-20 -20 -45 -4l-27 20q-29 18 -10 49l202 305q23 37 58 11zM649 -25q-264 0 -405.5 113t-141.5 338v195q0 451 547 450q266 0 408.5 -112.5t142.5 -337.5v-195q0 -223 -142.5 -337t-408.5 -114zM649 135q369 0 369 303
v172q0 301 -369 301q-365 0 -364 -301v-172q-1 -303 364 -303z" />
    <glyph glyph-name="Ocircumflex.aalt" horiz-adv-x="1302" 
d="M399 1180l-26 16q-31 20 -11 51l211 322q10 16 29 16h96q18 0 29 -16l211 -320q23 -31 -8 -49l-27 -16q-25 -18 -45 6l-188 256q-18 23 -35 0l-193 -258q-18 -26 -43 -8zM649 -25q-264 0 -405.5 113t-141.5 338v195q0 451 547 450q266 0 408.5 -112.5t142.5 -337.5v-195
q0 -223 -142.5 -337t-408.5 -114zM649 135q369 0 369 303v172q0 301 -369 301q-365 0 -364 -301v-172q-1 -303 364 -303z" />
    <glyph glyph-name="Odieresis.aalt" horiz-adv-x="1302" 
d="M594 1235q-106 0 -107 121q0 117 107 117q29 0 55 -11q18 8 49 8q111 0 111 -114q0 -121 -111 -121q-27 0 -51 10q-24 -10 -53 -10zM649 1071q266 0 408.5 -112.5t142.5 -337.5v-195q0 -223 -142.5 -337t-408.5 -114q-264 0 -405.5 113t-141.5 338v195q0 450 547 450z
M1018 438v172q0 301 -369 301q-365 0 -364 -301v-172q0 -303 364 -303q369 0 369 303z" />
    <glyph glyph-name="Ograve.aalt" horiz-adv-x="1302" 
d="M426 1466q-14 12 -12 29.5t16 28.5l53 41q33 27 56 -11l202 -305q18 -29 -6 -49l-28 -20q-25 -16 -45 4zM649 -25q-264 0 -405.5 113t-141.5 338v195q0 451 547 450q266 0 408.5 -112.5t142.5 -337.5v-195q0 -223 -142.5 -337t-408.5 -114zM649 135q369 0 369 303v172
q0 301 -369 301q-365 0 -364 -301v-172q-1 -303 364 -303z" />
    <glyph glyph-name="Ohungarumlaut.aalt" horiz-adv-x="1302" 
d="M469 1178l-27 12q-25 14 -18 45l151 350q6 18 20.5 24.5t31.5 -1.5l65 -31q39 -20 17 -57l-195 -328q-16 -26 -45 -14zM819 1169q-25 -18 -45 -2l-22 19q-25 16 -4 45l225 309q10 16 26.5 18.5t30.5 -10.5l51 -45q31 -31 0 -59zM649 -25q-264 0 -405.5 113t-141.5 338
v195q0 451 547 450q266 0 408.5 -112.5t142.5 -337.5v-195q0 -223 -142.5 -337t-408.5 -114zM649 135q369 0 369 303v172q0 301 -369 301q-365 0 -364 -301v-172q-1 -303 364 -303z" />
    <glyph glyph-name="Omacron.aalt" horiz-adv-x="1302" 
d="M999 1346q0 -14 -10 -25.5t-26 -11.5h-621q-16 0 -27.5 10t-11.5 27v65q0 16 11.5 26.5t27.5 10.5h621q16 0 26 -11.5t10 -25.5v-65zM649 -25q-264 0 -405.5 113t-141.5 338v195q0 451 547 450q266 0 408.5 -112.5t142.5 -337.5v-195q0 -223 -142.5 -337t-408.5 -114z
M649 135q369 0 369 303v172q0 301 -369 301q-365 0 -364 -301v-172q-1 -303 364 -303z" />
    <glyph glyph-name="Oslash.aalt" horiz-adv-x="1320" 
d="M1231 1004q33 -29 2 -60l-84 -78q61 -98 61 -245v-195q0 -223 -142 -337t-409 -114q-227 0 -364 84l-86 -79q-20 -20 -49 0l-70 61q-31 31 0 59l84 80q-61 98 -61 246v195q0 451 546 450q233 0 373 -86l80 76q23 23 49 2zM295 438q0 -74 20 -127l584 551q-88 49 -240 49
q-365 0 -364 -301v-172zM1028 610q0 70 -18 123l-584 -549q90 -49 233 -49q369 0 369 303v172z" />
    <glyph glyph-name="Otilde.aalt" horiz-adv-x="1302" 
d="M365 1163q-16 0 -26.5 10.5t-10.5 26.5q-12 354 182 354q37 0 67.5 -22.5t43 -39.5t47.5 -73q4 -6 13 -22.5t13 -22.5t12.5 -18.5t14.5 -17.5t14 -12t16.5 -9t16.5 -2q74 0 68 203q6 39 34 38h56q37 0 37 -36q4 -180 -47.5 -267.5t-139.5 -87.5q-37 0 -67.5 20.5t-47 43
t-40.5 65.5q-6 10 -17.5 28.5t-16.5 27t-13.5 20.5t-15.5 17.5t-15 9.5t-19 4q-74 0 -69 -201q-4 -37 -33 -37h-57zM649 -25q-264 0 -405.5 113t-141.5 338v195q0 451 547 450q266 0 408.5 -112.5t142.5 -337.5v-195q0 -223 -142.5 -337t-408.5 -114zM649 135q369 0 369 303
v172q0 301 -369 301q-365 0 -364 -301v-172q-1 -303 364 -303z" />
    <glyph glyph-name="OE.aalt" horiz-adv-x="2115" 
d="M649 -29q-252 0 -399.5 115t-147.5 352v168q0 465 582 465q256 0 365 -115q12 -12 20 -19t15.5 -8t10.5 5t3 20l2 76q10 12 37 12h786q39 0 39 -38v-74q0 -16 -11.5 -26.5t-27.5 -10.5h-635q-23 0 -22 -25v-256q0 -18 18 -18h506q16 0 27.5 -11.5t11.5 -27.5v-43
q0 -16 -11.5 -27.5t-27.5 -11.5h-506q-18 0 -18 -18v-269q0 -31 22 -30h639q16 0 27.5 -11.5t11.5 -27.5v-78q0 -16 -11 -27.5t-28 -11.5h-799q-18 0 -26 14l-2 97q-4 23 -23 2q-8 -8 -22 -25q-125 -117 -406 -117zM686 135q156 0 257 58.5t128 162.5q14 16 14 50v235
q0 29 -8 43q-59 225 -387 225q-406 0 -405 -311v-149q0 -314 401 -314z" />
    <glyph glyph-name="P.aalt" horiz-adv-x="1171" 
d="M223 0q-39 0 -39 39v967q0 16 11.5 26t27.5 10h482q193 0 289 -81.5t96 -278.5q0 -387 -400 -387h-309q-18 0 -19 -23v-233q0 -39 -38 -39h-101zM383 438h303q227 0 227 240q0 115 -56 163t-171 48h-299q-25 0 -25 -27v-401q1 -23 21 -23z" />
    <glyph glyph-name="Thorn.aalt" horiz-adv-x="1243" 
d="M207 0q-39 0 -39 39v969q0 16 11 26t28 10h102q14 0 25.5 -10t11.5 -26v-84q0 -18 19 -19h342q223 0 328.5 -82t105.5 -266q0 -365 -434 -367h-338q-23 0 -23 -22v-129q0 -16 -10 -27.5t-27 -11.5h-102zM367 344h329q262 0 262 215q0 104 -64.5 147.5t-197.5 43.5h-331
q-18 0 -19 -19v-366q1 -21 21 -21z" />
    <glyph glyph-name="Q.aalt" horiz-adv-x="1302" 
d="M649 1071q266 0 408.5 -112.5t142.5 -337.5v-195q0 -334 -311 -420l172 -104q37 -31 8 -60l-45 -51q-20 -25 -47 -6l-305 190h-23q-264 0 -405.5 113t-141.5 338v195q0 450 547 450zM1018 438v172q0 301 -369 301q-365 0 -364 -301v-172q0 -303 364 -303q369 0 369 303z
" />
    <glyph glyph-name="R.aalt" horiz-adv-x="1236" 
d="M223 0q-39 0 -39 39v969q0 16 11.5 26t27.5 10h477q201 0 300.5 -79.5t99.5 -262.5q0 -248 -197 -321q-25 -10 -12 -31l186 -276q16 -25 4 -49.5t-43 -24.5h-102q-18 0 -29 16l-205 308q-10 16 -32 16h-289q-23 0 -23 -29v-272q0 -16 -10 -27.5t-26 -11.5h-99zM383 471
h285q123 0 189.5 56.5t66.5 164.5q0 106 -61.5 151.5t-182.5 45.5h-293q-29 0 -29 -29v-366q0 -23 25 -23z" />
    <glyph glyph-name="Racute.aalt" horiz-adv-x="1236" 
d="M854 1524q14 -10 16 -27.5t-10 -30.5l-235 -282q-20 -20 -45 -4l-27 20q-29 18 -10 49l202 305q23 37 58 11zM223 0q-39 0 -39 39v969q0 16 11.5 26t27.5 10h477q201 0 300.5 -79.5t99.5 -262.5q0 -248 -197 -321q-25 -10 -12 -31l186 -276q16 -25 4 -49.5t-43 -24.5
h-102q-18 0 -29 16l-205 308q-10 16 -32 16h-289q-23 0 -23 -29v-272q0 -16 -10 -27.5t-26 -11.5h-99zM383 471h285q123 0 189.5 56.5t66.5 164.5q0 106 -61.5 151.5t-182.5 45.5h-293q-29 0 -29 -29v-366q0 -23 25 -23z" />
    <glyph glyph-name="Rcaron.aalt" horiz-adv-x="1236" 
d="M561 1174q-18 0 -29 16l-210 321q-18 31 10 52l26 16q25 18 43 -8l193 -258q16 -18 35 0l188 256q20 25 45 8l27 -18q31 -18 8 -50l-211 -319q-10 -16 -29 -16h-96zM223 0q-39 0 -39 39v969q0 16 11.5 26t27.5 10h477q201 0 300.5 -79.5t99.5 -262.5q0 -248 -197 -321
q-25 -10 -12 -31l186 -276q16 -25 4 -49.5t-43 -24.5h-102q-18 0 -29 16l-205 308q-10 16 -32 16h-289q-23 0 -23 -29v-272q0 -16 -10 -27.5t-26 -11.5h-99zM383 471h285q123 0 189.5 56.5t66.5 164.5q0 106 -61.5 151.5t-182.5 45.5h-293q-29 0 -29 -29v-366q0 -23 25 -23z
" />
    <glyph glyph-name="uni0156.aalt" horiz-adv-x="1236" 
d="M223 0q-39 0 -39 39v969q0 16 11.5 26t27.5 10h477q201 0 300.5 -79.5t99.5 -262.5q0 -248 -197 -321q-25 -10 -12 -31l186 -276q16 -25 4 -49.5t-43 -24.5h-102q-18 0 -29 16l-205 308q-10 16 -32 16h-289q-23 0 -23 -29v-272q0 -16 -10 -27.5t-26 -11.5h-99zM383 471
h285q123 0 189.5 56.5t66.5 164.5q0 106 -61.5 151.5t-182.5 45.5h-293q-29 0 -29 -29v-366q0 -23 25 -23zM502 -518q-37 0 -37 35l-2 18q0 33 43 37q147 -6 178 106q8 68 -41 84q-2 2 -14 -6q-6 -37 -62 -37q-37 0 -59.5 24t-22.5 67q0 104 125 104q84 0 136.5 -54.5
t52.5 -144.5q0 -115 -76 -176t-221 -57z" />
    <glyph glyph-name="S.aalt" horiz-adv-x="1206" 
d="M596 -29q-295 0 -471 158q-27 20 -10 49l37 70q20 33 55 12q152 -143 393 -143q137 0 217 49t80 127q0 66 -45 101.5t-147 51.5l-254 39q-309 53 -310 297q0 143 122 216t343 73q281 0 436 -145q31 -16 13 -49l-35 -66q-16 -31 -51 -12q-135 133 -365 133
q-293 0 -293 -150q0 -127 178 -155l271 -41q152 -25 231.5 -92.5t79.5 -204.5q0 -158 -131 -238t-344 -80z" />
    <glyph glyph-name="Sacute.aalt" horiz-adv-x="1206" 
d="M854 1524q14 -10 16 -27.5t-10 -30.5l-235 -282q-20 -20 -45 -4l-27 20q-29 18 -10 49l202 305q23 37 58 11zM596 -29q-295 0 -471 158q-27 20 -10 49l37 70q20 33 55 12q152 -143 393 -143q137 0 217 49t80 127q0 66 -45 101.5t-147 51.5l-254 39q-309 53 -310 297
q0 143 122 216t343 73q281 0 436 -145q31 -16 13 -49l-35 -66q-16 -31 -51 -12q-135 133 -365 133q-293 0 -293 -150q0 -127 178 -155l271 -41q152 -25 231.5 -92.5t79.5 -204.5q0 -158 -131 -238t-344 -80z" />
    <glyph glyph-name="Scaron.aalt" horiz-adv-x="1206" 
d="M561 1174q-18 0 -29 16l-210 321q-18 31 10 52l26 16q25 18 43 -8l193 -258q16 -18 35 0l188 256q20 25 45 8l27 -18q31 -18 8 -50l-211 -319q-10 -16 -29 -16h-96zM596 -29q-295 0 -471 158q-27 20 -10 49l37 70q20 33 55 12q152 -143 393 -143q137 0 217 49t80 127
q0 66 -45 101.5t-147 51.5l-254 39q-309 53 -310 297q0 143 122 216t343 73q281 0 436 -145q31 -16 13 -49l-35 -66q-16 -31 -51 -12q-135 133 -365 133q-293 0 -293 -150q0 -127 178 -155l271 -41q152 -25 231.5 -92.5t79.5 -204.5q0 -158 -131 -238t-344 -80z" />
    <glyph glyph-name="Scedilla.c2sc" horiz-adv-x="1206" 
d="M645 -27l-10 -47q-8 -23 14 -24q78 -8 130 -48t52 -110q0 -145 -217 -145q-53 0 -125 10q-31 6 -26 41l4 18q6 37 37 29q41 -10 94 -10q117 0 117 61q0 74 -144 80q-43 8 -36 45l22 98q-268 8 -432 158q-27 20 -10 49l37 70q20 33 55 12q152 -143 393 -143q137 0 217 49
t80 127q0 66 -45 101.5t-147 51.5l-254 39q-309 53 -310 297q0 143 122 216t343 73q281 0 436 -145q31 -16 13 -49l-35 -66q-16 -31 -51 -12q-135 133 -365 133q-293 0 -293 -150q0 -127 178 -155l271 -41q152 -25 231.5 -92.5t79.5 -204.5q0 -150 -116.5 -229t-309.5 -87z
" />
    <glyph glyph-name="uni0218.aalt" horiz-adv-x="1206" 
d="M596 -29q-295 0 -471 158q-27 20 -10 49l37 70q20 33 55 12q152 -143 393 -143q137 0 217 49t80 127q0 66 -45 101.5t-147 51.5l-254 39q-309 53 -310 297q0 143 122 216t343 73q281 0 436 -145q31 -16 13 -49l-35 -66q-16 -31 -51 -12q-135 133 -365 133
q-293 0 -293 -150q0 -127 178 -155l271 -41q152 -25 231.5 -92.5t79.5 -204.5q0 -158 -131 -238t-344 -80zM502 -518q-37 0 -37 35l-2 18q0 33 43 37q147 -6 178 106q8 68 -41 84q-2 2 -14 -6q-6 -37 -62 -37q-37 0 -59.5 24t-22.5 67q0 104 125 104q84 0 136.5 -54.5
t52.5 -144.5q0 -115 -76 -176t-221 -57z" />
    <glyph glyph-name="T.aalt" horiz-adv-x="1093" 
d="M983 1042q39 0 39 -38v-80q0 -16 -11.5 -26.5t-27.5 -10.5h-328q-18 0 -18 -19v-829q0 -39 -39 -39h-104q-16 0 -26.5 11.5t-10.5 27.5v829q0 18 -19 19h-329q-14 0 -25.5 11t-11.5 26v80q0 16 10 27t27 11h874z" />
    <glyph glyph-name="Tbar.aalt" horiz-adv-x="1093" 
d="M983 1042q39 0 39 -38v-80q0 -16 -11.5 -26.5t-27.5 -10.5h-328q-18 0 -18 -19v-319h285q16 0 26 -10.5t10 -26.5v-66q0 -16 -11 -27t-25 -11h-285v-369q0 -39 -39 -39h-104q-16 0 -26.5 11.5t-10.5 27.5v369h-283q-14 0 -26.5 11t-12.5 27v66q0 14 11.5 25.5t27.5 11.5
h283v319q0 18 -19 19h-329q-14 0 -25.5 11t-11.5 26v80q0 16 10 27t27 11h874z" />
    <glyph glyph-name="Tcaron.aalt" horiz-adv-x="1093" 
d="M498 1174q-18 0 -29 16l-211 321q-18 31 10 52l27 16q25 18 43 -8l192 -258q16 -18 35 0l189 256q20 25 45 8l26 -18q31 -18 9 -50l-211 -319q-10 -16 -29 -16h-96zM983 1042q39 0 39 -38v-80q0 -16 -11.5 -26.5t-27.5 -10.5h-328q-18 0 -18 -19v-829q0 -39 -39 -39h-104
q-16 0 -26.5 11.5t-10.5 27.5v829q0 18 -19 19h-329q-14 0 -25.5 11t-11.5 26v80q0 16 10 27t27 11h874z" />
    <glyph glyph-name="uni0162.c2sc" horiz-adv-x="1093" 
d="M983 1042q39 0 39 -38v-80q0 -16 -11.5 -26.5t-27.5 -10.5h-328q-18 0 -18 -19v-829q0 -39 -39 -39h-12l-15 -74q-8 -23 15 -24q78 -8 130 -48t52 -110q0 -145 -217 -145q-53 0 -125 10q-31 6 -27 41l4 18q6 37 37 29q41 -10 95 -10q117 0 116 61q0 74 -143 80
q-43 8 -37 45l27 127h-4q-16 0 -26.5 11.5t-10.5 27.5v829q0 18 -19 19h-329q-14 0 -25.5 11t-11.5 26v80q0 16 10 27t27 11h874z" />
    <glyph glyph-name="uni021A.aalt" horiz-adv-x="1093" 
d="M983 1042q39 0 39 -38v-80q0 -16 -11.5 -26.5t-27.5 -10.5h-328q-18 0 -18 -19v-829q0 -39 -39 -39h-104q-16 0 -26.5 11.5t-10.5 27.5v829q0 18 -19 19h-329q-14 0 -25.5 11t-11.5 26v80q0 16 10 27t27 11h874zM438 -518q-37 0 -37 35l-2 18q0 33 43 37q147 -6 179 106
q8 68 -41 84q-2 2 -15 -6q-6 -37 -61 -37q-37 0 -59.5 24t-22.5 67q0 104 125 104q84 0 136 -54.5t52 -144.5q0 -115 -76 -176t-221 -57z" />
    <glyph glyph-name="U.aalt" horiz-adv-x="1284" 
d="M649 -27q-242 0 -375 119t-133 363l2 549q0 16 10.5 27t26.5 11h105q16 0 27.5 -11t11.5 -27l-2 -543q0 -328 327 -328q311 0 312 328v543q0 39 38 38h105q16 0 27.5 -11t11.5 -27v-549q0 -244 -128 -363t-366 -119z" />
    <glyph glyph-name="Uacute.aalt" horiz-adv-x="1284" 
d="M885 1524q14 -10 16 -27.5t-10 -30.5l-236 -282q-20 -20 -45 -4l-26 20q-29 18 -11 49l203 305q23 37 58 11zM649 -27q-242 0 -375 119t-133 363l2 549q0 16 10.5 27t26.5 11h105q16 0 27.5 -11t11.5 -27l-2 -543q0 -328 327 -328q311 0 312 328v543q0 39 38 38h105
q16 0 27.5 -11t11.5 -27v-549q0 -244 -128 -363t-366 -119z" />
    <glyph glyph-name="Ucircumflex.aalt" horiz-adv-x="1284" 
d="M389 1180l-27 16q-31 20 -10 51l211 322q10 16 29 16h96q18 0 29 -16l211 -320q23 -31 -8 -49l-27 -16q-25 -18 -45 6l-189 256q-18 23 -34 0l-193 -258q-18 -26 -43 -8zM649 -27q-242 0 -375 119t-133 363l2 549q0 16 10.5 27t26.5 11h105q16 0 27.5 -11t11.5 -27
l-2 -543q0 -328 327 -328q311 0 312 328v543q0 39 38 38h105q16 0 27.5 -11t11.5 -27v-549q0 -244 -128 -363t-366 -119z" />
    <glyph glyph-name="Udieresis.aalt" horiz-adv-x="1284" 
d="M584 1235q-106 0 -107 121q0 117 107 117q29 0 55 -11q18 8 49 8q111 0 111 -114q0 -121 -111 -121q-27 0 -51 10q-24 -10 -53 -10zM1104 1042q16 0 27.5 -11t11.5 -27v-549q0 -244 -128 -363t-366 -119q-242 0 -375 119t-133 363l2 549q0 16 10.5 27t26.5 11h105
q16 0 27.5 -11t11.5 -27l-2 -543q0 -328 327 -328q311 0 312 328v543q0 39 38 38h105z" />
    <glyph glyph-name="Ugrave.aalt" horiz-adv-x="1284" 
d="M416 1466q-14 12 -12 29.5t16 28.5l53 41q33 27 55 -11l203 -305q18 -29 -6 -49l-29 -20q-25 -16 -45 4zM649 -27q-242 0 -375 119t-133 363l2 549q0 16 10.5 27t26.5 11h105q16 0 27.5 -11t11.5 -27l-2 -543q0 -328 327 -328q311 0 312 328v543q0 39 38 38h105
q16 0 27.5 -11t11.5 -27v-549q0 -244 -128 -363t-366 -119z" />
    <glyph glyph-name="Uhungarumlaut.aalt" horiz-adv-x="1284" 
d="M459 1178l-27 12q-25 14 -18 45l151 350q6 18 20.5 24.5t30.5 -1.5l66 -31q39 -20 16 -57l-194 -328q-16 -26 -45 -14zM809 1169q-25 -18 -45 -2l-23 19q-25 16 -4 45l226 309q10 16 26.5 18.5t30.5 -10.5l51 -45q31 -31 0 -59zM649 -27q-242 0 -375 119t-133 363l2 549
q0 16 10.5 27t26.5 11h105q16 0 27.5 -11t11.5 -27l-2 -543q0 -328 327 -328q311 0 312 328v543q0 39 38 38h105q16 0 27.5 -11t11.5 -27v-549q0 -244 -128 -363t-366 -119z" />
    <glyph glyph-name="Umacron.aalt" horiz-adv-x="1284" 
d="M989 1346q0 -14 -11 -25.5t-26 -11.5h-620q-16 0 -27.5 10t-11.5 27v65q0 16 11 26.5t28 10.5h620q14 0 25.5 -11.5t11.5 -25.5v-65zM649 -27q-242 0 -375 119t-133 363l2 549q0 16 10.5 27t26.5 11h105q16 0 27.5 -11t11.5 -27l-2 -543q0 -328 327 -328q311 0 312 328
v543q0 39 38 38h105q16 0 27.5 -11t11.5 -27v-549q0 -244 -128 -363t-366 -119z" />
    <glyph glyph-name="Uogonek.aalt" horiz-adv-x="1284" 
d="M1104 1042q16 0 27.5 -11t11.5 -27v-549q0 -367 -295 -455q-98 -57 -143.5 -103.5t-45.5 -103.5q0 -63 82 -63q37 0 109 16q27 2 31 -22l2 -43q4 -37 -27 -43q-55 -18 -143 -19q-184 0 -185 141q0 121 150 213h-29q-242 0 -375 119t-133 363l2 549q0 16 10.5 27t26.5 11
h105q16 0 27.5 -11t11.5 -27l-2 -543q0 -328 327 -328q311 0 312 328v543q0 39 38 38h105z" />
    <glyph glyph-name="Uring.aalt" horiz-adv-x="1284" 
d="M641 1174q-139 0 -214 54t-75 158v35q0 211 289 211t289 -211v-35q0 -104 -75 -158t-214 -54zM641 1274q170 0 170 115v30q0 113 -170 113q-172 0 -172 -113v-30q0 -115 172 -115zM649 -27q-242 0 -375 119t-133 363l2 549q0 16 10.5 27t26.5 11h105q16 0 27.5 -11
t11.5 -27l-2 -543q0 -328 327 -328q311 0 312 328v543q0 39 38 38h105q16 0 27.5 -11t11.5 -27v-549q0 -244 -128 -363t-366 -119z" />
    <glyph glyph-name="V.aalt" horiz-adv-x="1267" 
d="M1137 1044q25 0 38 -19t3 -42l-439 -965q-10 -20 -30 -20h-174q-25 0 -31 20l-414 967q-8 23 3 41t34 18h109q27 0 32 -22l336 -842q16 -51 31 0l362 842q10 23 33 22h107z" />
    <glyph glyph-name="W.aalt" horiz-adv-x="1701" 
d="M1567 1042q23 0 36 -16t5 -37l-297 -964q-10 -25 -35 -25h-150q-25 0 -32 27l-217 669q-16 57 -29.5 57.5t-30.5 -57.5l-233 -671q-6 -25 -33 -25h-150q-27 0 -32 27l-275 962q-6 20 5.5 36.5t31.5 16.5h111q29 0 34 -28l181 -658q12 -59 30.5 -60t34.5 58l221 643
q6 25 33 25h148q27 0 34 -27l205 -630q10 -41 21.5 -55.5t24 0t20.5 57.5l196 647q4 29 35 28h107z" />
    <glyph glyph-name="Wacute.aalt" horiz-adv-x="1701" 
d="M1098 1524q14 -10 16 -27.5t-10 -30.5l-236 -282q-20 -20 -45 -4l-26 20q-29 18 -11 49l203 305q23 37 58 11zM1567 1042q23 0 36 -16t5 -37l-297 -964q-10 -25 -35 -25h-150q-25 0 -32 27l-217 669q-16 57 -29.5 57.5t-30.5 -57.5l-233 -671q-6 -25 -33 -25h-150
q-27 0 -32 27l-275 962q-6 20 5.5 36.5t31.5 16.5h111q29 0 34 -28l181 -658q12 -59 30.5 -60t34.5 58l221 643q6 25 33 25h148q27 0 34 -27l205 -630q10 -41 21.5 -55.5t24 0t20.5 57.5l196 647q4 29 35 28h107z" />
    <glyph glyph-name="Wcircumflex.aalt" horiz-adv-x="1701" 
d="M602 1180l-27 16q-31 20 -10 51l211 322q10 16 29 16h96q18 0 29 -16l211 -320q23 -31 -8 -49l-27 -16q-25 -18 -45 6l-189 256q-18 23 -34 0l-193 -258q-18 -26 -43 -8zM1567 1042q23 0 36 -16t5 -37l-297 -964q-10 -25 -35 -25h-150q-25 0 -32 27l-217 669
q-16 57 -29.5 57.5t-30.5 -57.5l-233 -671q-6 -25 -33 -25h-150q-27 0 -32 27l-275 962q-6 20 5.5 36.5t31.5 16.5h111q29 0 34 -28l181 -658q12 -59 30.5 -60t34.5 58l221 643q6 25 33 25h148q27 0 34 -27l205 -630q10 -41 21.5 -55.5t24 0t20.5 57.5l196 647q4 29 35 28
h107z" />
    <glyph glyph-name="Wdieresis.aalt" horiz-adv-x="1701" 
d="M797 1235q-106 0 -107 121q0 117 107 117q29 0 55 -11q18 8 49 8q111 0 111 -114q0 -121 -111 -121q-27 0 -51 10q-24 -10 -53 -10zM1567 1042q23 0 36 -16t5 -37l-297 -964q-10 -25 -35 -25h-150q-25 0 -32 27l-217 669q-16 57 -29.5 57.5t-30.5 -57.5l-233 -671
q-6 -25 -33 -25h-150q-27 0 -32 27l-275 962q-6 20 5.5 36.5t31.5 16.5h111q29 0 34 -28l181 -658q12 -59 30.5 -60t34.5 58l221 643q6 25 33 25h148q27 0 34 -27l205 -630q10 -41 21.5 -55.5t24 0t20.5 57.5l196 647q4 29 35 28h107z" />
    <glyph glyph-name="Wgrave.aalt" horiz-adv-x="1701" 
d="M629 1466q-14 12 -12.5 29.5t16.5 28.5l53 41q33 27 55 -11l203 -305q18 -29 -6 -49l-29 -20q-25 -16 -45 4zM1567 1042q23 0 36 -16t5 -37l-297 -964q-10 -25 -35 -25h-150q-25 0 -32 27l-217 669q-16 57 -29.5 57.5t-30.5 -57.5l-233 -671q-6 -25 -33 -25h-150
q-27 0 -32 27l-275 962q-6 20 5.5 36.5t31.5 16.5h111q29 0 34 -28l181 -658q12 -59 30.5 -60t34.5 58l221 643q6 25 33 25h148q27 0 34 -27l205 -630q10 -41 21.5 -55.5t24 0t20.5 57.5l196 647q4 29 35 28h107z" />
    <glyph glyph-name="X.aalt" horiz-adv-x="1183" 
d="M145 0q-31 0 -42 25.5t8 52.5l348 438q10 10 0 21l-344 428q-18 27 -9 52t39 25h107q20 0 29 -14l301 -375q6 -10 18 -10t18 10l291 371q12 18 33 18h96q29 0 41.5 -25.5t-8.5 -51.5l-342 -433q-6 -12 0 -20l344 -432q20 -27 10 -53.5t-43 -26.5h-100q-23 0 -33 16
l-303 377q-6 8 -17.5 8t-17.5 -8l-299 -377q-8 -16 -28 -16h-97z" />
    <glyph glyph-name="Y.aalt" horiz-adv-x="1222" 
d="M563 0q-35 0 -39 33v344q0 16 -14 35l-406 555q-18 27 -8 51t43 24h99q23 0 32 -18l326 -465q8 -12 20.5 -12t20.5 12l317 465q10 18 31 18h98q29 0 41.5 -24.5t-4.5 -48.5l-403 -555q-12 -14 -12 -35v-340q2 -16 -9.5 -27.5t-27.5 -11.5h-105z" />
    <glyph glyph-name="Yacute.aalt" horiz-adv-x="1222" 
d="M856 1524q14 -10 16 -27.5t-10 -30.5l-235 -282q-20 -20 -45 -4l-27 20q-29 18 -10 49l203 305q23 37 57 11zM563 0q-35 0 -39 33v344q0 16 -14 35l-406 555q-18 27 -8 51t43 24h99q23 0 32 -18l326 -465q8 -12 20.5 -12t20.5 12l317 465q10 18 31 18h98q29 0 41.5 -24.5
t-4.5 -48.5l-403 -555q-12 -14 -12 -35v-340q2 -16 -9.5 -27.5t-27.5 -11.5h-105z" />
    <glyph glyph-name="Ycircumflex.aalt" horiz-adv-x="1222" 
d="M360 1180l-26 16q-31 20 -10 51l211 322q10 16 28 16h96q18 0 29 -16l211 -320q23 -31 -8 -49l-27 -16q-25 -18 -45 6l-188 256q-18 23 -35 0l-193 -258q-18 -26 -43 -8zM563 0q-35 0 -39 33v344q0 16 -14 35l-406 555q-18 27 -8 51t43 24h99q23 0 32 -18l326 -465
q8 -12 20.5 -12t20.5 12l317 465q10 18 31 18h98q29 0 41.5 -24.5t-4.5 -48.5l-403 -555q-12 -14 -12 -35v-340q2 -16 -9.5 -27.5t-27.5 -11.5h-105z" />
    <glyph glyph-name="ydieresis.aalt" horiz-adv-x="1222" 
d="M555 1235q-106 0 -106 121q0 117 106 117q29 0 55 -11q18 8 49 8q111 0 111 -114q0 -121 -111 -121q-27 0 -51 10q-24 -10 -53 -10zM1083 1042q29 0 41.5 -24.5t-4.5 -48.5l-403 -555q-12 -14 -12 -35v-340q2 -16 -9.5 -27.5t-27.5 -11.5h-105q-35 0 -39 33v344
q0 16 -14 35l-406 555q-18 27 -8 51t43 24h99q23 0 32 -18l326 -465q8 -12 20.5 -12t20.5 12l317 465q10 18 31 18h98z" />
    <glyph glyph-name="Ygrave.aalt" horiz-adv-x="1222" 
d="M387 1466q-14 12 -12 29.5t16 28.5l53 41q33 27 56 -11l202 -305q18 -29 -6 -49l-28 -20q-25 -16 -45 4zM563 0q-35 0 -39 33v344q0 16 -14 35l-406 555q-18 27 -8 51t43 24h99q23 0 32 -18l326 -465q8 -12 20.5 -12t20.5 12l317 465q10 18 31 18h98q29 0 41.5 -24.5
t-4.5 -48.5l-403 -555q-12 -14 -12 -35v-340q2 -16 -9.5 -27.5t-27.5 -11.5h-105z" />
    <glyph glyph-name="Z.aalt" horiz-adv-x="1118" 
d="M156 0q-16 0 -26.5 11.5t-10.5 27.5v86q0 20 12 33l612 700q14 10 12.5 20.5t-30.5 10.5h-610q-16 0 -27.5 12t-11.5 27v80q0 14 11 25t28 11h876q16 0 26.5 -10t10.5 -26v-86q0 -20 -18 -37l-598 -686q-45 -41 12 -41h596q14 0 25.5 -11.5t11.5 -27.5v-80
q0 -16 -10.5 -27.5t-26.5 -11.5h-864z" />
    <glyph glyph-name="Zacute.aalt" horiz-adv-x="1118" 
d="M786 1526q14 -10 16.5 -27.5t-9.5 -30.5l-236 -282q-20 -20 -45 -4l-27 20q-29 18 -10 49l203 305q23 37 57 11zM156 0q-16 0 -26.5 11.5t-10.5 27.5v86q0 20 12 33l612 700q14 10 12.5 20.5t-30.5 10.5h-610q-16 0 -27.5 12t-11.5 27v80q0 14 11 25t28 11h876
q16 0 26.5 -10t10.5 -26v-86q0 -20 -18 -37l-598 -686q-45 -41 12 -41h596q14 0 25.5 -11.5t11.5 -27.5v-80q0 -16 -10.5 -27.5t-26.5 -11.5h-864z" />
    <glyph glyph-name="Zcaron.aalt" horiz-adv-x="1118" 
d="M494 1176q-18 0 -29 16l-211 321q-18 31 10 52l27 16q25 18 43 -8l192 -258q16 -18 35 0l189 256q20 25 45 8l26 -18q31 -18 8 -50l-211 -319q-10 -16 -28 -16h-96zM156 0q-16 0 -26.5 11.5t-10.5 27.5v86q0 20 12 33l612 700q14 10 12.5 20.5t-30.5 10.5h-610
q-16 0 -27.5 12t-11.5 27v80q0 14 11 25t28 11h876q16 0 26.5 -10t10.5 -26v-86q0 -20 -18 -37l-598 -686q-45 -41 12 -41h596q14 0 25.5 -11.5t11.5 -27.5v-80q0 -16 -10.5 -27.5t-26.5 -11.5h-864z" />
    <glyph glyph-name="Zdotaccent.aalt" horiz-adv-x="1118" 
d="M541 1262q-106 0 -107 122q0 115 107 115q111 0 110 -115q0 -59 -29.5 -90.5t-80.5 -31.5zM156 0q-16 0 -26.5 11.5t-10.5 27.5v86q0 20 12 33l612 700q14 10 12.5 20.5t-30.5 10.5h-610q-16 0 -27.5 12t-11.5 27v80q0 14 11 25t28 11h876q16 0 26.5 -10t10.5 -26v-86
q0 -20 -18 -37l-598 -686q-45 -41 12 -41h596q14 0 25.5 -11.5t11.5 -27.5v-80q0 -16 -10.5 -27.5t-26.5 -11.5h-864z" />
    <glyph glyph-name="zero.aalt" horiz-adv-x="1343" 
d="M668 -31q-553 0 -553 496v115q0 250 143 370.5t410 120.5q270 0 415.5 -121t145.5 -370v-115q0 -496 -561 -496zM668 135q379 0 379 334v106q0 332 -379 332q-373 0 -373 -332v-106q0 -334 373 -334z" />
    <glyph glyph-name="one.aalt" horiz-adv-x="679" 
d="M442 1042q16 0 26.5 -11t10.5 -25v-967q0 -16 -10 -27.5t-27 -11.5h-102q-16 0 -27.5 11.5t-11.5 27.5v815q0 18 -18 12l-146 -67q-39 -18 -53 20l-23 66q-14 37 21 49l215 94q31 14 70 14h75z" />
    <glyph glyph-name="two.aalt" horiz-adv-x="1177" 
d="M174 0q-39 0 -39 39v86q0 18 21 31l424 237q266 156 266 328q0 186 -248 186q-258 0 -395 -178q-29 -25 -53 0l-50 62q-27 23 -2 49q174 231 520 231q414 0 414 -315q0 -242 -303 -428l-256 -158q-8 -4 -11 -8t2 -6t15 -2h596q39 0 39 -39v-76q0 -39 -39 -39h-901z" />
    <glyph glyph-name="three.aalt" horiz-adv-x="1196" 
d="M598 -287q-190 0 -311 60.5t-201 185.5q-18 25 4 49l64 66q33 29 59 -6q61 -96 149.5 -142.5t233.5 -46.5q158 0 241 62.5t83 175.5q0 223 -304 223h-213q-14 0 -25 10t-11 27v61q0 16 10 27.5t26 11.5h215q131 0 197 62.5t66 169.5q0 199 -265 198q-262 0 -397 -190
q-29 -29 -53 -6l-68 57q-27 23 -6 51q94 133 223 192.5t320 59.5q201 0 315.5 -80t114.5 -248q0 -113 -51 -194.5t-140 -114.5q-25 -12 3 -22q225 -63 225 -310q0 -190 -132 -289.5t-372 -99.5z" />
    <glyph glyph-name="four.aalt" horiz-adv-x="1181" 
d="M821 -244q-16 0 -26.5 11.5t-10.5 27.5v187q0 18 -18 18h-686q-39 0 -39 39v86q0 8 4 16l463 883q8 18 31 18h112q27 0 39 -20.5t0 -46.5l-432 -789q-8 -12 -4 -25.5t20 -13.5h492q18 0 18 19v328q0 16 11.5 27t25.5 11h103q16 0 27.5 -11t11.5 -27v-328q0 -18 18 -19
h129q16 0 26.5 -10t10.5 -26v-72q0 -16 -10.5 -27.5t-26.5 -11.5h-129q-18 0 -18 -18v-187q0 -39 -39 -39h-103z" />
    <glyph glyph-name="five.aalt" horiz-adv-x="1169" 
d="M563 -274q-160 0 -272.5 56t-192.5 185q-14 20 4 43l58 64q27 31 57 0q121 -184 350 -185q166 0 254 65.5t88 188.5q0 115 -70.5 165t-217.5 50h-406q-39 0 -39 39v607q0 39 39 38h784q16 0 27.5 -11t11.5 -27v-89q0 -16 -11 -27t-28 -11h-637q-16 0 -21 -5.5t-5 -21.5
v-322q0 -27 26 -26h320q213 0 310.5 -88t97.5 -267q0 -209 -137.5 -315t-389.5 -106z" />
    <glyph glyph-name="six.aalt" horiz-adv-x="1271" 
d="M657 -31q-549 0 -548 570v290q0 567 561 568q352 0 481 -269q14 -27 -10 -47l-72 -57q-29 -23 -55 10q-92 195 -344 195q-373 0 -379 -381v-54v-69v-51.5t12 -22.5t23 13q121 137 391 137q463 0 463 -383q0 -229 -141.5 -339t-381.5 -110zM659 137q164 0 253 72t89 205
q0 244 -337 243q-156 0 -253.5 -63.5t-97.5 -178t82 -196.5t264 -82z" />
    <glyph glyph-name="seven.aalt" horiz-adv-x="1067" 
d="M975 1042q16 0 26.5 -11t10.5 -27v-80q0 -27 -15 -60l-553 -1110q-8 -27 -36 -26h-125q-27 0 -38.5 20.5t1.5 44.5l536 1043q18 41 -18 41h-713q-39 0 -39 38v89q0 39 39 38h924z" />
    <glyph glyph-name="eight.aalt" horiz-adv-x="1308" 
d="M653 -29q-567 0 -567 389q0 262 258 328q29 10 2 23q-227 63 -227 307q0 377 534 377q537 0 537 -377q0 -244 -227 -307q-27 -12 2 -23q258 -66 258 -328q-1 -389 -570 -389zM653 756q358 0 359 233q0 240 -359 240q-356 0 -356 -240q0 -233 356 -233zM653 137
q391 0 391 252q0 238 -391 238q-389 0 -389 -238q0 -252 389 -252z" />
    <glyph glyph-name="nine.aalt" horiz-adv-x="1261" 
d="M606 1071q272 0 412.5 -140t140.5 -444v-231q0 -567 -567 -567q-180 0 -301 56t-201 185q-25 27 4 52l66 67q25 25 51 -4q109 -190 375 -190q393 0 393 387q0 117 -2 139q0 12 -5 16t-14.5 -3t-16.5 -13t-17 -16q-129 -123 -375 -123q-238 0 -350.5 99t-112.5 302
q0 217 141 322.5t379 105.5zM600 385q158 0 256 64.5t98 179.5q0 113 -84 194.5t-264 81.5q-164 0 -253 -68.5t-89 -197.5q0 -254 336 -254z" />
    <glyph glyph-name="glyph469" 
d="M-104 1516q18 0 29.5 -13.5t8.5 -32.5l-28 -413q-4 -35 -37 -35h-37q-14 0 -24.5 11t-10.5 28l2 416q0 39 39 39h58z" />
    <glyph glyph-name="glyph470" 
d="M-586 1085l-26 17q-31 20 -11 51l211 322q10 16 29 16h96q18 0 29 -16l211 -320q23 -31 -8 -49l-27 -16q-25 -18 -45 6l-188 256q-18 23 -35 0l-193 -258q-18 -27 -43 -9z" />
    <glyph glyph-name="uni0308.aalt" 
d="M-571 1130q-106 0 -107 121q0 115 107 115q109 0 108 -115q1 -121 -108 -121zM-143 1130q-106 0 -107 121q0 115 107 115q111 0 110 -115q1 -121 -110 -121z" />
    <glyph glyph-name="uni0307.aalt" 
d="M-150 1174q-106 0 -106 120q0 117 106 117q111 0 111 -117q0 -120 -111 -120z" />
    <glyph glyph-name="gravecomb.aalt" 
d="M-74 1083q-27 -18 -47 7l-235 282q-14 12 -12.5 29.5t16.5 28.5l53 40q33 27 55 -10l203 -305q18 -29 -6 -49z" />
    <glyph glyph-name="acutecomb.aalt" 
d="M-53 1430q14 -10 16 -28t-10 -30l-236 -282q-20 -20 -45 -5l-26 21q-29 18 -11 49l203 305q23 37 58 10z" />
    <glyph glyph-name="uni030B.aalt" 
d="M-666 1083l-26 13q-25 14 -19 45l152 350q6 18 20.5 24.5t30.5 -2.5l66 -30q39 -20 16 -58l-195 -327q-16 -27 -45 -15zM-315 1075q-25 -18 -45 -2l-23 19q-25 16 -4 45l225 309q10 16 26.5 18t31.5 -10l51 -45q31 -31 0 -59z" />
    <glyph glyph-name="uni0302.aalt" 
d="M-586 1085l-26 17q-31 20 -11 51l211 322q10 16 29 16h96q18 0 29 -16l211 -320q23 -31 -8 -49l-27 -16q-25 -18 -45 6l-188 256q-18 23 -35 0l-193 -258q-18 -27 -43 -9z" />
    <glyph glyph-name="uni030C.aalt" 
d="M-383 1079q-18 0 -29 17l-211 321q-18 31 11 51l26 17q25 18 43 -8l193 -258q16 -18 35 0l188 256q20 25 45 8l27 -19q31 -18 8 -49l-211 -319q-10 -16 -29 -17h-96z" />
    <glyph glyph-name="uni0306.aalt" 
d="M-344 1065q-305 0 -315 358q-2 16 10 27.5t28 11.5h74q33 0 37 -39q4 -231 166 -231q158 0 162 231q4 39 39 39h71q39 0 39 -45q-10 -352 -311 -352z" />
    <glyph glyph-name="uni030A.aalt" 
d="M-321.5 1071q-288.5 0 -288.5 213v35q0 211 288.5 211t288.5 -211v-35q0 -213 -288.5 -213zM-322 1171q170 0 170 119v25q0 115 -170 115q-172 0 -172 -115v-25q0 -119 172 -119z" />
    <glyph glyph-name="tildecomb.aalt" 
d="M-639 1069q-16 0 -26.5 10.5t-10.5 26.5q-12 354 182 354q37 0 68 -21.5t44 -41t46 -72.5q4 -6 12.5 -21.5t12.5 -21.5t11 -18.5t13 -18.5t13.5 -12t15.5 -9t18 -3q76 0 72 204q6 37 33 37h57q37 0 37 -37q4 -180 -47 -267t-139 -87q-37 0 -68 20.5t-47 43t-41 65.5
q-6 10 -16.5 28.5t-15.5 27t-14 20.5t-15.5 17t-14.5 9.5t-18 4.5q-72 0 -70 -203q-6 -35 -35 -35h-57z" />
    <glyph glyph-name="uni0304.aalt" 
d="M-59 1251q0 -14 -11.5 -25.5t-25.5 -11.5h-621q-16 0 -27.5 10.5t-11.5 26.5v66q0 16 11.5 26.5t27.5 10.5h621q14 0 25.5 -11.5t11.5 -25.5v-66z" />
    <glyph glyph-name="uni0312.aalt" 
 />
    <glyph glyph-name="uni0326.aalt" 
d="M-295 -524q-37 0 -37 35l-2 18q0 33 43 37q147 -6 178 106q8 68 -41 84q-2 2 -14 -6q-6 -37 -61 -37q-37 0 -59.5 23.5t-22.5 66.5q0 104 125 105q84 0 136 -54.5t52 -144.5q0 -115 -76 -176t-221 -57z" />
    <glyph glyph-name="uni0327.aalt" 
d="M-242 -401q-53 0 -125 10q-31 6 -26 41l4 18q6 37 37 29q41 -10 94 -10q117 0 117 61q0 74 -144 80q-43 8 -37 45l31 141l86 -6l-16 -82q-8 -23 14 -24q78 -8 130 -48t52 -110q0 -145 -217 -145z" />
    <glyph glyph-name="uni0328.aalt" 
d="M-219 -393q-184 0 -184 141q0 94 90 170t215 113l51 -23q-121 -70 -173 -118t-52 -109q0 -63 82 -64q37 0 108 17q27 2 31 -23l2 -43q4 -37 -27 -43q-55 -18 -143 -18z" />
    <glyph glyph-name="glyph486" horiz-adv-x="256" 
d="M174 1479q16 -2 26.5 -16.5t6.5 -30.5l-66 -445q-6 -29 -39 -29l-34 7q-35 0 -31 36l22 449q4 43 43 39z" />
    </font>
</defs>
</svg>
